<svg aria-roledescription="flowchart-v2" role="graphics-document document" viewBox="-8 -8 949.4453125 1314" style="max-width: 949.445px; background-color: transparent;" xmlns:xlink="http://www.w3.org/1999/xlink" xmlns="http://www.w3.org/2000/svg" width="100%" id="my-svg"><style>#my-svg{font-family:"trebuchet ms",verdana,arial,sans-serif;font-size:16px;fill:#333;}#my-svg .error-icon{fill:#552222;}#my-svg .error-text{fill:#552222;stroke:#552222;}#my-svg .edge-thickness-normal{stroke-width:2px;}#my-svg .edge-thickness-thick{stroke-width:3.5px;}#my-svg .edge-pattern-solid{stroke-dasharray:0;}#my-svg .edge-pattern-dashed{stroke-dasharray:3;}#my-svg .edge-pattern-dotted{stroke-dasharray:2;}#my-svg .marker{fill:#333333;stroke:#333333;}#my-svg .marker.cross{stroke:#333333;}#my-svg svg{font-family:"trebuchet ms",verdana,arial,sans-serif;font-size:16px;}#my-svg .label{font-family:"trebuchet ms",verdana,arial,sans-serif;color:#333;}#my-svg .cluster-label text{fill:#333;}#my-svg .cluster-label span,#my-svg p{color:#333;}#my-svg .label text,#my-svg span,#my-svg p{fill:#333;color:#333;}#my-svg .node rect,#my-svg .node circle,#my-svg .node ellipse,#my-svg .node polygon,#my-svg .node path{fill:#ECECFF;stroke:#9370DB;stroke-width:1px;}#my-svg .flowchart-label text{text-anchor:middle;}#my-svg .node .label{text-align:center;}#my-svg .node.clickable{cursor:pointer;}#my-svg .arrowheadPath{fill:#333333;}#my-svg .edgePath .path{stroke:#333333;stroke-width:2.0px;}#my-svg .flowchart-link{stroke:#333333;fill:none;}#my-svg .edgeLabel{background-color:#e8e8e8;text-align:center;}#my-svg .edgeLabel rect{opacity:0.5;background-color:#e8e8e8;fill:#e8e8e8;}#my-svg .labelBkg{background-color:rgba(232, 232, 232, 0.5);}#my-svg .cluster rect{fill:#ffffde;stroke:#aaaa33;stroke-width:1px;}#my-svg .cluster text{fill:#333;}#my-svg .cluster span,#my-svg p{color:#333;}#my-svg div.mermaidTooltip{position:absolute;text-align:center;max-width:200px;padding:2px;font-family:"trebuchet ms",verdana,arial,sans-serif;font-size:12px;background:hsl(80, 100%, 96.2745098039%);border:1px solid #aaaa33;border-radius:2px;pointer-events:none;z-index:100;}#my-svg .flowchartTitleText{text-anchor:middle;font-size:18px;fill:#333;}#my-svg :root{--mermaid-font-family:"trebuchet ms",verdana,arial,sans-serif;}</style><g><marker orient="auto" markerHeight="12" markerWidth="12" markerUnits="userSpaceOnUse" refY="5" refX="6" viewBox="0 0 10 10" class="marker flowchart" id="my-svg_flowchart-pointEnd"><path style="stroke-width: 1; stroke-dasharray: 1, 0;" class="arrowMarkerPath" d="M 0 0 L 10 5 L 0 10 z"/></marker><marker orient="auto" markerHeight="12" markerWidth="12" markerUnits="userSpaceOnUse" refY="5" refX="4.5" viewBox="0 0 10 10" class="marker flowchart" id="my-svg_flowchart-pointStart"><path style="stroke-width: 1; stroke-dasharray: 1, 0;" class="arrowMarkerPath" d="M 0 5 L 10 10 L 10 0 z"/></marker><marker orient="auto" markerHeight="11" markerWidth="11" markerUnits="userSpaceOnUse" refY="5" refX="11" viewBox="0 0 10 10" class="marker flowchart" id="my-svg_flowchart-circleEnd"><circle style="stroke-width: 1; stroke-dasharray: 1, 0;" class="arrowMarkerPath" r="5" cy="5" cx="5"/></marker><marker orient="auto" markerHeight="11" markerWidth="11" markerUnits="userSpaceOnUse" refY="5" refX="-1" viewBox="0 0 10 10" class="marker flowchart" id="my-svg_flowchart-circleStart"><circle style="stroke-width: 1; stroke-dasharray: 1, 0;" class="arrowMarkerPath" r="5" cy="5" cx="5"/></marker><marker orient="auto" markerHeight="11" markerWidth="11" markerUnits="userSpaceOnUse" refY="5.2" refX="12" viewBox="0 0 11 11" class="marker cross flowchart" id="my-svg_flowchart-crossEnd"><path style="stroke-width: 2; stroke-dasharray: 1, 0;" class="arrowMarkerPath" d="M 1,1 l 9,9 M 10,1 l -9,9"/></marker><marker orient="auto" markerHeight="11" markerWidth="11" markerUnits="userSpaceOnUse" refY="5.2" refX="-1" viewBox="0 0 11 11" class="marker cross flowchart" id="my-svg_flowchart-crossStart"><path style="stroke-width: 2; stroke-dasharray: 1, 0;" class="arrowMarkerPath" d="M 1,1 l 9,9 M 10,1 l -9,9"/></marker><g class="root"><g class="clusters"><g id="CI2" class="cluster default flowchart-label"><rect height="971" width="510.28125" y="327" x="423.1640625" ry="0" rx="0" style="fill:#fce7f3;stroke:#ec4899;"/><g transform="translate(612.9609375, 327)" class="cluster-label"><foreignObject height="26" width="130.6875"><div style="display: inline-block; white-space: nowrap;" xmlns="http://www.w3.org/1999/xhtml"><span class="nodeLabel">☁️ GitHub Actions</span></div></foreignObject></g></g><g id="LOCAL" class="cluster default flowchart-label"><rect height="193" width="394.5703125" y="218" x="0" ry="0" rx="0" style="fill:#fef3c7;stroke:#f59e0b;"/><g transform="translate(137.85546875, 218)" class="cluster-label"><foreignObject height="26" width="118.859375"><div style="display: inline-block; white-space: nowrap;" xmlns="http://www.w3.org/1999/xhtml"><span class="nodeLabel">🏠 Local Quality</span></div></foreignObject></g></g><g id="DEV" class="cluster default flowchart-label"><rect height="168" width="623.51171875" y="0" x="40.921875" ry="0" rx="0" style="fill:#f0fdfa;stroke:#14b8a6;"/><g transform="translate(293.060546875, 0)" class="cluster-label"><foreignObject height="26" width="119.234375"><div style="display: inline-block; white-space: nowrap;" xmlns="http://www.w3.org/1999/xhtml"><span class="nodeLabel">👨‍💻 Development</span></div></foreignObject></g></g><g id="MATRIX" class="cluster default flowchart-label"><rect height="322" width="470.28125" y="951" x="443.1640625" ry="0" rx="0" style=""/><g transform="translate(628.5, 951)" class="cluster-label"><foreignObject height="19" width="99.609375"><div style="display: inline-block; white-space: nowrap;" xmlns="http://www.w3.org/1999/xhtml"><span class="nodeLabel">Matrix Testing</span></div></foreignObject></g></g></g><g class="edgePaths"><path marker-end="url(#my-svg_flowchart-pointEnd)" style="fill:none;" class="edge-thickness-normal edge-pattern-solid flowchart-link LS-CODE LE-COMMIT" id="L-CODE-COMMIT-0" d="M396.94921875,59L396.94921875,63.166666666666664C396.94921875,67.33333333333333,396.94921875,75.66666666666667,396.94921875,83.11666666666666C396.94921875,90.56666666666666,396.94921875,97.13333333333333,396.94921875,100.41666666666667L396.94921875,103.7"/><path marker-end="url(#my-svg_flowchart-pointEnd)" style="fill:none;" class="edge-thickness-normal edge-pattern-solid flowchart-link LS-COMMIT LE-PRECOMMIT2" id="L-COMMIT-PRECOMMIT2-0" d="M350.58203125,132.71642394277015L309.9850260416667,138.59701995230844C269.3880208333333,144.47761596184677,188.19401041666666,156.23880798092338,147.59700520833334,166.28607065712836C107,176.33333333333334,107,184.66666666666666,107,193C107,201.33333333333334,107,209.66666666666666,107,217.11666666666667C107,224.5666666666667,107,231.13333333333333,107,234.41666666666666L107,237.7"/><path marker-end="url(#my-svg_flowchart-pointEnd)" style="fill:none;" class="edge-thickness-normal edge-pattern-solid flowchart-link LS-PRECOMMIT2 LE-MAKE" id="L-PRECOMMIT2-MAKE-0" d="M107,277L107,281.1666666666667C107,285.3333333333333,107,293.6666666666667,107,302C107,310.3333333333333,107,318.6666666666667,107,326.1166666666667C107,333.56666666666666,107,340.1333333333333,107,343.4166666666667L107,346.7"/><path marker-end="url(#my-svg_flowchart-pointEnd)" style="fill:none;" class="edge-thickness-normal edge-pattern-solid flowchart-link LS-COMMIT LE-QUALITY_WF" id="L-COMMIT-QUALITY_WF-0" d="M443.31640625,135.21175166297118L470.8229166666667,140.67645971914266C498.3294270833333,146.14116777531413,553.3424479166666,157.07058388765708,580.8489583333334,166.7019586104952C608.35546875,176.33333333333334,608.35546875,184.66666666666666,608.35546875,193C608.35546875,201.33333333333334,608.35546875,209.66666666666666,608.35546875,220.83333333333334C608.35546875,232,608.35546875,246,608.35546875,260C608.35546875,274,608.35546875,288,608.35546875,299.1666666666667C608.35546875,310.3333333333333,608.35546875,318.6666666666667,608.35546875,326.1166666666667C608.35546875,333.56666666666666,608.35546875,340.1333333333333,608.35546875,343.4166666666667L608.35546875,346.7"/><path marker-end="url(#my-svg_flowchart-pointEnd)" style="fill:none;" class="edge-thickness-normal edge-pattern-solid flowchart-link LS-QUALITY_WF LE-MATRIX_WF" id="L-QUALITY_WF-MATRIX_WF-0" d="M636.6682477678571,386L643.6076543898808,390.1666666666667C650.5470610119047,394.3333333333333,664.4258742559524,402.6666666666667,671.3652808779761,411C678.3046875,419.3333333333333,678.3046875,427.6666666666667,678.3046875,468.95C678.3046875,510.23333333333335,678.3046875,584.4666666666667,678.3046875,621.5833333333334L678.3046875,658.7"/><path marker-end="url(#my-svg_flowchart-pointEnd)" style="fill:none;" class="edge-thickness-normal edge-pattern-solid flowchart-link LS-MATRIX_WF LE-PY311" id="L-MATRIX_WF-PY311-0" d="M667.890019132653,698L644.6101721938775,736C621.330325255102,774,574.770631377551,850,551.4907844387754,892.1666666666666C528.2109375,934.3333333333334,528.2109375,942.6666666666666,528.2109375,969.9499999999999C528.2109375,997.2333333333332,528.2109375,1043.4666666666667,528.2109375,1066.5833333333333L528.2109375,1089.7"/><path marker-end="url(#my-svg_flowchart-pointEnd)" style="fill:none;" class="edge-thickness-normal edge-pattern-solid flowchart-link LS-MATRIX_WF LE-PY312" id="L-MATRIX_WF-PY312-0" d="M678.3046875,698L678.3046875,736C678.3046875,774,678.3046875,850,678.3046875,892.1666666666666C678.3046875,934.3333333333334,678.3046875,942.6666666666666,678.3046875,969.9499999999999C678.3046875,997.2333333333332,678.3046875,1043.4666666666667,678.3046875,1066.5833333333333L678.3046875,1089.7"/><path marker-end="url(#my-svg_flowchart-pointEnd)" style="fill:none;" class="edge-thickness-normal edge-pattern-solid flowchart-link LS-MATRIX_WF LE-PY313" id="L-MATRIX_WF-PY313-0" d="M688.719355867347,698L711.9992028061224,736C735.2790497448981,774,781.838743622449,850,805.1185905612246,892.1666666666666C828.3984375,934.3333333333334,828.3984375,942.6666666666666,828.3984375,969.9499999999999C828.3984375,997.2333333333332,828.3984375,1043.4666666666667,828.3984375,1066.5833333333333L828.3984375,1089.7"/><path marker-end="url(#my-svg_flowchart-pointEnd)" style="fill:none;" class="edge-thickness-normal edge-pattern-solid flowchart-link LS-MAKE LE-TOOLS" id="L-MAKE-TOOLS-0" d="M107,386L107,390.1666666666667C107,394.3333333333333,107,402.6666666666667,107,411C107,419.3333333333333,107,427.6666666666667,123.98668365278918,456.3626145117405C140.97336730557836,485.0585623568143,174.94673461115676,534.1171247136288,191.9334182639459,558.6464058920359L208.9201019167351,583.1756870704431"/><path marker-end="url(#my-svg_flowchart-pointEnd)" style="fill:none;" class="edge-thickness-normal edge-pattern-solid flowchart-link LS-UV LE-TOOLS" id="L-UV-TOOLS-0" d="M285.2578125,386L285.2578125,390.1666666666667C285.2578125,394.3333333333333,285.2578125,402.6666666666667,285.2578125,411C285.2578125,419.3333333333333,285.2578125,427.6666666666667,285.1426255144451,435.1172095760612C285.0274385288903,442.5677524854557,284.7970645577805,449.13550497091137,284.6818775722257,452.41938121363927L284.5666905866708,455.7032574563671"/><path marker-end="url(#my-svg_flowchart-pointEnd)" style="fill:none;" class="edge-thickness-normal edge-pattern-solid flowchart-link LS-QUALITY_WF LE-TOOLS" id="L-QUALITY_WF-TOOLS-0" d="M557.2890625,386L544.7727864583334,390.1666666666667C532.2565104166666,394.3333333333333,507.2239583333333,402.6666666666667,494.7076822916667,411C482.19140625,419.3333333333333,482.19140625,427.6666666666667,459.2923206969985,459.13031415409273C436.39323514399695,490.5939616415188,390.59506403799395,545.1879232830375,367.69597848499234,572.484904103797L344.79689293199084,599.7818849245564"/><path marker-end="url(#my-svg_flowchart-pointEnd)" style="fill:none;" class="edge-thickness-normal edge-pattern-solid flowchart-link LS-TOOLS LE-ARTIFACTS" id="L-TOOLS-ARTIFACTS-0" d="M276.6640625,901L276.6640625,905.1666666666666C276.6640625,909.3333333333334,276.6640625,917.6666666666666,276.6640625,926C276.6640625,934.3333333333334,276.6640625,942.6666666666666,276.6640625,950.1166666666667C276.6640625,957.5666666666666,276.6640625,964.1333333333333,276.6640625,967.4166666666666L276.6640625,970.7"/></g><g class="edgeLabels"><g class="edgeLabel"><g transform="translate(0, 0)" class="label"><foreignObject height="0" width="0"><div style="display: inline-block; white-space: nowrap;" xmlns="http://www.w3.org/1999/xhtml"><span class="edgeLabel"></span></div></foreignObject></g></g><g class="edgeLabel"><g transform="translate(0, 0)" class="label"><foreignObject height="0" width="0"><div style="display: inline-block; white-space: nowrap;" xmlns="http://www.w3.org/1999/xhtml"><span class="edgeLabel"></span></div></foreignObject></g></g><g class="edgeLabel"><g transform="translate(0, 0)" class="label"><foreignObject height="0" width="0"><div style="display: inline-block; white-space: nowrap;" xmlns="http://www.w3.org/1999/xhtml"><span class="edgeLabel"></span></div></foreignObject></g></g><g transform="translate(608.35546875, 260)" class="edgeLabel"><g transform="translate(-16.4375, -9.5)" class="label"><foreignObject height="19" width="32.875"><div style="display: inline-block; white-space: nowrap;" xmlns="http://www.w3.org/1999/xhtml"><span class="edgeLabel">push</span></div></foreignObject></g></g><g class="edgeLabel"><g transform="translate(0, 0)" class="label"><foreignObject height="0" width="0"><div style="display: inline-block; white-space: nowrap;" xmlns="http://www.w3.org/1999/xhtml"><span class="edgeLabel"></span></div></foreignObject></g></g><g class="edgeLabel"><g transform="translate(0, 0)" class="label"><foreignObject height="0" width="0"><div style="display: inline-block; white-space: nowrap;" xmlns="http://www.w3.org/1999/xhtml"><span class="edgeLabel"></span></div></foreignObject></g></g><g class="edgeLabel"><g transform="translate(0, 0)" class="label"><foreignObject height="0" width="0"><div style="display: inline-block; white-space: nowrap;" xmlns="http://www.w3.org/1999/xhtml"><span class="edgeLabel"></span></div></foreignObject></g></g><g class="edgeLabel"><g transform="translate(0, 0)" class="label"><foreignObject height="0" width="0"><div style="display: inline-block; white-space: nowrap;" xmlns="http://www.w3.org/1999/xhtml"><span class="edgeLabel"></span></div></foreignObject></g></g><g class="edgeLabel"><g transform="translate(0, 0)" class="label"><foreignObject height="0" width="0"><div style="display: inline-block; white-space: nowrap;" xmlns="http://www.w3.org/1999/xhtml"><span class="edgeLabel"></span></div></foreignObject></g></g><g class="edgeLabel"><g transform="translate(0, 0)" class="label"><foreignObject height="0" width="0"><div style="display: inline-block; white-space: nowrap;" xmlns="http://www.w3.org/1999/xhtml"><span class="edgeLabel"></span></div></foreignObject></g></g><g class="edgeLabel"><g transform="translate(0, 0)" class="label"><foreignObject height="0" width="0"><div style="display: inline-block; white-space: nowrap;" xmlns="http://www.w3.org/1999/xhtml"><span class="edgeLabel"></span></div></foreignObject></g></g><g class="edgeLabel"><g transform="translate(0, 0)" class="label"><foreignObject height="0" width="0"><div style="display: inline-block; white-space: nowrap;" xmlns="http://www.w3.org/1999/xhtml"><span class="edgeLabel"></span></div></foreignObject></g></g></g><g class="nodes"><g transform="translate(157.6640625, 968)" class="root"><g class="clusters"><g id="ARTIFACTS" class="cluster default flowchart-label"><rect height="272" width="223" y="8" x="8" ry="0" rx="0" style="fill:#f3e8ff;stroke:#8b5cf6;"/><g transform="translate(76.71875, 8)" class="cluster-label"><foreignObject height="26" width="85.5625"><div style="display: inline-block; white-space: nowrap;" xmlns="http://www.w3.org/1999/xhtml"><span class="nodeLabel">📊 Artifacts</span></div></foreignObject></g></g></g><g class="edgePaths"/><g class="edgeLabels"/><g class="nodes"><g transform="translate(119.5, 60)" id="flowchart-JUNIT-15" class="node default default flowchart-label"><rect height="34" width="85.828125" y="-17" x="-42.9140625" ry="0" rx="0" style="" class="basic label-container"/><g transform="translate(-35.4140625, -9.5)" style="" class="label"><rect/><foreignObject height="19" width="70.828125"><div style="display: inline-block; white-space: nowrap;" xmlns="http://www.w3.org/1999/xhtml"><span class="nodeLabel">JUnit XML</span></div></foreignObject></g></g><g transform="translate(119.5, 144)" id="flowchart-COV_REPORT-16" class="node default default flowchart-label"><rect height="34" width="133.375" y="-17" x="-66.6875" ry="0" rx="0" style="" class="basic label-container"/><g transform="translate(-59.1875, -9.5)" style="" class="label"><rect/><foreignObject height="19" width="118.375"><div style="display: inline-block; white-space: nowrap;" xmlns="http://www.w3.org/1999/xhtml"><span class="nodeLabel">Coverage Report</span></div></foreignObject></g></g><g transform="translate(119.5, 228)" id="flowchart-DURATIONS-17" class="node default default flowchart-label"><rect height="34" width="173" y="-17" x="-86.5" ry="0" rx="0" style="" class="basic label-container"/><g transform="translate(-79, -9.5)" style="" class="label"><rect/><foreignObject height="19" width="158"><div style="display: inline-block; white-space: nowrap;" xmlns="http://www.w3.org/1999/xhtml"><span class="nodeLabel">quality-durations.json</span></div></foreignObject></g></g></g></g><g transform="translate(608.35546875, 369)" id="flowchart-QUALITY_WF-10" class="node default default flowchart-label"><rect height="34" width="126.109375" y="-17" x="-63.0546875" ry="0" rx="0" style="" class="basic label-container"/><g transform="translate(-55.5546875, -9.5)" style="" class="label"><rect/><foreignObject height="19" width="111.109375"><div style="display: inline-block; white-space: nowrap;" xmlns="http://www.w3.org/1999/xhtml"><span class="nodeLabel">riso-quality.yml</span></div></foreignObject></g></g><g transform="translate(678.3046875, 681)" id="flowchart-MATRIX_WF-11" class="node default default flowchart-label"><rect height="34" width="125.3125" y="-17" x="-62.65625" ry="0" rx="0" style="" class="basic label-container"/><g transform="translate(-55.15625, -9.5)" style="" class="label"><rect/><foreignObject height="19" width="110.3125"><div style="display: inline-block; white-space: nowrap;" xmlns="http://www.w3.org/1999/xhtml"><span class="nodeLabel">riso-matrix.yml</span></div></foreignObject></g></g><g transform="translate(528.2109375, 1112)" id="flowchart-PY311-12" class="node default default flowchart-label"><rect height="34" width="100.09375" y="-17" x="-50.046875" ry="0" rx="0" style="" class="basic label-container"/><g transform="translate(-42.546875, -9.5)" style="" class="label"><rect/><foreignObject height="19" width="85.09375"><div style="display: inline-block; white-space: nowrap;" xmlns="http://www.w3.org/1999/xhtml"><span class="nodeLabel">Python 3.11</span></div></foreignObject></g></g><g transform="translate(678.3046875, 1112)" id="flowchart-PY312-13" class="node default default flowchart-label"><rect height="34" width="100.09375" y="-17" x="-50.046875" ry="0" rx="0" style="" class="basic label-container"/><g transform="translate(-42.546875, -9.5)" style="" class="label"><rect/><foreignObject height="19" width="85.09375"><div style="display: inline-block; white-space: nowrap;" xmlns="http://www.w3.org/1999/xhtml"><span class="nodeLabel">Python 3.12</span></div></foreignObject></g></g><g transform="translate(828.3984375, 1112)" id="flowchart-PY313-14" class="node default default flowchart-label"><rect height="34" width="100.09375" y="-17" x="-50.046875" ry="0" rx="0" style="" class="basic label-container"/><g transform="translate(-42.546875, -9.5)" style="" class="label"><rect/><foreignObject height="19" width="85.09375"><div style="display: inline-block; white-space: nowrap;" xmlns="http://www.w3.org/1999/xhtml"><span class="nodeLabel">Python 3.13</span></div></foreignObject></g></g><g transform="translate(204.4375, 453)" class="root"><g class="clusters"><g id="TOOLS" class="cluster default flowchart-label"><rect height="440" width="129.453125" y="8" x="8" ry="0" rx="0" style="fill:#dbeafe;stroke:#3b82f6;"/><g transform="translate(14.4765625, 8)" class="cluster-label"><foreignObject height="26" width="116.5"><div style="display: inline-block; white-space: nowrap;" xmlns="http://www.w3.org/1999/xhtml"><span class="nodeLabel">🔍 Quality Tools</span></div></foreignObject></g></g></g><g class="edgePaths"/><g class="edgeLabels"/><g class="nodes"><g transform="translate(72.7265625, 60)" id="flowchart-RUFF-5" class="node default default flowchart-label"><rect height="34" width="41.796875" y="-17" x="-20.8984375" ry="0" rx="0" style="" class="basic label-container"/><g transform="translate(-13.3984375, -9.5)" style="" class="label"><rect/><foreignObject height="19" width="26.796875"><div style="display: inline-block; white-space: nowrap;" xmlns="http://www.w3.org/1999/xhtml"><span class="nodeLabel">ruff</span></div></foreignObject></g></g><g transform="translate(72.7265625, 144)" id="flowchart-TY-6" class="node default default flowchart-label"><rect height="34" width="29.234375" y="-17" x="-14.6171875" ry="0" rx="0" style="" class="basic label-container"/><g transform="translate(-7.1171875, -9.5)" style="" class="label"><rect/><foreignObject height="19" width="14.234375"><div style="display: inline-block; white-space: nowrap;" xmlns="http://www.w3.org/1999/xhtml"><span class="nodeLabel">ty</span></div></foreignObject></g></g><g transform="translate(72.7265625, 228)" id="flowchart-PYLINT-7" class="node default default flowchart-label"><rect height="34" width="56.171875" y="-17" x="-28.0859375" ry="0" rx="0" style="" class="basic label-container"/><g transform="translate(-20.5859375, -9.5)" style="" class="label"><rect/><foreignObject height="19" width="41.171875"><div style="display: inline-block; white-space: nowrap;" xmlns="http://www.w3.org/1999/xhtml"><span class="nodeLabel">pylint</span></div></foreignObject></g></g><g transform="translate(72.7265625, 312)" id="flowchart-PYTEST-8" class="node default default flowchart-label"><rect height="34" width="59.703125" y="-17" x="-29.8515625" ry="0" rx="0" style="" class="basic label-container"/><g transform="translate(-22.3515625, -9.5)" style="" class="label"><rect/><foreignObject height="19" width="44.703125"><div style="display: inline-block; white-space: nowrap;" xmlns="http://www.w3.org/1999/xhtml"><span class="nodeLabel">pytest</span></div></foreignObject></g></g><g transform="translate(72.7265625, 396)" id="flowchart-COVERAGE-9" class="node default default flowchart-label"><rect height="34" width="79.453125" y="-17" x="-39.7265625" ry="0" rx="0" style="" class="basic label-container"/><g transform="translate(-32.2265625, -9.5)" style="" class="label"><rect/><foreignObject height="19" width="64.453125"><div style="display: inline-block; white-space: nowrap;" xmlns="http://www.w3.org/1999/xhtml"><span class="nodeLabel">coverage</span></div></foreignObject></g></g></g></g><g transform="translate(107, 260)" id="flowchart-PRECOMMIT2-2" class="node default default flowchart-label"><rect height="34" width="144" y="-17" x="-72" ry="0" rx="0" style="" class="basic label-container"/><g transform="translate(-64.5, -9.5)" style="" class="label"><rect/><foreignObject height="19" width="129"><div style="display: inline-block; white-space: nowrap;" xmlns="http://www.w3.org/1999/xhtml"><span class="nodeLabel">pre-commit hooks</span></div></foreignObject></g></g><g transform="translate(107, 369)" id="flowchart-MAKE-3" class="node default default flowchart-label"><rect height="34" width="107.890625" y="-17" x="-53.9453125" ry="0" rx="0" style="" class="basic label-container"/><g transform="translate(-46.4453125, -9.5)" style="" class="label"><rect/><foreignObject height="19" width="92.890625"><div style="display: inline-block; white-space: nowrap;" xmlns="http://www.w3.org/1999/xhtml"><span class="nodeLabel">make quality</span></div></foreignObject></g></g><g transform="translate(285.2578125, 369)" id="flowchart-UV-4" class="node default default flowchart-label"><rect height="34" width="148.625" y="-17" x="-74.3125" ry="0" rx="0" style="" class="basic label-container"/><g transform="translate(-66.8125, -9.5)" style="" class="label"><rect/><foreignObject height="19" width="133.625"><div style="display: inline-block; white-space: nowrap;" xmlns="http://www.w3.org/1999/xhtml"><span class="nodeLabel">uv run task quality</span></div></foreignObject></g></g><g transform="translate(396.94921875, 42)" id="flowchart-CODE-0" class="node default default flowchart-label"><rect height="34" width="114.3125" y="-17" x="-57.15625" ry="0" rx="0" style="" class="basic label-container"/><g transform="translate(-49.65625, -9.5)" style="" class="label"><rect/><foreignObject height="19" width="99.3125"><div style="display: inline-block; white-space: nowrap;" xmlns="http://www.w3.org/1999/xhtml"><span class="nodeLabel">Code Changes</span></div></foreignObject></g></g><g transform="translate(396.94921875, 126)" id="flowchart-COMMIT-1" class="node default default flowchart-label"><rect height="34" width="92.734375" y="-17" x="-46.3671875" ry="0" rx="0" style="" class="basic label-container"/><g transform="translate(-38.8671875, -9.5)" style="" class="label"><rect/><foreignObject height="19" width="77.734375"><div style="display: inline-block; white-space: nowrap;" xmlns="http://www.w3.org/1999/xhtml"><span class="nodeLabel">git commit</span></div></foreignObject></g></g></g></g></g></svg>