<svg aria-roledescription="flowchart-v2" role="graphics-document document" viewBox="-8 -8 1493.52734375 1018.078125" style="max-width: 1493.53px; background-color: transparent;" xmlns:xlink="http://www.w3.org/1999/xlink" xmlns="http://www.w3.org/2000/svg" width="100%" id="my-svg"><style>#my-svg{font-family:"trebuchet ms",verdana,arial,sans-serif;font-size:16px;fill:#333;}#my-svg .error-icon{fill:#552222;}#my-svg .error-text{fill:#552222;stroke:#552222;}#my-svg .edge-thickness-normal{stroke-width:2px;}#my-svg .edge-thickness-thick{stroke-width:3.5px;}#my-svg .edge-pattern-solid{stroke-dasharray:0;}#my-svg .edge-pattern-dashed{stroke-dasharray:3;}#my-svg .edge-pattern-dotted{stroke-dasharray:2;}#my-svg .marker{fill:#333333;stroke:#333333;}#my-svg .marker.cross{stroke:#333333;}#my-svg svg{font-family:"trebuchet ms",verdana,arial,sans-serif;font-size:16px;}#my-svg .label{font-family:"trebuchet ms",verdana,arial,sans-serif;color:#333;}#my-svg .cluster-label text{fill:#333;}#my-svg .cluster-label span,#my-svg p{color:#333;}#my-svg .label text,#my-svg span,#my-svg p{fill:#333;color:#333;}#my-svg .node rect,#my-svg .node circle,#my-svg .node ellipse,#my-svg .node polygon,#my-svg .node path{fill:#ECECFF;stroke:#9370DB;stroke-width:1px;}#my-svg .flowchart-label text{text-anchor:middle;}#my-svg .node .label{text-align:center;}#my-svg .node.clickable{cursor:pointer;}#my-svg .arrowheadPath{fill:#333333;}#my-svg .edgePath .path{stroke:#333333;stroke-width:2.0px;}#my-svg .flowchart-link{stroke:#333333;fill:none;}#my-svg .edgeLabel{background-color:#e8e8e8;text-align:center;}#my-svg .edgeLabel rect{opacity:0.5;background-color:#e8e8e8;fill:#e8e8e8;}#my-svg .labelBkg{background-color:rgba(232, 232, 232, 0.5);}#my-svg .cluster rect{fill:#ffffde;stroke:#aaaa33;stroke-width:1px;}#my-svg .cluster text{fill:#333;}#my-svg .cluster span,#my-svg p{color:#333;}#my-svg div.mermaidTooltip{position:absolute;text-align:center;max-width:200px;padding:2px;font-family:"trebuchet ms",verdana,arial,sans-serif;font-size:12px;background:hsl(80, 100%, 96.2745098039%);border:1px solid #aaaa33;border-radius:2px;pointer-events:none;z-index:100;}#my-svg .flowchartTitleText{text-anchor:middle;font-size:18px;fill:#333;}#my-svg :root{--mermaid-font-family:"trebuchet ms",verdana,arial,sans-serif;}</style><g><marker orient="auto" markerHeight="12" markerWidth="12" markerUnits="userSpaceOnUse" refY="5" refX="6" viewBox="0 0 10 10" class="marker flowchart" id="my-svg_flowchart-pointEnd"><path style="stroke-width: 1; stroke-dasharray: 1, 0;" class="arrowMarkerPath" d="M 0 0 L 10 5 L 0 10 z"/></marker><marker orient="auto" markerHeight="12" markerWidth="12" markerUnits="userSpaceOnUse" refY="5" refX="4.5" viewBox="0 0 10 10" class="marker flowchart" id="my-svg_flowchart-pointStart"><path style="stroke-width: 1; stroke-dasharray: 1, 0;" class="arrowMarkerPath" d="M 0 5 L 10 10 L 10 0 z"/></marker><marker orient="auto" markerHeight="11" markerWidth="11" markerUnits="userSpaceOnUse" refY="5" refX="11" viewBox="0 0 10 10" class="marker flowchart" id="my-svg_flowchart-circleEnd"><circle style="stroke-width: 1; stroke-dasharray: 1, 0;" class="arrowMarkerPath" r="5" cy="5" cx="5"/></marker><marker orient="auto" markerHeight="11" markerWidth="11" markerUnits="userSpaceOnUse" refY="5" refX="-1" viewBox="0 0 10 10" class="marker flowchart" id="my-svg_flowchart-circleStart"><circle style="stroke-width: 1; stroke-dasharray: 1, 0;" class="arrowMarkerPath" r="5" cy="5" cx="5"/></marker><marker orient="auto" markerHeight="11" markerWidth="11" markerUnits="userSpaceOnUse" refY="5.2" refX="12" viewBox="0 0 11 11" class="marker cross flowchart" id="my-svg_flowchart-crossEnd"><path style="stroke-width: 2; stroke-dasharray: 1, 0;" class="arrowMarkerPath" d="M 1,1 l 9,9 M 10,1 l -9,9"/></marker><marker orient="auto" markerHeight="11" markerWidth="11" markerUnits="userSpaceOnUse" refY="5.2" refX="-1" viewBox="0 0 11 11" class="marker cross flowchart" id="my-svg_flowchart-crossStart"><path style="stroke-width: 2; stroke-dasharray: 1, 0;" class="arrowMarkerPath" d="M 1,1 l 9,9 M 10,1 l -9,9"/></marker><g class="root"><g class="clusters"/><g class="edgePaths"><path marker-end="url(#my-svg_flowchart-pointEnd)" style="fill:none;" class="edge-thickness-normal edge-pattern-solid flowchart-link LS-A LE-B" id="L-A-B-0" d="M509.203125,34L509.203125,38.166666666666664C509.203125,42.333333333333336,509.203125,50.666666666666664,509.203125,58.11666666666667C509.203125,65.56666666666666,509.203125,72.13333333333334,509.203125,75.41666666666667L509.203125,78.7"/><path marker-end="url(#my-svg_flowchart-pointEnd)" style="fill:none;" class="edge-thickness-normal edge-pattern-solid flowchart-link LS-B LE-C" id="L-B-C-0" d="M509.203125,118L509.203125,122.16666666666667C509.203125,126.33333333333333,509.203125,134.66666666666666,509.26914140047455,142.20016975753654C509.33515780094916,149.73367284840646,509.46719060189827,156.4673456968129,509.5332070023728,159.83418212101614L509.59922340284743,163.20101854521937"/><path marker-end="url(#my-svg_flowchart-pointEnd)" style="fill:none;" class="edge-thickness-normal edge-pattern-solid flowchart-link LS-C LE-D" id="L-C-D-0" d="M454.51834241052484,257.47146741052484L410.77895721710405,270.7522645087707C367.0395720236832,284.0330616070166,279.56080163684163,310.59465580350826,235.82141644342082,327.15878623508746C192.08203125,343.72291666666666,192.08203125,350.2895833333334,192.08203125,353.5729166666667L192.08203125,356.85625"/><path marker-end="url(#my-svg_flowchart-pointEnd)" style="fill:none;" class="edge-thickness-normal edge-pattern-solid flowchart-link LS-C LE-E" id="L-C-E-0" d="M471.8850279716936,274.8381529716936L460.244684768078,285.2245024764113C448.6043415644624,295.6108519811291,425.32365515723114,316.3835509905645,413.6833119536156,330.0532338286156C402.04296875,343.72291666666666,402.04296875,350.2895833333334,402.04296875,353.5729166666667L402.04296875,356.85625"/><path marker-end="url(#my-svg_flowchart-pointEnd)" style="fill:none;" class="edge-thickness-normal edge-pattern-solid flowchart-link LS-C LE-F" id="L-C-F-0" d="M564.5435933846243,257.8157816153757L606.7947913621869,271.0391930128131C649.0459893397496,284.2626044102505,733.5483852948747,310.7094272051252,775.7995832724373,327.21617193589594C818.05078125,343.72291666666666,818.05078125,350.2895833333334,818.05078125,353.5729166666667L818.05078125,356.85625"/><path marker-end="url(#my-svg_flowchart-pointEnd)" style="fill:none;" class="edge-thickness-normal edge-pattern-solid flowchart-link LS-D LE-G" id="L-D-G-0" d="M192.08203125,396.15625L192.08203125,400.3229166666667C192.08203125,404.4895833333333,192.08203125,412.8229166666667,192.61826259210204,421.4713339207411C193.15449393420408,430.1197511748156,194.22695661840814,439.0832523496312,194.76318796051018,443.56500293703897L195.2994193026122,448.04675352444673"/><path marker-end="url(#my-svg_flowchart-pointEnd)" style="fill:none;" class="edge-thickness-normal edge-pattern-solid flowchart-link LS-F LE-G" id="L-F-G-0" d="M747.23046875,384.77920081967216L670.8697916666666,390.8420423497268C594.5091145833334,396.90488387978144,441.7877604166667,409.03056693989066,357.1604817166178,424.2432506627261C272.533203016569,439.45593438556153,255.99999978313804,457.7556187711232,247.73339816642257,466.905460963904L239.46679654970708,476.0553031566848"/><path marker-end="url(#my-svg_flowchart-pointEnd)" style="fill:none;" class="edge-thickness-normal edge-pattern-solid flowchart-link LS-G LE-H" id="L-G-H-0" d="M166.7036145859842,549.9184583359843L154.12931423832018,561.5648611133203C141.55501389065614,573.2112638906561,116.40641319532807,596.5040694453281,103.83211284766405,623.5822430559974C91.2578125,650.6604166666667,91.2578125,681.5239583333333,91.2578125,696.9557291666666L91.2578125,712.3875"/><path marker-end="url(#my-svg_flowchart-pointEnd)" style="fill:none;" class="edge-thickness-normal edge-pattern-solid flowchart-link LS-G LE-I" id="L-G-I-0" d="M238.4604479140158,549.9184583359843L250.86808159501314,561.5648611133203C263.27571527601054,573.2112638906561,288.09098263800524,596.5040694453281,300.5693318921778,613.1005623449245C313.04768114635027,629.6970552445208,313.1891122927006,639.5972354890417,313.2598278658757,644.5473256113022L313.33054343905087,649.4974157335625"/><path marker-end="url(#my-svg_flowchart-pointEnd)" style="fill:none;" class="edge-thickness-normal edge-pattern-solid flowchart-link LS-I LE-J" id="L-I-J-0" d="M349.6362335876508,779.3481414123492L359.22420507304236,791.0531386769576C368.8121765584339,802.7581359415661,387.98811952921693,826.168130470783,397.5760910146085,842.7397944020581C407.1640625,859.3114583333332,407.1640625,869.0447916666667,407.1640625,873.9114583333334L407.1640625,878.778125"/><path marker-end="url(#my-svg_flowchart-pointEnd)" style="fill:none;" class="edge-thickness-normal edge-pattern-solid flowchart-link LS-I LE-K" id="L-I-K-0" d="M277.1762664123492,779.3481414123492L267.421628260291,791.0531386769576C257.6669901082328,802.7581359415661,238.15771380411638,826.168130470783,228.4030756520582,846.4564610687248C218.6484375,866.7447916666666,218.6484375,883.9114583333334,218.6484375,899.4947916666666C218.6484375,915.078125,218.6484375,929.078125,227.19255309114556,939.885266766929C235.73666868229114,950.6924085338582,252.8248998645823,958.3066920677161,261.36901545572783,962.1138338346451L269.91313104687345,965.9209756015741"/><path marker-end="url(#my-svg_flowchart-pointEnd)" style="fill:none;" class="edge-thickness-normal edge-pattern-solid flowchart-link LS-J LE-K" id="L-J-K-0" d="M407.1640625,918.078125L407.1640625,922.2447916666666C407.1640625,926.4114583333334,407.1640625,934.7447916666666,398.61994690885444,942.7186001002624C390.0758313177089,950.6924085338582,372.9876001354177,958.3066920677161,364.44348454427217,962.1138338346451L355.89936895312655,965.9209756015741"/><path marker-end="url(#my-svg_flowchart-pointEnd)" style="fill:none;" class="edge-thickness-normal edge-pattern-solid flowchart-link LS-F LE-L" id="L-F-L-0" d="M747.23046875,386.2047171208531L688.7005208333334,392.0299726007109C630.1705729166666,397.8552280805687,513.1106770833334,409.50573904028437,454.5807291666667,427.3760466034755C396.05078125,445.24635416666666,396.05078125,469.3364583333334,396.05078125,481.3815104166667L396.05078125,493.4265625"/><path marker-end="url(#my-svg_flowchart-pointEnd)" style="fill:none;" class="edge-thickness-normal edge-pattern-solid flowchart-link LS-F LE-M" id="L-F-M-0" d="M747.23046875,392.6343723449448L722.2526041666666,397.3880186207873C697.2747395833334,402.14166489662983,647.3190104166666,411.6489574483149,622.3411458333334,428.4476558074908C597.36328125,445.24635416666666,597.36328125,469.3364583333334,597.36328125,481.3815104166667L597.36328125,493.4265625"/><path marker-end="url(#my-svg_flowchart-pointEnd)" style="fill:none;" class="edge-thickness-normal edge-pattern-solid flowchart-link LS-F LE-N" id="L-F-N-0" d="M818.05078125,396.15625L818.05078125,400.3229166666667C818.05078125,404.4895833333333,818.05078125,412.8229166666667,818.05078125,429.0346354166666C818.05078125,445.24635416666666,818.05078125,469.3364583333334,818.05078125,481.3815104166667L818.05078125,493.4265625"/><path marker-end="url(#my-svg_flowchart-pointEnd)" style="fill:none;" class="edge-thickness-normal edge-pattern-solid flowchart-link LS-F LE-O" id="L-F-O-0" d="M888.87109375,392.71887467939587L913.6197916666666,397.4584372328299C938.3684895833334,402.1979997862639,987.8658854166666,411.677124893132,1012.6145833333334,428.46173952989926C1037.36328125,445.24635416666666,1037.36328125,469.3364583333334,1037.36328125,481.3815104166667L1037.36328125,493.4265625"/><path marker-end="url(#my-svg_flowchart-pointEnd)" style="fill:none;" class="edge-thickness-normal edge-pattern-solid flowchart-link LS-F LE-P" id="L-F-P-0" d="M888.87109375,386.22972886669766L947.15234375,392.05081572224805C1005.43359375,397.87190257779844,1121.99609375,409.5140762888993,1180.27734375,427.3802152277829C1238.55859375,445.24635416666666,1238.55859375,469.3364583333334,1238.55859375,481.3815104166667L1238.55859375,493.4265625"/><path marker-end="url(#my-svg_flowchart-pointEnd)" style="fill:none;" class="edge-thickness-normal edge-pattern-solid flowchart-link LS-F LE-Q" id="L-F-Q-0" d="M888.87109375,384.09047843146146L977.5377604166666,390.2681070262179C1066.2044270833333,396.4457356209743,1243.5377604166667,408.8009928104871,1332.2044270833333,427.0236734885769C1420.87109375,445.24635416666666,1420.87109375,469.3364583333334,1420.87109375,481.3815104166667L1420.87109375,493.4265625"/></g><g class="edgeLabels"><g class="edgeLabel"><g transform="translate(0, 0)" class="label"><foreignObject height="0" width="0"><div style="display: inline-block; white-space: nowrap;" xmlns="http://www.w3.org/1999/xhtml"><span class="edgeLabel"></span></div></foreignObject></g></g><g class="edgeLabel"><g transform="translate(0, 0)" class="label"><foreignObject height="0" width="0"><div style="display: inline-block; white-space: nowrap;" xmlns="http://www.w3.org/1999/xhtml"><span class="edgeLabel"></span></div></foreignObject></g></g><g class="edgeLabel"><g transform="translate(0, 0)" class="label"><foreignObject height="0" width="0"><div style="display: inline-block; white-space: nowrap;" xmlns="http://www.w3.org/1999/xhtml"><span class="edgeLabel"></span></div></foreignObject></g></g><g class="edgeLabel"><g transform="translate(0, 0)" class="label"><foreignObject height="0" width="0"><div style="display: inline-block; white-space: nowrap;" xmlns="http://www.w3.org/1999/xhtml"><span class="edgeLabel"></span></div></foreignObject></g></g><g class="edgeLabel"><g transform="translate(0, 0)" class="label"><foreignObject height="0" width="0"><div style="display: inline-block; white-space: nowrap;" xmlns="http://www.w3.org/1999/xhtml"><span class="edgeLabel"></span></div></foreignObject></g></g><g class="edgeLabel"><g transform="translate(0, 0)" class="label"><foreignObject height="0" width="0"><div style="display: inline-block; white-space: nowrap;" xmlns="http://www.w3.org/1999/xhtml"><span class="edgeLabel"></span></div></foreignObject></g></g><g class="edgeLabel"><g transform="translate(0, 0)" class="label"><foreignObject height="0" width="0"><div style="display: inline-block; white-space: nowrap;" xmlns="http://www.w3.org/1999/xhtml"><span class="edgeLabel"></span></div></foreignObject></g></g><g transform="translate(91.2578125, 619.796875)" class="edgeLabel"><g transform="translate(-36.234375, -9.5)" class="label"><foreignObject height="19" width="72.46875"><div style="display: inline-block; white-space: nowrap;" xmlns="http://www.w3.org/1999/xhtml"><span class="edgeLabel">Has Errors</span></div></foreignObject></g></g><g transform="translate(312.90625, 619.796875)" class="edgeLabel"><g transform="translate(-32.953125, -9.5)" class="label"><foreignObject height="19" width="65.90625"><div style="display: inline-block; white-space: nowrap;" xmlns="http://www.w3.org/1999/xhtml"><span class="edgeLabel">No Errors</span></div></foreignObject></g></g><g transform="translate(407.1640625, 849.578125)" class="edgeLabel"><g transform="translate(-47.046875, -9.5)" class="label"><foreignObject height="19" width="94.09375"><div style="display: inline-block; white-space: nowrap;" xmlns="http://www.w3.org/1999/xhtml"><span class="edgeLabel">Has Warnings</span></div></foreignObject></g></g><g transform="translate(218.6484375, 901.078125)" class="edgeLabel"><g transform="translate(-43.7734375, -9.5)" class="label"><foreignObject height="19" width="87.546875"><div style="display: inline-block; white-space: nowrap;" xmlns="http://www.w3.org/1999/xhtml"><span class="edgeLabel">No Warnings</span></div></foreignObject></g></g><g class="edgeLabel"><g transform="translate(0, 0)" class="label"><foreignObject height="0" width="0"><div style="display: inline-block; white-space: nowrap;" xmlns="http://www.w3.org/1999/xhtml"><span class="edgeLabel"></span></div></foreignObject></g></g><g class="edgeLabel"><g transform="translate(0, 0)" class="label"><foreignObject height="0" width="0"><div style="display: inline-block; white-space: nowrap;" xmlns="http://www.w3.org/1999/xhtml"><span class="edgeLabel"></span></div></foreignObject></g></g><g class="edgeLabel"><g transform="translate(0, 0)" class="label"><foreignObject height="0" width="0"><div style="display: inline-block; white-space: nowrap;" xmlns="http://www.w3.org/1999/xhtml"><span class="edgeLabel"></span></div></foreignObject></g></g><g class="edgeLabel"><g transform="translate(0, 0)" class="label"><foreignObject height="0" width="0"><div style="display: inline-block; white-space: nowrap;" xmlns="http://www.w3.org/1999/xhtml"><span class="edgeLabel"></span></div></foreignObject></g></g><g class="edgeLabel"><g transform="translate(0, 0)" class="label"><foreignObject height="0" width="0"><div style="display: inline-block; white-space: nowrap;" xmlns="http://www.w3.org/1999/xhtml"><span class="edgeLabel"></span></div></foreignObject></g></g><g class="edgeLabel"><g transform="translate(0, 0)" class="label"><foreignObject height="0" width="0"><div style="display: inline-block; white-space: nowrap;" xmlns="http://www.w3.org/1999/xhtml"><span class="edgeLabel"></span></div></foreignObject></g></g><g class="edgeLabel"><g transform="translate(0, 0)" class="label"><foreignObject height="0" width="0"><div style="display: inline-block; white-space: nowrap;" xmlns="http://www.w3.org/1999/xhtml"><span class="edgeLabel"></span></div></foreignObject></g></g></g><g class="nodes"><g transform="translate(509.203125, 17)" id="flowchart-A-0" class="node default default flowchart-label"><rect height="34" width="108.71875" y="-17" x="-54.359375" ry="0" rx="0" style="" class="basic label-container"/><g transform="translate(-46.859375, -9.5)" style="" class="label"><rect/><foreignObject height="19" width="93.71875"><div style="display: inline-block; white-space: nowrap;" xmlns="http://www.w3.org/1999/xhtml"><span class="nodeLabel">User Answers</span></div></foreignObject></g></g><g transform="translate(509.203125, 101)" id="flowchart-B-1" class="node default default flowchart-label"><rect height="34" width="156.40625" y="-17" x="-78.203125" ry="0" rx="0" style="" class="basic label-container"/><g transform="translate(-70.703125, -9.5)" style="" class="label"><rect/><foreignObject height="19" width="141.40625"><div style="display: inline-block; white-space: nowrap;" xmlns="http://www.w3.org/1999/xhtml"><span class="nodeLabel">pre_gen_project.py</span></div></foreignObject></g></g><g transform="translate(509.203125, 240.078125)" id="flowchart-C-3" class="node default default flowchart-label"><polygon style="" transform="translate(-72.078125,72.078125)" class="label-container" points="72.078125,0 144.15625,-72.078125 72.078125,-144.15625 0,-72.078125"/><g transform="translate(-47.578125, -9.5)" style="" class="label"><rect/><foreignObject height="19" width="95.15625"><div style="display: inline-block; white-space: nowrap;" xmlns="http://www.w3.org/1999/xhtml"><span class="nodeLabel">Load Context</span></div></foreignObject></g></g><g transform="translate(192.08203125, 379.15625)" id="flowchart-D-5" class="node default default flowchart-label"><rect height="34" width="178.1875" y="-17" x="-89.09375" ry="0" rx="0" style="" class="basic label-container"/><g transform="translate(-81.59375, -9.5)" style="" class="label"><rect/><foreignObject height="19" width="163.1875"><div style="display: inline-block; white-space: nowrap;" xmlns="http://www.w3.org/1999/xhtml"><span class="nodeLabel">SaaS Starter Validation</span></div></foreignObject></g></g><g transform="translate(402.04296875, 379.15625)" id="flowchart-E-7" class="node default default flowchart-label"><rect height="34" width="141.734375" y="-17" x="-70.8671875" ry="0" rx="0" style="" class="basic label-container"/><g transform="translate(-63.3671875, -9.5)" style="" class="label"><rect/><foreignObject height="19" width="126.734375"><div style="display: inline-block; white-space: nowrap;" xmlns="http://www.w3.org/1999/xhtml"><span class="nodeLabel">Tooling Validation</span></div></foreignObject></g></g><g transform="translate(818.05078125, 379.15625)" id="flowchart-F-9" class="node default default flowchart-label"><rect height="34" width="141.640625" y="-17" x="-70.8203125" ry="0" rx="0" style="" class="basic label-container"/><g transform="translate(-63.3203125, -9.5)" style="" class="label"><rect/><foreignObject height="19" width="126.640625"><div style="display: inline-block; white-space: nowrap;" xmlns="http://www.w3.org/1999/xhtml"><span class="nodeLabel">Module Validators</span></div></foreignObject></g></g><g transform="translate(202.08203125, 515.7265625)" id="flowchart-G-11" class="node default default flowchart-label"><polygon style="" transform="translate(-69.5703125,69.5703125)" class="label-container" points="69.5703125,0 139.140625,-69.5703125 69.5703125,-139.140625 0,-69.5703125"/><g transform="translate(-45.0703125, -9.5)" style="" class="label"><rect/><foreignObject height="19" width="90.140625"><div style="display: inline-block; white-space: nowrap;" xmlns="http://www.w3.org/1999/xhtml"><span class="nodeLabel">Check Errors</span></div></foreignObject></g></g><g transform="translate(91.2578125, 734.6875)" id="flowchart-H-15" class="node default default flowchart-label"><rect height="34" width="182.515625" y="-17" x="-91.2578125" ry="0" rx="0" style="" class="basic label-container"/><g transform="translate(-83.7578125, -9.5)" style="" class="label"><rect/><foreignObject height="19" width="167.515625"><div style="display: inline-block; white-space: nowrap;" xmlns="http://www.w3.org/1999/xhtml"><span class="nodeLabel">Exit with Error Message</span></div></foreignObject></g></g><g transform="translate(312.90625, 734.6875)" id="flowchart-I-17" class="node default default flowchart-label"><polygon style="" transform="translate(-80.390625,80.390625)" class="label-container" points="80.390625,0 160.78125,-80.390625 80.390625,-160.78125 0,-80.390625"/><g transform="translate(-55.890625, -9.5)" style="" class="label"><rect/><foreignObject height="19" width="111.78125"><div style="display: inline-block; white-space: nowrap;" xmlns="http://www.w3.org/1999/xhtml"><span class="nodeLabel">Check Warnings</span></div></foreignObject></g></g><g transform="translate(407.1640625, 901.078125)" id="flowchart-J-19" class="node default default flowchart-label"><rect height="34" width="219.484375" y="-17" x="-109.7421875" ry="0" rx="0" style="" class="basic label-container"/><g transform="translate(-102.2421875, -9.5)" style="" class="label"><rect/><foreignObject height="19" width="204.484375"><div style="display: inline-block; white-space: nowrap;" xmlns="http://www.w3.org/1999/xhtml"><span class="nodeLabel">Display Warnings &amp; Continue</span></div></foreignObject></g></g><g transform="translate(312.90625, 985.078125)" id="flowchart-K-21" class="node default default flowchart-label"><rect height="34" width="163.71875" y="-17" x="-81.859375" ry="0" rx="0" style="" class="basic label-container"/><g transform="translate(-74.359375, -9.5)" style="" class="label"><rect/><foreignObject height="19" width="148.71875"><div style="display: inline-block; white-space: nowrap;" xmlns="http://www.w3.org/1999/xhtml"><span class="nodeLabel">Continue Generation</span></div></foreignObject></g></g><g transform="translate(396.05078125, 515.7265625)" id="flowchart-L-25" class="node default default flowchart-label"><rect height="34" width="148.796875" y="-17" x="-74.3984375" ry="0" rx="0" style="" class="basic label-container"/><g transform="translate(-66.8984375, -9.5)" style="" class="label"><rect/><foreignObject height="19" width="133.796875"><div style="display: inline-block; white-space: nowrap;" xmlns="http://www.w3.org/1999/xhtml"><span class="nodeLabel">Frontend Validator</span></div></foreignObject></g></g><g transform="translate(597.36328125, 515.7265625)" id="flowchart-M-27" class="node default default flowchart-label"><rect height="34" width="153.828125" y="-17" x="-76.9140625" ry="0" rx="0" style="" class="basic label-container"/><g transform="translate(-69.4140625, -9.5)" style="" class="label"><rect/><foreignObject height="19" width="138.828125"><div style="display: inline-block; white-space: nowrap;" xmlns="http://www.w3.org/1999/xhtml"><span class="nodeLabel">Build Tool Validator</span></div></foreignObject></g></g><g transform="translate(818.05078125, 515.7265625)" id="flowchart-N-29" class="node default default flowchart-label"><rect height="34" width="187.546875" y="-17" x="-93.7734375" ry="0" rx="0" style="" class="basic label-container"/><g transform="translate(-86.2734375, -9.5)" style="" class="label"><rect/><foreignObject height="19" width="172.546875"><div style="display: inline-block; white-space: nowrap;" xmlns="http://www.w3.org/1999/xhtml"><span class="nodeLabel">Monorepo Tool Validator</span></div></foreignObject></g></g><g transform="translate(1037.36328125, 515.7265625)" id="flowchart-O-31" class="node default default flowchart-label"><rect height="34" width="151.078125" y="-17" x="-75.5390625" ry="0" rx="0" style="" class="basic label-container"/><g transform="translate(-68.0390625, -9.5)" style="" class="label"><rect/><foreignObject height="19" width="136.078125"><div style="display: inline-block; white-space: nowrap;" xmlns="http://www.w3.org/1999/xhtml"><span class="nodeLabel">Structure Validator</span></div></foreignObject></g></g><g transform="translate(1238.55859375, 515.7265625)" id="flowchart-P-33" class="node default default flowchart-label"><rect height="34" width="151.3125" y="-17" x="-75.65625" ry="0" rx="0" style="" class="basic label-container"/><g transform="translate(-68.15625, -9.5)" style="" class="label"><rect/><foreignObject height="19" width="136.3125"><div style="display: inline-block; white-space: nowrap;" xmlns="http://www.w3.org/1999/xhtml"><span class="nodeLabel">Language Validator</span></div></foreignObject></g></g><g transform="translate(1420.87109375, 515.7265625)" id="flowchart-Q-35" class="node default default flowchart-label"><rect height="34" width="113.3125" y="-17" x="-56.65625" ry="0" rx="0" style="" class="basic label-container"/><g transform="translate(-49.15625, -9.5)" style="" class="label"><rect/><foreignObject height="19" width="98.3125"><div style="display: inline-block; white-space: nowrap;" xmlns="http://www.w3.org/1999/xhtml"><span class="nodeLabel">Tool Validator</span></div></foreignObject></g></g></g></g></g></svg>