<svg aria-roledescription="flowchart-v2" role="graphics-document document" viewBox="-8 -8 1021.9375 1124" style="max-width: 1021.94px; background-color: transparent;" xmlns:xlink="http://www.w3.org/1999/xlink" xmlns="http://www.w3.org/2000/svg" width="100%" id="my-svg"><style>#my-svg{font-family:"trebuchet ms",verdana,arial,sans-serif;font-size:16px;fill:#333;}#my-svg .error-icon{fill:#552222;}#my-svg .error-text{fill:#552222;stroke:#552222;}#my-svg .edge-thickness-normal{stroke-width:2px;}#my-svg .edge-thickness-thick{stroke-width:3.5px;}#my-svg .edge-pattern-solid{stroke-dasharray:0;}#my-svg .edge-pattern-dashed{stroke-dasharray:3;}#my-svg .edge-pattern-dotted{stroke-dasharray:2;}#my-svg .marker{fill:#333333;stroke:#333333;}#my-svg .marker.cross{stroke:#333333;}#my-svg svg{font-family:"trebuchet ms",verdana,arial,sans-serif;font-size:16px;}#my-svg .label{font-family:"trebuchet ms",verdana,arial,sans-serif;color:#333;}#my-svg .cluster-label text{fill:#333;}#my-svg .cluster-label span,#my-svg p{color:#333;}#my-svg .label text,#my-svg span,#my-svg p{fill:#333;color:#333;}#my-svg .node rect,#my-svg .node circle,#my-svg .node ellipse,#my-svg .node polygon,#my-svg .node path{fill:#ECECFF;stroke:#9370DB;stroke-width:1px;}#my-svg .flowchart-label text{text-anchor:middle;}#my-svg .node .label{text-align:center;}#my-svg .node.clickable{cursor:pointer;}#my-svg .arrowheadPath{fill:#333333;}#my-svg .edgePath .path{stroke:#333333;stroke-width:2.0px;}#my-svg .flowchart-link{stroke:#333333;fill:none;}#my-svg .edgeLabel{background-color:#e8e8e8;text-align:center;}#my-svg .edgeLabel rect{opacity:0.5;background-color:#e8e8e8;fill:#e8e8e8;}#my-svg .labelBkg{background-color:rgba(232, 232, 232, 0.5);}#my-svg .cluster rect{fill:#ffffde;stroke:#aaaa33;stroke-width:1px;}#my-svg .cluster text{fill:#333;}#my-svg .cluster span,#my-svg p{color:#333;}#my-svg div.mermaidTooltip{position:absolute;text-align:center;max-width:200px;padding:2px;font-family:"trebuchet ms",verdana,arial,sans-serif;font-size:12px;background:hsl(80, 100%, 96.2745098039%);border:1px solid #aaaa33;border-radius:2px;pointer-events:none;z-index:100;}#my-svg .flowchartTitleText{text-anchor:middle;font-size:18px;fill:#333;}#my-svg :root{--mermaid-font-family:"trebuchet ms",verdana,arial,sans-serif;}</style><g><marker orient="auto" markerHeight="12" markerWidth="12" markerUnits="userSpaceOnUse" refY="5" refX="6" viewBox="0 0 10 10" class="marker flowchart" id="my-svg_flowchart-pointEnd"><path style="stroke-width: 1; stroke-dasharray: 1, 0;" class="arrowMarkerPath" d="M 0 0 L 10 5 L 0 10 z"/></marker><marker orient="auto" markerHeight="12" markerWidth="12" markerUnits="userSpaceOnUse" refY="5" refX="4.5" viewBox="0 0 10 10" class="marker flowchart" id="my-svg_flowchart-pointStart"><path style="stroke-width: 1; stroke-dasharray: 1, 0;" class="arrowMarkerPath" d="M 0 5 L 10 10 L 10 0 z"/></marker><marker orient="auto" markerHeight="11" markerWidth="11" markerUnits="userSpaceOnUse" refY="5" refX="11" viewBox="0 0 10 10" class="marker flowchart" id="my-svg_flowchart-circleEnd"><circle style="stroke-width: 1; stroke-dasharray: 1, 0;" class="arrowMarkerPath" r="5" cy="5" cx="5"/></marker><marker orient="auto" markerHeight="11" markerWidth="11" markerUnits="userSpaceOnUse" refY="5" refX="-1" viewBox="0 0 10 10" class="marker flowchart" id="my-svg_flowchart-circleStart"><circle style="stroke-width: 1; stroke-dasharray: 1, 0;" class="arrowMarkerPath" r="5" cy="5" cx="5"/></marker><marker orient="auto" markerHeight="11" markerWidth="11" markerUnits="userSpaceOnUse" refY="5.2" refX="12" viewBox="0 0 11 11" class="marker cross flowchart" id="my-svg_flowchart-crossEnd"><path style="stroke-width: 2; stroke-dasharray: 1, 0;" class="arrowMarkerPath" d="M 1,1 l 9,9 M 10,1 l -9,9"/></marker><marker orient="auto" markerHeight="11" markerWidth="11" markerUnits="userSpaceOnUse" refY="5.2" refX="-1" viewBox="0 0 11 11" class="marker cross flowchart" id="my-svg_flowchart-crossStart"><path style="stroke-width: 2; stroke-dasharray: 1, 0;" class="arrowMarkerPath" d="M 1,1 l 9,9 M 10,1 l -9,9"/></marker><g class="root"><g class="clusters"><g id="MONOREPO" class="cluster default flowchart-label"><rect height="601.5" width="144.578125" y="10" x="0" ry="0" rx="0" style="fill:#fef3c7;stroke:#f59e0b;"/><g transform="translate(17.3359375, 10)" class="cluster-label"><foreignObject height="19" width="109.90625"><div style="display: inline-block; white-space: nowrap;" xmlns="http://www.w3.org/1999/xhtml"><span class="nodeLabel">Monorepo Tools</span></div></foreignObject></g></g><g id="FRONTENDS" class="cluster default flowchart-label"><rect height="1095" width="404.5" y="0" x="601.4375" ry="0" rx="0" style="fill:#dbeafe;stroke:#3b82f6;"/><g transform="translate(725.796875, 0)" class="cluster-label"><foreignObject height="19" width="155.78125"><div style="display: inline-block; white-space: nowrap;" xmlns="http://www.w3.org/1999/xhtml"><span class="nodeLabel">Frontend Frameworks</span></div></foreignObject></g></g><g id="BACKENDS" class="cluster default flowchart-label"><rect height="1016" width="194.578125" y="92" x="285.96875" ry="0" rx="0" style="fill:#ccfbf1;stroke:#14b8a6;"/><g transform="translate(307.78125, 92)" class="cluster-label"><foreignObject height="19" width="150.953125"><div style="display: inline-block; white-space: nowrap;" xmlns="http://www.w3.org/1999/xhtml"><span class="nodeLabel">Backend Frameworks</span></div></foreignObject></g></g><g id="REACT_ECO" class="cluster default flowchart-label"><rect height="579" width="354.5" y="20" x="626.4375" ry="0" rx="0" style=""/><g transform="translate(744.109375, 20)" class="cluster-label"><foreignObject height="19" width="119.15625"><div style="display: inline-block; white-space: nowrap;" xmlns="http://www.w3.org/1999/xhtml"><span class="nodeLabel">React Ecosystem</span></div></foreignObject></g></g><g id="VUE_ECO" class="cluster default flowchart-label"><rect height="188" width="354.5" y="887" x="626.4375" ry="0" rx="0" style=""/><g transform="translate(751.2265625, 887)" class="cluster-label"><foreignObject height="19" width="104.921875"><div style="display: inline-block; white-space: nowrap;" xmlns="http://www.w3.org/1999/xhtml"><span class="nodeLabel">Vue Ecosystem</span></div></foreignObject></g></g><g id="PY_BACK" class="cluster default flowchart-label"><rect height="298" width="144.578125" y="514" x="310.96875" ry="0" rx="0" style=""/><g transform="translate(358.640625, 514)" class="cluster-label"><foreignObject height="19" width="49.234375"><div style="display: inline-block; white-space: nowrap;" xmlns="http://www.w3.org/1999/xhtml"><span class="nodeLabel">Python</span></div></foreignObject></g></g><g id="NODE_BACK" class="cluster default flowchart-label"><rect height="382" width="144.578125" y="112" x="310.96875" ry="0" rx="0" style=""/><g transform="translate(355.9296875, 112)" class="cluster-label"><foreignObject height="19" width="54.65625"><div style="display: inline-block; white-space: nowrap;" xmlns="http://www.w3.org/1999/xhtml"><span class="nodeLabel">Node.js</span></div></foreignObject></g></g><g id="RUST_BACK" class="cluster default flowchart-label"><rect height="214" width="144.578125" y="874" x="310.96875" ry="0" rx="0" style=""/><g transform="translate(368.046875, 874)" class="cluster-label"><foreignObject height="19" width="30.421875"><div style="display: inline-block; white-space: nowrap;" xmlns="http://www.w3.org/1999/xhtml"><span class="nodeLabel">Rust</span></div></foreignObject></g></g></g><g class="edgePaths"><path marker-end="url(#my-svg_flowchart-pointEnd)" style="fill:none;stroke-width:2px;stroke-dasharray:3;" class="edge-thickness-normal edge-pattern-dotted flowchart-link LS-FASTAPI_F LE-VITE_REACT" id="L-FASTAPI_F-VITE_REACT-0" d="M430.546875,579L434.7135416666667,579C438.8802083333333,579,447.2135416666667,579,455.546875,579C463.8802083333333,579,472.2135416666667,579,486.4544270833333,579C500.6953125,579,520.84375,579,540.9921875,579C561.140625,579,581.2890625,579,595.5299479166666,579C609.7708333333334,579,618.1041666666666,579,649.2515224196968,517.8082538069501C680.3988781727269,456.61650761390007,734.3602563454538,334.23301522780025,761.3409454318172,273.0412690347503L788.3216345181806,211.84952284170035"/><path marker-end="url(#my-svg_flowchart-pointEnd)" style="fill:none;stroke-width:2px;stroke-dasharray:3;" class="edge-thickness-normal edge-pattern-dotted flowchart-link LS-FASTIFY_F LE-VITE_REACT" id="L-FASTIFY_F-VITE_REACT-0" d="M430.546875,177L434.7135416666667,177C438.8802083333333,177,447.2135416666667,177,455.546875,177C463.8802083333333,177,472.2135416666667,177,486.4544270833333,177C500.6953125,177,520.84375,177,540.9921875,177C561.140625,177,581.2890625,177,595.5299479166666,177C609.7708333333334,177,618.1041666666666,177,642.4421874999999,177C666.7802083333333,177,707.1229166666667,177,727.2942708333334,177L747.465625,177"/><path marker-end="url(#my-svg_flowchart-pointEnd)" style="fill:none;stroke-width:2px;stroke-dasharray:3;" class="edge-thickness-normal edge-pattern-dotted flowchart-link LS-AXUM_F LE-VITE_VUE" id="L-AXUM_F-VITE_VUE-0" d="M430.546875,939L434.7135416666667,939C438.8802083333333,939,447.2135416666667,939,455.546875,939C463.8802083333333,939,472.2135416666667,939,486.4544270833333,939C500.6953125,939,520.84375,939,540.9921875,939C561.140625,939,581.2890625,939,595.5299479166666,939C609.7708333333334,939,618.1041666666666,939,643.6283854166667,939C669.1526041666667,939,711.8677083333333,939,733.2252604166666,939L754.5828125,939"/><path marker-end="url(#my-svg_flowchart-pointEnd)" style="fill:none;stroke-width:2px;stroke-dasharray:3;" class="edge-thickness-normal edge-pattern-dotted flowchart-link LS-TURBO LE-PY_BACK" id="L-TURBO-PY_BACK-0" d="M77.1433923824846,162.25L88.38251448540383,231.70833333333334C99.62163658832306,301.1666666666667,122.09988079416154,440.0833333333333,145.12155498041412,509.5416666666667C168.14322916666666,579,191.70833333333334,579,215.2734375,579C238.83854166666666,579,262.4036458333333,579,277.46953125,579C292.53541666666666,579,299.1020833333333,579,302.3854166666667,579L305.66875,579"/><path marker-end="url(#my-svg_flowchart-pointEnd)" style="fill:none;stroke-width:2px;stroke-dasharray:3;" class="edge-thickness-normal edge-pattern-dotted flowchart-link LS-TURBO LE-NODE_BACK" id="L-TURBO-NODE_BACK-0" d="M119.578125,161.52393818221117L123.74479166666667,164.10328181850932C127.91145833333333,166.68262545480744,136.24479166666666,171.84131272740373,152.19401041666666,174.42065636370185C168.14322916666666,177,191.70833333333334,177,215.2734375,177C238.83854166666666,177,262.4036458333333,177,277.46953125,177C292.53541666666666,177,299.1020833333333,177,302.3854166666667,177L305.66875,177"/><path marker-end="url(#my-svg_flowchart-pointEnd)" style="fill:none;stroke-width:2px;stroke-dasharray:3;" class="edge-thickness-normal edge-pattern-dotted flowchart-link LS-TURBO LE-FRONTENDS" id="L-TURBO-FRONTENDS-0" d="M103.38113239247312,102.25L110.24729782706093,95.625C117.11346326164875,89,130.84579413082437,75.75,149.49451164874552,69.125C168.14322916666666,62.5,191.70833333333334,62.5,215.2734375,62.5C238.83854166666666,62.5,262.4036458333333,62.5,278.3528645833333,62.5C294.3020833333333,62.5,302.6354166666667,62.5,318.8502604166667,62.5C335.0651041666667,62.5,359.1614583333333,62.5,383.2578125,62.5C407.3541666666667,62.5,431.4505208333333,62.5,447.6653645833333,62.5C463.8802083333333,62.5,472.2135416666667,62.5,486.4544270833333,62.5C500.6953125,62.5,520.84375,62.5,540.1088541666667,62.5C559.3739583333333,62.5,577.7557291666667,62.5,586.9466145833334,62.5L596.1375,62.5"/></g><g class="edgeLabels"><g transform="translate(540.9921875, 579)" class="edgeLabel"><g transform="translate(-35.4453125, -9.5)" class="label"><foreignObject height="19" width="70.890625"><div style="display: inline-block; white-space: nowrap;" xmlns="http://www.w3.org/1999/xhtml"><span class="edgeLabel">Full-Stack</span></div></foreignObject></g></g><g transform="translate(540.9921875, 177)" class="edgeLabel"><g transform="translate(-35.4453125, -9.5)" class="label"><foreignObject height="19" width="70.890625"><div style="display: inline-block; white-space: nowrap;" xmlns="http://www.w3.org/1999/xhtml"><span class="edgeLabel">Full-Stack</span></div></foreignObject></g></g><g transform="translate(540.9921875, 939)" class="edgeLabel"><g transform="translate(-35.4453125, -9.5)" class="label"><foreignObject height="19" width="70.890625"><div style="display: inline-block; white-space: nowrap;" xmlns="http://www.w3.org/1999/xhtml"><span class="edgeLabel">Full-Stack</span></div></foreignObject></g></g><g transform="translate(124.14983, 452.7521)" class="edgeLabel"><g transform="translate(-45.6953125, -9.5)" class="label"><foreignObject height="19" width="91.390625"><div style="display: inline-block; white-space: nowrap;" xmlns="http://www.w3.org/1999/xhtml"><span class="edgeLabel">Orchestrates</span></div></foreignObject></g></g><g transform="translate(213.07217, 177)" class="edgeLabel"><g transform="translate(-45.6953125, -9.5)" class="label"><foreignObject height="19" width="91.390625"><div style="display: inline-block; white-space: nowrap;" xmlns="http://www.w3.org/1999/xhtml"><span class="edgeLabel">Orchestrates</span></div></foreignObject></g></g><g transform="translate(344.38416, 62.5)" class="edgeLabel"><g transform="translate(-45.6953125, -9.5)" class="label"><foreignObject height="19" width="91.390625"><div style="display: inline-block; white-space: nowrap;" xmlns="http://www.w3.org/1999/xhtml"><span class="edgeLabel">Orchestrates</span></div></foreignObject></g></g></g><g class="nodes"><g transform="translate(72.2890625, 132.25)" id="flowchart-TURBO-18" class="node default default flowchart-label"><rect height="60" width="94.578125" y="-30" x="-47.2890625" ry="0" rx="0" style="" class="basic label-container"/><g transform="translate(-39.7890625, -22.5)" style="" class="label"><rect/><foreignObject height="45" width="79.578125"><div style="display: inline-block; white-space: nowrap;" xmlns="http://www.w3.org/1999/xhtml"><span class="nodeLabel">Turborepo<br />⭐ Primary</span></div></foreignObject></g></g><g transform="translate(72.2890625, 391.5)" id="flowchart-NX_T-19" class="node default default flowchart-label"><rect height="34" width="33.234375" y="-17" x="-16.6171875" ry="0" rx="0" style="" class="basic label-container"/><g transform="translate(-9.1171875, -9.5)" style="" class="label"><rect/><foreignObject height="19" width="18.234375"><div style="display: inline-block; white-space: nowrap;" xmlns="http://www.w3.org/1999/xhtml"><span class="nodeLabel">Nx</span></div></foreignObject></g></g><g transform="translate(72.2890625, 475.5)" id="flowchart-LERNA_T-20" class="node default default flowchart-label"><rect height="34" width="55.203125" y="-17" x="-27.6015625" ry="0" rx="0" style="" class="basic label-container"/><g transform="translate(-20.1015625, -9.5)" style="" class="label"><rect/><foreignObject height="19" width="40.203125"><div style="display: inline-block; white-space: nowrap;" xmlns="http://www.w3.org/1999/xhtml"><span class="nodeLabel">Lerna</span></div></foreignObject></g></g><g transform="translate(72.2890625, 559.5)" id="flowchart-MOON_T-21" class="node default default flowchart-label"><rect height="34" width="52.265625" y="-17" x="-26.1328125" ry="0" rx="0" style="" class="basic label-container"/><g transform="translate(-18.6328125, -9.5)" style="" class="label"><rect/><foreignObject height="19" width="37.265625"><div style="display: inline-block; white-space: nowrap;" xmlns="http://www.w3.org/1999/xhtml"><span class="nodeLabel">Moon</span></div></foreignObject></g></g><g transform="translate(643.9375, 626)" class="root"><g class="clusters"><g id="SVELTE_ECO" class="cluster default flowchart-label"><rect height="84" width="304.5" y="8" x="8" ry="0" rx="0" style=""/><g transform="translate(98.6796875, 8)" class="cluster-label"><foreignObject height="19" width="123.140625"><div style="display: inline-block; white-space: nowrap;" xmlns="http://www.w3.org/1999/xhtml"><span class="nodeLabel">Svelte Ecosystem</span></div></foreignObject></g></g></g><g class="edgePaths"/><g class="edgeLabels"/><g class="nodes"><g transform="translate(82.3359375, 50)" id="flowchart-SVELTEKIT-14" class="node default default flowchart-label"><rect height="34" width="78.671875" y="-17" x="-39.3359375" ry="0" rx="0" style="" class="basic label-container"/><g transform="translate(-31.8359375, -9.5)" style="" class="label"><rect/><foreignObject height="19" width="63.671875"><div style="display: inline-block; white-space: nowrap;" xmlns="http://www.w3.org/1999/xhtml"><span class="nodeLabel">SvelteKit</span></div></foreignObject></g></g><g transform="translate(224.5859375, 50)" id="flowchart-SVELTE_V-15" class="node default default flowchart-label"><rect height="34" width="105.828125" y="-17" x="-52.9140625" ry="0" rx="0" style="" class="basic label-container"/><g transform="translate(-45.4140625, -9.5)" style="" class="label"><rect/><foreignObject height="19" width="90.828125"><div style="display: inline-block; white-space: nowrap;" xmlns="http://www.w3.org/1999/xhtml"><span class="nodeLabel">Svelte + Vite</span></div></foreignObject></g></g></g></g><g transform="translate(676.796875, 760)" class="root"><g class="clusters"><g id="OTHER_FE" class="cluster default flowchart-label"><rect height="84" width="238.78125" y="8" x="8" ry="0" rx="0" style=""/><g transform="translate(106.984375, 8)" class="cluster-label"><foreignObject height="19" width="40.8125"><div style="display: inline-block; white-space: nowrap;" xmlns="http://www.w3.org/1999/xhtml"><span class="nodeLabel">Other</span></div></foreignObject></g></g></g><g class="edgePaths"/><g class="edgeLabels"/><g class="nodes"><g transform="translate(67.7421875, 50)" id="flowchart-SOLID_F-16" class="node default default flowchart-label"><rect height="34" width="49.484375" y="-17" x="-24.7421875" ry="0" rx="0" style="" class="basic label-container"/><g transform="translate(-17.2421875, -9.5)" style="" class="label"><rect/><foreignObject height="19" width="34.484375"><div style="display: inline-block; white-space: nowrap;" xmlns="http://www.w3.org/1999/xhtml"><span class="nodeLabel">Solid</span></div></foreignObject></g></g><g transform="translate(177.1328125, 50)" id="flowchart-ANGULAR_F-17" class="node default default flowchart-label"><rect height="34" width="69.296875" y="-17" x="-34.6484375" ry="0" rx="0" style="" class="basic label-container"/><g transform="translate(-27.1484375, -9.5)" style="" class="label"><rect/><foreignObject height="19" width="54.296875"><div style="display: inline-block; white-space: nowrap;" xmlns="http://www.w3.org/1999/xhtml"><span class="nodeLabel">Angular</span></div></foreignObject></g></g></g></g><g transform="translate(803.6875, 939)" id="flowchart-VITE_VUE-12" class="node default default flowchart-label"><rect height="34" width="87.609375" y="-17" x="-43.8046875" ry="0" rx="0" style="" class="basic label-container"/><g transform="translate(-36.3046875, -9.5)" style="" class="label"><rect/><foreignObject height="19" width="72.609375"><div style="display: inline-block; white-space: nowrap;" xmlns="http://www.w3.org/1999/xhtml"><span class="nodeLabel">Vue + Vite</span></div></foreignObject></g></g><g transform="translate(803.6875, 1023)" id="flowchart-NUXT-13" class="node default default flowchart-label"><rect height="34" width="48.3125" y="-17" x="-24.15625" ry="0" rx="0" style="" class="basic label-container"/><g transform="translate(-16.65625, -9.5)" style="" class="label"><rect/><foreignObject height="19" width="33.3125"><div style="display: inline-block; white-space: nowrap;" xmlns="http://www.w3.org/1999/xhtml"><span class="nodeLabel">Nuxt</span></div></foreignObject></g></g><g transform="translate(803.6875, 177)" id="flowchart-VITE_REACT-9" class="node default default flowchart-label"><rect height="60" width="101.84375" y="-30" x="-50.921875" ry="0" rx="0" style="" class="basic label-container"/><g transform="translate(-43.421875, -22.5)" style="" class="label"><rect/><foreignObject height="45" width="86.84375"><div style="display: inline-block; white-space: nowrap;" xmlns="http://www.w3.org/1999/xhtml"><span class="nodeLabel">React + Vite<br />⭐ Primary</span></div></foreignObject></g></g><g transform="translate(803.6875, 463)" id="flowchart-NEXTJS-10" class="node default default flowchart-label"><rect height="34" width="66.515625" y="-17" x="-33.2578125" ry="0" rx="0" style="" class="basic label-container"/><g transform="translate(-25.7578125, -9.5)" style="" class="label"><rect/><foreignObject height="19" width="51.515625"><div style="display: inline-block; white-space: nowrap;" xmlns="http://www.w3.org/1999/xhtml"><span class="nodeLabel">Next.js</span></div></foreignObject></g></g><g transform="translate(803.6875, 547)" id="flowchart-REMIX_F-11" class="node default default flowchart-label"><rect height="34" width="58.25" y="-17" x="-29.125" ry="0" rx="0" style="" class="basic label-container"/><g transform="translate(-21.625, -9.5)" style="" class="label"><rect/><foreignObject height="19" width="43.25"><div style="display: inline-block; white-space: nowrap;" xmlns="http://www.w3.org/1999/xhtml"><span class="nodeLabel">Remix</span></div></foreignObject></g></g><g transform="translate(383.2578125, 939)" id="flowchart-AXUM_F-7" class="node default default flowchart-label"><rect height="60" width="94.578125" y="-30" x="-47.2890625" ry="0" rx="0" style="" class="basic label-container"/><g transform="translate(-39.7890625, -22.5)" style="" class="label"><rect/><foreignObject height="45" width="79.578125"><div style="display: inline-block; white-space: nowrap;" xmlns="http://www.w3.org/1999/xhtml"><span class="nodeLabel">Axum<br />⭐ Primary</span></div></foreignObject></g></g><g transform="translate(383.2578125, 1036)" id="flowchart-ACTIX_F-8" class="node default default flowchart-label"><rect height="34" width="86.640625" y="-17" x="-43.3203125" ry="0" rx="0" style="" class="basic label-container"/><g transform="translate(-35.8203125, -9.5)" style="" class="label"><rect/><foreignObject height="19" width="71.640625"><div style="display: inline-block; white-space: nowrap;" xmlns="http://www.w3.org/1999/xhtml"><span class="nodeLabel">Actix Web</span></div></foreignObject></g></g><g transform="translate(383.2578125, 177)" id="flowchart-FASTIFY_F-3" class="node default default flowchart-label"><rect height="60" width="94.578125" y="-30" x="-47.2890625" ry="0" rx="0" style="" class="basic label-container"/><g transform="translate(-39.7890625, -22.5)" style="" class="label"><rect/><foreignObject height="45" width="79.578125"><div style="display: inline-block; white-space: nowrap;" xmlns="http://www.w3.org/1999/xhtml"><span class="nodeLabel">Fastify<br />⭐ Primary</span></div></foreignObject></g></g><g transform="translate(383.2578125, 274)" id="flowchart-EXPRESS_F-4" class="node default default flowchart-label"><rect height="34" width="68.40625" y="-17" x="-34.203125" ry="0" rx="0" style="" class="basic label-container"/><g transform="translate(-26.703125, -9.5)" style="" class="label"><rect/><foreignObject height="19" width="53.40625"><div style="display: inline-block; white-space: nowrap;" xmlns="http://www.w3.org/1999/xhtml"><span class="nodeLabel">Express</span></div></foreignObject></g></g><g transform="translate(383.2578125, 358)" id="flowchart-NESTJS_F-5" class="node default default flowchart-label"><rect height="34" width="62.078125" y="-17" x="-31.0390625" ry="0" rx="0" style="" class="basic label-container"/><g transform="translate(-23.5390625, -9.5)" style="" class="label"><rect/><foreignObject height="19" width="47.078125"><div style="display: inline-block; white-space: nowrap;" xmlns="http://www.w3.org/1999/xhtml"><span class="nodeLabel">NestJS</span></div></foreignObject></g></g><g transform="translate(383.2578125, 442)" id="flowchart-HONO_F-6" class="node default default flowchart-label"><rect height="34" width="51.390625" y="-17" x="-25.6953125" ry="0" rx="0" style="" class="basic label-container"/><g transform="translate(-18.1953125, -9.5)" style="" class="label"><rect/><foreignObject height="19" width="36.390625"><div style="display: inline-block; white-space: nowrap;" xmlns="http://www.w3.org/1999/xhtml"><span class="nodeLabel">Hono</span></div></foreignObject></g></g><g transform="translate(383.2578125, 579)" id="flowchart-FASTAPI_F-0" class="node default default flowchart-label"><rect height="60" width="94.578125" y="-30" x="-47.2890625" ry="0" rx="0" style="" class="basic label-container"/><g transform="translate(-39.7890625, -22.5)" style="" class="label"><rect/><foreignObject height="45" width="79.578125"><div style="display: inline-block; white-space: nowrap;" xmlns="http://www.w3.org/1999/xhtml"><span class="nodeLabel">FastAPI<br />⭐ Primary</span></div></foreignObject></g></g><g transform="translate(383.2578125, 676)" id="flowchart-FLASK_F-1" class="node default default flowchart-label"><rect height="34" width="51.078125" y="-17" x="-25.5390625" ry="0" rx="0" style="" class="basic label-container"/><g transform="translate(-18.0390625, -9.5)" style="" class="label"><rect/><foreignObject height="19" width="36.078125"><div style="display: inline-block; white-space: nowrap;" xmlns="http://www.w3.org/1999/xhtml"><span class="nodeLabel">Flask</span></div></foreignObject></g></g><g transform="translate(383.2578125, 760)" id="flowchart-DJANGO_F-2" class="node default default flowchart-label"><rect height="34" width="64.453125" y="-17" x="-32.2265625" ry="0" rx="0" style="" class="basic label-container"/><g transform="translate(-24.7265625, -9.5)" style="" class="label"><rect/><foreignObject height="19" width="49.453125"><div style="display: inline-block; white-space: nowrap;" xmlns="http://www.w3.org/1999/xhtml"><span class="nodeLabel">Django</span></div></foreignObject></g></g></g></g></g></svg>