<svg aria-roledescription="gitGraph" role="graphics-document document" viewBox="-214.53125 -34.70000076293945 1172.53125 587.7789916992188" height="587.7789916992188" xmlns:xlink="http://www.w3.org/1999/xlink" xmlns="http://www.w3.org/2000/svg" width="1172.53125" id="my-svg" style="background-color: transparent;"><style>#my-svg{font-family:"trebuchet ms",verdana,arial,sans-serif;font-size:16px;fill:#333;}#my-svg .error-icon{fill:#552222;}#my-svg .error-text{fill:#552222;stroke:#552222;}#my-svg .edge-thickness-normal{stroke-width:2px;}#my-svg .edge-thickness-thick{stroke-width:3.5px;}#my-svg .edge-pattern-solid{stroke-dasharray:0;}#my-svg .edge-pattern-dashed{stroke-dasharray:3;}#my-svg .edge-pattern-dotted{stroke-dasharray:2;}#my-svg .marker{fill:#333333;stroke:#333333;}#my-svg .marker.cross{stroke:#333333;}#my-svg svg{font-family:"trebuchet ms",verdana,arial,sans-serif;font-size:16px;}#my-svg .commit-id,#my-svg .commit-msg,#my-svg .branch-label{fill:lightgrey;color:lightgrey;font-family:'trebuchet ms',verdana,arial,sans-serif;font-family:var(--mermaid-font-family);}#my-svg .branch-label0{fill:#ffffff;}#my-svg .commit0{stroke:hsl(240, 100%, 46.2745098039%);fill:hsl(240, 100%, 46.2745098039%);}#my-svg .commit-highlight0{stroke:hsl(60, 100%, 3.7254901961%);fill:hsl(60, 100%, 3.7254901961%);}#my-svg .label0{fill:hsl(240, 100%, 46.2745098039%);}#my-svg .arrow0{stroke:hsl(240, 100%, 46.2745098039%);}#my-svg .branch-label1{fill:black;}#my-svg .commit1{stroke:hsl(60, 100%, 43.5294117647%);fill:hsl(60, 100%, 43.5294117647%);}#my-svg .commit-highlight1{stroke:rgb(0, 0, 160.5);fill:rgb(0, 0, 160.5);}#my-svg .label1{fill:hsl(60, 100%, 43.5294117647%);}#my-svg .arrow1{stroke:hsl(60, 100%, 43.5294117647%);}#my-svg .branch-label2{fill:black;}#my-svg .commit2{stroke:hsl(80, 100%, 46.2745098039%);fill:hsl(80, 100%, 46.2745098039%);}#my-svg .commit-highlight2{stroke:rgb(48.8333333334, 0, 146.5000000001);fill:rgb(48.8333333334, 0, 146.5000000001);}#my-svg .label2{fill:hsl(80, 100%, 46.2745098039%);}#my-svg .arrow2{stroke:hsl(80, 100%, 46.2745098039%);}#my-svg .branch-label3{fill:#ffffff;}#my-svg .commit3{stroke:hsl(210, 100%, 46.2745098039%);fill:hsl(210, 100%, 46.2745098039%);}#my-svg .commit-highlight3{stroke:rgb(146.5000000001, 73.2500000001, 0);fill:rgb(146.5000000001, 73.2500000001, 0);}#my-svg .label3{fill:hsl(210, 100%, 46.2745098039%);}#my-svg .arrow3{stroke:hsl(210, 100%, 46.2745098039%);}#my-svg .branch-label4{fill:black;}#my-svg .commit4{stroke:hsl(180, 100%, 46.2745098039%);fill:hsl(180, 100%, 46.2745098039%);}#my-svg .commit-highlight4{stroke:rgb(146.5000000001, 0, 0);fill:rgb(146.5000000001, 0, 0);}#my-svg .label4{fill:hsl(180, 100%, 46.2745098039%);}#my-svg .arrow4{stroke:hsl(180, 100%, 46.2745098039%);}#my-svg .branch-label5{fill:black;}#my-svg .commit5{stroke:hsl(150, 100%, 46.2745098039%);fill:hsl(150, 100%, 46.2745098039%);}#my-svg .commit-highlight5{stroke:rgb(146.5000000001, 0, 73.2500000001);fill:rgb(146.5000000001, 0, 73.2500000001);}#my-svg .label5{fill:hsl(150, 100%, 46.2745098039%);}#my-svg .arrow5{stroke:hsl(150, 100%, 46.2745098039%);}#my-svg .branch-label6{fill:black;}#my-svg .commit6{stroke:hsl(300, 100%, 46.2745098039%);fill:hsl(300, 100%, 46.2745098039%);}#my-svg .commit-highlight6{stroke:rgb(0, 146.5000000001, 0);fill:rgb(0, 146.5000000001, 0);}#my-svg .label6{fill:hsl(300, 100%, 46.2745098039%);}#my-svg .arrow6{stroke:hsl(300, 100%, 46.2745098039%);}#my-svg .branch-label7{fill:black;}#my-svg .commit7{stroke:hsl(0, 100%, 46.2745098039%);fill:hsl(0, 100%, 46.2745098039%);}#my-svg .commit-highlight7{stroke:rgb(0, 146.5000000001, 146.5000000001);fill:rgb(0, 146.5000000001, 146.5000000001);}#my-svg .label7{fill:hsl(0, 100%, 46.2745098039%);}#my-svg .arrow7{stroke:hsl(0, 100%, 46.2745098039%);}#my-svg .branch{stroke-width:1;stroke:#333333;stroke-dasharray:2;}#my-svg .commit-label{font-size:10px;fill:#000021;}#my-svg .commit-label-bkg{font-size:10px;fill:#ffffde;opacity:0.5;}#my-svg .tag-label{font-size:10px;fill:#131300;}#my-svg .tag-label-bkg{fill:#ECECFF;stroke:hsl(240, 60%, 86.2745098039%);}#my-svg .tag-hole{fill:#333;}#my-svg .commit-merge{stroke:#ECECFF;fill:#ECECFF;}#my-svg .commit-reverse{stroke:#ECECFF;fill:#ECECFF;stroke-width:3;}#my-svg .commit-highlight-inner{stroke:#ECECFF;fill:#ECECFF;}#my-svg .arrow{stroke-width:8;stroke-linecap:round;fill:none;}#my-svg .gitTitleText{text-anchor:middle;font-size:18px;fill:#333;}#my-svg :root{--mermaid-font-family:"trebuchet ms",verdana,arial,sans-serif;}</style><g/><g class="commit-bullets"/><g class="commit-labels"/><g><line class="branch branch0" y2="0" x2="950" y1="0" x1="0"/><rect transform="translate(-19, -9.5)" height="23" width="53" y="-1.5" x="-69" ry="4" rx="4" class="branchLabelBkg label0"/><g class="branchLabel"><g transform="translate(-79, -10.5)" class="label branch-label0"><text><tspan class="row" x="0" dy="1em" xml:space="preserve">main</tspan></text></g></g><line class="branch branch1" y2="90" x2="950" y1="90" x1="0"/><rect transform="translate(-19, 80.5)" height="23" width="171.53125" y="-1.5" x="-187.53125" ry="4" rx="4" class="branchLabelBkg label1"/><g class="branchLabel"><g transform="translate(-197.53125, 79.5)" class="label branch-label1"><text><tspan class="row" x="0" dy="1em" xml:space="preserve">feature/python-track</tspan></text></g></g><line class="branch branch2" y2="180" x2="950" y1="180" x1="0"/><rect transform="translate(-19, 170.5)" height="23" width="157.28125" y="-1.5" x="-173.28125" ry="4" rx="4" class="branchLabelBkg label2"/><g class="branchLabel"><g transform="translate(-183.28125, 169.5)" class="label branch-label2"><text><tspan class="row" x="0" dy="1em" xml:space="preserve">feature/node-track</tspan></text></g></g><line class="branch branch3" y2="270" x2="950" y1="270" x1="0"/><rect transform="translate(-19, 260.5)" height="23" width="169.78125" y="-1.5" x="-185.78125" ry="4" rx="4" class="branchLabelBkg label3"/><g class="branchLabel"><g transform="translate(-195.78125, 259.5)" class="label branch-label3"><text><tspan class="row" x="0" dy="1em" xml:space="preserve">feature/quality-suite</tspan></text></g></g><line class="branch branch4" y2="360" x2="950" y1="360" x1="0"/><rect transform="translate(-19, 350.5)" height="23" width="170.21875" y="-1.5" x="-186.21875" ry="4" rx="4" class="branchLabelBkg label4"/><g class="branchLabel"><g transform="translate(-196.21875, 349.5)" class="label branch-label4"><text><tspan class="row" x="0" dy="1em" xml:space="preserve">feature/ci-workflows</tspan></text></g></g><line class="branch branch5" y2="450" x2="950" y1="450" x1="0"/><rect transform="translate(-19, 440.5)" height="23" width="108.890625" y="-1.5" x="-124.890625" ry="4" rx="4" class="branchLabelBkg label5"/><g class="branchLabel"><g transform="translate(-134.890625, 439.5)" class="label branch-label5"><text><tspan class="row" x="0" dy="1em" xml:space="preserve">release/v1.1</tspan></text></g></g></g><g class="commit-arrows"><path class="arrow arrow0" d="M 10 0 L 10 0  10 0 L 60 0"/><path class="arrow arrow1" d="M 60 0 L 60 70 A 20 20, 0, 0, 0, 80 90 L 110 90"/><path class="arrow arrow1" d="M 110 90 L 110 90  110 90 L 160 90"/><path class="arrow arrow1" d="M 160 90 L 160 90  160 90 L 210 90"/><path class="arrow arrow0" d="M 60 0 L 60 0  60 0 L 260 0"/><path class="arrow arrow1" d="M 210 90 L 240 90 A 20 20, 0, 0, 0, 260 70 L 260 0"/><path class="arrow arrow2" d="M 260 0 L 260 160 A 20 20, 0, 0, 0, 280 180 L 310 180"/><path class="arrow arrow2" d="M 310 180 L 310 180  310 180 L 360 180"/><path class="arrow arrow3" d="M 260 0 L 260 250 A 20 20, 0, 0, 0, 280 270 L 410 270"/><path class="arrow arrow3" d="M 410 270 L 410 270  410 270 L 460 270"/><path class="arrow arrow3" d="M 460 270 L 460 270  460 270 L 510 270"/><path class="arrow arrow0" d="M 260 0 L 260 0  260 0 L 560 0"/><path class="arrow arrow3" d="M 510 270 L 540 270 A 20 20, 0, 0, 0, 560 250 L 560 0"/><path class="arrow arrow0" d="M 560 0 L 560 0  560 0 L 610 0"/><path class="arrow arrow2" d="M 360 180 L 590 180 A 20 20, 0, 0, 0, 610 160 L 610 0"/><path class="arrow arrow4" d="M 610 0 L 610 340 A 20 20, 0, 0, 0, 630 360 L 660 360"/><path class="arrow arrow4" d="M 660 360 L 660 360  660 360 L 710 360"/><path class="arrow arrow0" d="M 610 0 L 610 0  610 0 L 760 0"/><path class="arrow arrow4" d="M 710 360 L 740 360 A 20 20, 0, 0, 0, 760 340 L 760 0"/><path class="arrow arrow5" d="M 760 0 L 760 430 A 20 20, 0, 0, 0, 780 450 L 810 450"/><path class="arrow arrow5" d="M 810 450 L 810 450  810 450 L 860 450"/><path class="arrow arrow0" d="M 760 0 L 760 0  760 0 L 910 0"/><path class="arrow arrow5" d="M 860 450 L 890 450 A 20 20, 0, 0, 0, 910 430 L 910 0"/></g><g class="commit-bullets"><circle class="commit Initial commit commit0" r="10" cy="0" cx="10"/><circle class="commit Core template structure commit0" r="10" cy="0" cx="60"/><circle class="commit Add Python scaffolding commit1" r="10" cy="90" cx="110"/><circle class="commit Add FastAPI framework commit1" r="10" cy="90" cx="160"/><circle class="commit Add pytest config commit1" r="10" cy="90" cx="210"/><circle class="commit Merge Python track commit0" r="9" cy="0" cx="260"/><circle class="commit commit-merge Merge Python track commit0" r="6" cy="0" cx="260"/><circle class="commit Add Node.js scaffolding commit2" r="10" cy="180" cx="310"/><circle class="commit Add Fastify framework commit2" r="10" cy="180" cx="360"/><circle class="commit Add ruff linting commit3" r="10" cy="270" cx="410"/><circle class="commit Add ty type checking commit3" r="10" cy="270" cx="460"/><circle class="commit Add pre-commit hooks commit3" r="10" cy="270" cx="510"/><circle class="commit Merge quality suite commit0" r="9" cy="0" cx="560"/><circle class="commit commit-merge Merge quality suite commit0" r="6" cy="0" cx="560"/><circle class="commit Merge Node track commit0" r="9" cy="0" cx="610"/><circle class="commit commit-merge Merge Node track commit0" r="6" cy="0" cx="610"/><circle class="commit Add GitHub Actions commit4" r="10" cy="360" cx="660"/><circle class="commit Add matrix testing commit4" r="10" cy="360" cx="710"/><circle class="commit Merge CI commit0" r="9" cy="0" cx="760"/><circle class="commit commit-merge Merge CI commit0" r="6" cy="0" cx="760"/><circle class="commit Add frontends commit5" r="10" cy="450" cx="810"/><circle class="commit Add monorepo support commit5" r="10" cy="450" cx="860"/><circle class="commit 18-54991a0 commit0" r="9" cy="0" cx="910"/><circle class="commit commit-merge 18-54991a0 commit0" r="6" cy="0" cx="910"/></g><g class="commit-labels"><g transform="translate(-35.192499999999995, 31.3775) rotate(-45, 0, 0)"><rect height="15" width="66.875" y="13.5" x="-23.4375" class="commit-label-bkg"/><text class="commit-label" y="25" x="-21.4375">Initial commit</text></g><g transform="translate(-52.613125000000004, 46.964375) rotate(-45, 50, 0)"><rect height="15.05078125" width="112.71875" y="13.5" x="3.640625" class="commit-label-bkg"/><text class="commit-label" y="25" x="5.640625">Core template structure</text></g><g transform="translate(-50.327187499999994, 44.9190625) rotate(-45, 100, 90)"><rect height="15.05078125" width="106.703125" y="103.5" x="56.6484375" class="commit-label-bkg"/><text class="commit-label" y="115" x="58.6484375">Add Python scaffolding</text></g><g transform="translate(-50.8853125, 45.4184375) rotate(-45, 150, 90)"><rect height="15" width="108.171875" y="103.5" x="105.9140625" class="commit-label-bkg"/><text class="commit-label" y="115" x="107.9140625">Add FastAPI framework</text></g><g transform="translate(-41.0765625, 36.6421875) rotate(-45, 200, 90)"><rect height="15.05078125" width="82.359375" y="103.5" x="168.8203125" class="commit-label-bkg"/><text class="commit-label" y="115" x="170.8203125">Add pytest config</text></g><g transform="translate(-44.28875, 39.51625) rotate(-45, 250, 0)"><rect height="15.05078125" width="90.8125" y="13.5" x="214.59375" class="commit-label-bkg"/><text class="commit-label" y="25" x="216.59375">Merge Python track</text></g><g transform="translate(-51.615625, 46.071875000000006) rotate(-45, 300, 180)"><rect height="15.05078125" width="110.09375" y="193.5" x="254.953125" class="commit-label-bkg"/><text class="commit-label" y="205" x="256.953125">Add Node.js scaffolding</text></g><g transform="translate(-49.834375, 44.478125000000006) rotate(-45, 350, 180)"><rect height="15.05078125" width="105.40625" y="193.5" x="307.296875" class="commit-label-bkg"/><text class="commit-label" y="205" x="309.296875">Add Fastify framework</text></g><g transform="translate(-37.2825, 33.2475) rotate(-45, 400, 270)"><rect height="15.05078125" width="72.375" y="283.5" x="373.8125" class="commit-label-bkg"/><text class="commit-label" y="295" x="375.8125">Add ruff linting</text></g><g transform="translate(-47.061562499999994, 41.997187499999995) rotate(-45, 450, 270)"><rect height="15.05078125" width="98.109375" y="283.5" x="410.9453125" class="commit-label-bkg"/><text class="commit-label" y="295" x="412.9453125">Add ty type checking</text></g><g transform="translate(-49.56125, 44.23375) rotate(-45, 500, 270)"><rect height="15.05078125" width="104.6875" y="283.5" x="457.65625" class="commit-label-bkg"/><text class="commit-label" y="295" x="459.65625">Add pre-commit hooks</text></g><g transform="translate(-43.8671875, 39.1390625) rotate(-45, 550, 0)"><rect height="15.05078125" width="89.703125" y="13.5" x="515.1484375" class="commit-label-bkg"/><text class="commit-label" y="25" x="517.1484375">Merge quality suite</text></g><g transform="translate(-41.24875, 36.79625) rotate(-45, 600, 0)"><rect height="15.05078125" width="82.8125" y="13.5" x="568.59375" class="commit-label-bkg"/><text class="commit-label" y="25" x="570.59375">Merge Node track</text></g><g transform="translate(-44.063125, 39.314375) rotate(-45, 650, 360)"><rect height="15" width="90.21875" y="373.5" x="614.890625" class="commit-label-bkg"/><text class="commit-label" y="385" x="616.890625">Add GitHub Actions</text></g><g transform="translate(-42.8815625, 38.2571875) rotate(-45, 700, 360)"><rect height="15.05078125" width="87.109375" y="373.5" x="666.4453125" class="commit-label-bkg"/><text class="commit-label" y="385" x="668.4453125">Add matrix testing</text></g><g transform="translate(-26.00125, 23.153750000000002) rotate(-45, 750, 0)"><rect height="15.05078125" width="42.6875" y="13.5" x="738.65625" class="commit-label-bkg"/><text class="commit-label" y="25" x="740.65625">Merge CI</text></g><polygon points="734.0078125,-17.2&#10;          734.0078125,-21.2&#10;          742.0078125,-26.7&#10;          777.9921875,-26.7&#10;          777.9921875,-11.7&#10;          742.0078125,-11.7" class="tag-label-bkg"/><circle class="tag-hole" r="1.5" cy="-19.2" cx="738.0078125"/><text x="746.0078125" class="tag-label" y="-16">v1.0.0</text><g transform="translate(-35.228125000000006, 31.409374999999997) rotate(-45, 800, 450)"><rect height="15" width="66.96875" y="463.5" x="776.515625" class="commit-label-bkg"/><text class="commit-label" y="475" x="778.515625">Add frontends</text></g><g transform="translate(-49.953125, 44.584374999999994) rotate(-45, 850, 450)"><rect height="15.05078125" width="105.71875" y="463.5" x="807.140625" class="commit-label-bkg"/><text class="commit-label" y="475" x="809.140625">Add monorepo support</text></g><polygon points="884.0078125,-17.2&#10;          884.0078125,-21.2&#10;          892.0078125,-26.7&#10;          927.9921875,-26.7&#10;          927.9921875,-11.7&#10;          892.0078125,-11.7" class="tag-label-bkg"/><circle class="tag-hole" r="1.5" cy="-19.2" cx="888.0078125"/><text x="896.0078125" class="tag-label" y="-16">v1.1.0</text></g></svg>