<svg aria-roledescription="flowchart-v2" role="graphics-document document" viewBox="-8 -8 1694.96875 458" style="max-width: 1694.97px; background-color: transparent;" xmlns:xlink="http://www.w3.org/1999/xlink" xmlns="http://www.w3.org/2000/svg" width="100%" id="my-svg"><style>#my-svg{font-family:"trebuchet ms",verdana,arial,sans-serif;font-size:16px;fill:#333;}#my-svg .error-icon{fill:#552222;}#my-svg .error-text{fill:#552222;stroke:#552222;}#my-svg .edge-thickness-normal{stroke-width:2px;}#my-svg .edge-thickness-thick{stroke-width:3.5px;}#my-svg .edge-pattern-solid{stroke-dasharray:0;}#my-svg .edge-pattern-dashed{stroke-dasharray:3;}#my-svg .edge-pattern-dotted{stroke-dasharray:2;}#my-svg .marker{fill:#333333;stroke:#333333;}#my-svg .marker.cross{stroke:#333333;}#my-svg svg{font-family:"trebuchet ms",verdana,arial,sans-serif;font-size:16px;}#my-svg .label{font-family:"trebuchet ms",verdana,arial,sans-serif;color:#333;}#my-svg .cluster-label text{fill:#333;}#my-svg .cluster-label span,#my-svg p{color:#333;}#my-svg .label text,#my-svg span,#my-svg p{fill:#333;color:#333;}#my-svg .node rect,#my-svg .node circle,#my-svg .node ellipse,#my-svg .node polygon,#my-svg .node path{fill:#ECECFF;stroke:#9370DB;stroke-width:1px;}#my-svg .flowchart-label text{text-anchor:middle;}#my-svg .node .label{text-align:center;}#my-svg .node.clickable{cursor:pointer;}#my-svg .arrowheadPath{fill:#333333;}#my-svg .edgePath .path{stroke:#333333;stroke-width:2.0px;}#my-svg .flowchart-link{stroke:#333333;fill:none;}#my-svg .edgeLabel{background-color:#e8e8e8;text-align:center;}#my-svg .edgeLabel rect{opacity:0.5;background-color:#e8e8e8;fill:#e8e8e8;}#my-svg .labelBkg{background-color:rgba(232, 232, 232, 0.5);}#my-svg .cluster rect{fill:#ffffde;stroke:#aaaa33;stroke-width:1px;}#my-svg .cluster text{fill:#333;}#my-svg .cluster span,#my-svg p{color:#333;}#my-svg div.mermaidTooltip{position:absolute;text-align:center;max-width:200px;padding:2px;font-family:"trebuchet ms",verdana,arial,sans-serif;font-size:12px;background:hsl(80, 100%, 96.2745098039%);border:1px solid #aaaa33;border-radius:2px;pointer-events:none;z-index:100;}#my-svg .flowchartTitleText{text-anchor:middle;font-size:18px;fill:#333;}#my-svg :root{--mermaid-font-family:"trebuchet ms",verdana,arial,sans-serif;}</style><g><marker orient="auto" markerHeight="12" markerWidth="12" markerUnits="userSpaceOnUse" refY="5" refX="6" viewBox="0 0 10 10" class="marker flowchart" id="my-svg_flowchart-pointEnd"><path style="stroke-width: 1; stroke-dasharray: 1, 0;" class="arrowMarkerPath" d="M 0 0 L 10 5 L 0 10 z"/></marker><marker orient="auto" markerHeight="12" markerWidth="12" markerUnits="userSpaceOnUse" refY="5" refX="4.5" viewBox="0 0 10 10" class="marker flowchart" id="my-svg_flowchart-pointStart"><path style="stroke-width: 1; stroke-dasharray: 1, 0;" class="arrowMarkerPath" d="M 0 5 L 10 10 L 10 0 z"/></marker><marker orient="auto" markerHeight="11" markerWidth="11" markerUnits="userSpaceOnUse" refY="5" refX="11" viewBox="0 0 10 10" class="marker flowchart" id="my-svg_flowchart-circleEnd"><circle style="stroke-width: 1; stroke-dasharray: 1, 0;" class="arrowMarkerPath" r="5" cy="5" cx="5"/></marker><marker orient="auto" markerHeight="11" markerWidth="11" markerUnits="userSpaceOnUse" refY="5" refX="-1" viewBox="0 0 10 10" class="marker flowchart" id="my-svg_flowchart-circleStart"><circle style="stroke-width: 1; stroke-dasharray: 1, 0;" class="arrowMarkerPath" r="5" cy="5" cx="5"/></marker><marker orient="auto" markerHeight="11" markerWidth="11" markerUnits="userSpaceOnUse" refY="5.2" refX="12" viewBox="0 0 11 11" class="marker cross flowchart" id="my-svg_flowchart-crossEnd"><path style="stroke-width: 2; stroke-dasharray: 1, 0;" class="arrowMarkerPath" d="M 1,1 l 9,9 M 10,1 l -9,9"/></marker><marker orient="auto" markerHeight="11" markerWidth="11" markerUnits="userSpaceOnUse" refY="5.2" refX="-1" viewBox="0 0 11 11" class="marker cross flowchart" id="my-svg_flowchart-crossStart"><path style="stroke-width: 2; stroke-dasharray: 1, 0;" class="arrowMarkerPath" d="M 1,1 l 9,9 M 10,1 l -9,9"/></marker><g class="root"><g class="clusters"><g id="OUTPUT" class="cluster default flowchart-label"><rect height="272" width="209.484375" y="0" x="1469.484375" ry="0" rx="0" style="fill:#dcfce7;stroke:#22c55e;"/><g transform="translate(1536.8828125, 0)" class="cluster-label"><foreignObject height="26" width="74.6875"><div style="display: inline-block; white-space: nowrap;" xmlns="http://www.w3.org/1999/xhtml"><span class="nodeLabel">📦 Output</span></div></foreignObject></g></g><g id="HOOKS2" class="cluster default flowchart-label"><rect height="234" width="709.921875" y="6" x="709.5625" ry="0" rx="0" style="fill:#fef3c7;stroke:#f59e0b;"/><g transform="translate(1031.015625, 6)" class="cluster-label"><foreignObject height="26" width="67.015625"><div style="display: inline-block; white-space: nowrap;" xmlns="http://www.w3.org/1999/xhtml"><span class="nodeLabel">🔗 Hooks</span></div></foreignObject></g></g><g id="COPIER" class="cluster default flowchart-label"><rect height="182" width="844.03125" y="260" x="337.59375" ry="0" rx="0" style="fill:#ccfbf1;stroke:#14b8a6;"/><g transform="translate(697.8125, 260)" class="cluster-label"><foreignObject height="26" width="123.59375"><div style="display: inline-block; white-space: nowrap;" xmlns="http://www.w3.org/1999/xhtml"><span class="nodeLabel">⚙️ Copier Engine</span></div></foreignObject></g></g><g id="INPUT" class="cluster default flowchart-label"><rect height="188" width="204.53125" y="254" x="0" ry="0" rx="0" style="fill:#e0f2fe;stroke:#0284c7;"/><g transform="translate(71.2578125, 254)" class="cluster-label"><foreignObject height="26" width="62.015625"><div style="display: inline-block; white-space: nowrap;" xmlns="http://www.w3.org/1999/xhtml"><span class="nodeLabel">📝 Input</span></div></foreignObject></g></g></g><g class="edgePaths"><path marker-end="url(#my-svg_flowchart-pointEnd)" style="fill:none;" class="edge-thickness-normal edge-pattern-solid flowchart-link LS-USER LE-PROMPTS2" id="L-USER-PROMPTS2-0" d="M125.6640625,390L138.80859375,390C151.953125,390,178.2421875,390,202.47526041666666,390C226.70833333333334,390,248.88541666666666,390,271.0625,390C293.2395833333333,390,315.4166666666667,390,329.7885416666667,390C344.16041666666666,390,350.7270833333334,390,354.0104166666667,390L357.29375,390"/><path marker-end="url(#my-svg_flowchart-pointEnd)" style="fill:none;" class="edge-thickness-normal edge-pattern-solid flowchart-link LS-ANSWERS LE-VALIDATE" id="L-ANSWERS-VALIDATE-0" d="M179.53125,306L183.69791666666666,306C187.86458333333334,306,196.19791666666666,306,211.453125,306C226.70833333333334,306,248.88541666666666,306,271.0625,306C293.2395833333333,306,315.4166666666667,306,339.9908854166667,306C364.5651041666667,306,391.5364583333333,306,418.5078125,306C445.4791666666667,306,472.4505208333333,306,494.31535038363,309.8016983426783C516.1801799339268,313.6033966853566,532.9384848678536,321.2067933707132,541.3176373348169,325.00849171339155L549.6967898017804,328.81019005606987"/><path marker-end="url(#my-svg_flowchart-pointEnd)" style="fill:none;" class="edge-thickness-normal edge-pattern-solid flowchart-link LS-PROMPTS2 LE-VALIDATE" id="L-PROMPTS2-VALIDATE-0" d="M474.421875,390L478.5885416666667,390C482.7552083333333,390,491.0885416666667,390,503.6343608002967,386.1983016573217C516.1801799339268,382.3966033146434,532.9384848678536,374.7932066292868,541.3176373348169,370.99150828660845L549.6967898017804,367.18980994393013"/><path marker-end="url(#my-svg_flowchart-pointEnd)" style="fill:none;" class="edge-thickness-normal edge-pattern-solid flowchart-link LS-VALIDATE LE-PRE" id="L-VALIDATE-PRE-0" d="M659.5625,348L663.7291666666666,348C667.8958333333334,348,676.2291666666666,348,684.5625,348C692.8958333333334,348,701.2291666666666,348,720.9068246415136,314.63434299672576C740.5844826163607,281.2686859934516,771.6064652327213,214.53737198690314,787.1174565409016,181.1717149836289L802.628447849082,147.80605798035467"/><path marker-end="url(#my-svg_flowchart-pointEnd)" style="fill:none;" class="edge-thickness-normal edge-pattern-solid flowchart-link LS-PRE LE-RENDER2" id="L-PRE-RENDER2-0" d="M890.96875,126L901.23828125,126C911.5078125,126,932.046875,126,962.3591284689031,160.4034116713602C992.671381937806,194.80682334272038,1032.756826375612,263.61364668544076,1052.799548594515,298.01705835680093L1072.842270813418,332.4204700281611"/><path marker-end="url(#my-svg_flowchart-pointEnd)" style="fill:none;" class="edge-thickness-normal edge-pattern-solid flowchart-link LS-RENDER2 LE-POST" id="L-RENDER2-POST-0" d="M1156.625,354L1160.7916666666667,354C1164.9583333333333,354,1173.2916666666667,354,1181.625,317.6666666666667C1189.9583333333333,281.3333333333333,1198.2916666666667,208.66666666666666,1205.7416666666666,172.33333333333334C1213.1916666666666,136,1219.7583333333334,136,1223.0416666666667,136L1226.325,136"/><path marker-end="url(#my-svg_flowchart-pointEnd)" style="fill:none;" class="edge-thickness-normal edge-pattern-solid flowchart-link LS-POST LE-PROJECT" id="L-POST-PROJECT-0" d="M1334.594029017857,119L1348.742420014881,107.83333333333333C1362.8908110119048,96.66666666666667,1391.1875930059523,74.33333333333333,1409.502650669643,63.166666666666664C1427.8177083333333,52,1436.1510416666667,52,1444.484375,52C1452.8177083333333,52,1461.1510416666667,52,1470.2833333333335,52C1479.4156249999999,52,1489.346875,52,1494.3125,52L1499.278125,52"/><path marker-end="url(#my-svg_flowchart-pointEnd)" style="fill:none;" class="edge-thickness-normal edge-pattern-solid flowchart-link LS-POST LE-METADATA2" id="L-POST-METADATA2-0" d="M1394.484375,136L1398.6510416666667,136C1402.8177083333333,136,1411.1510416666667,136,1419.484375,136C1427.8177083333333,136,1436.1510416666667,136,1444.484375,136C1452.8177083333333,136,1461.1510416666667,136,1468.6010416666668,136C1476.0510416666666,136,1482.6177083333332,136,1485.9010416666667,136L1489.184375,136"/><path marker-end="url(#my-svg_flowchart-pointEnd)" style="fill:none;" class="edge-thickness-normal edge-pattern-solid flowchart-link LS-POST LE-SMOKE" id="L-POST-SMOKE-0" d="M1334.594029017857,153L1348.742420014881,164.16666666666666C1362.8908110119048,175.33333333333334,1391.1875930059523,197.66666666666666,1409.502650669643,208.83333333333334C1427.8177083333333,220,1436.1510416666667,220,1444.484375,220C1452.8177083333333,220,1461.1510416666667,220,1469.4526041666668,220C1477.7541666666666,220,1486.0239583333332,220,1490.1588541666667,220L1494.29375,220"/></g><g class="edgeLabels"><g transform="translate(271.0625, 390)" class="edgeLabel"><g transform="translate(-41.53125, -9.5)" class="label"><foreignObject height="19" width="83.0625"><div style="display: inline-block; white-space: nowrap;" xmlns="http://www.w3.org/1999/xhtml"><span class="edgeLabel">copier copy</span></div></foreignObject></g></g><g transform="translate(418.5078125, 306)" class="edgeLabel"><g transform="translate(-34.3515625, -9.5)" class="label"><foreignObject height="19" width="68.703125"><div style="display: inline-block; white-space: nowrap;" xmlns="http://www.w3.org/1999/xhtml"><span class="edgeLabel">--answers</span></div></foreignObject></g></g><g class="edgeLabel"><g transform="translate(0, 0)" class="label"><foreignObject height="0" width="0"><div style="display: inline-block; white-space: nowrap;" xmlns="http://www.w3.org/1999/xhtml"><span class="edgeLabel"></span></div></foreignObject></g></g><g class="edgeLabel"><g transform="translate(0, 0)" class="label"><foreignObject height="0" width="0"><div style="display: inline-block; white-space: nowrap;" xmlns="http://www.w3.org/1999/xhtml"><span class="edgeLabel"></span></div></foreignObject></g></g><g transform="translate(952.5859375, 126)" class="edgeLabel"><g transform="translate(-36.6171875, -9.5)" class="label"><foreignObject height="19" width="73.234375"><div style="display: inline-block; white-space: nowrap;" xmlns="http://www.w3.org/1999/xhtml"><span class="edgeLabel">✓ tools ok</span></div></foreignObject></g></g><g class="edgeLabel"><g transform="translate(0, 0)" class="label"><foreignObject height="0" width="0"><div style="display: inline-block; white-space: nowrap;" xmlns="http://www.w3.org/1999/xhtml"><span class="edgeLabel"></span></div></foreignObject></g></g><g class="edgeLabel"><g transform="translate(0, 0)" class="label"><foreignObject height="0" width="0"><div style="display: inline-block; white-space: nowrap;" xmlns="http://www.w3.org/1999/xhtml"><span class="edgeLabel"></span></div></foreignObject></g></g><g class="edgeLabel"><g transform="translate(0, 0)" class="label"><foreignObject height="0" width="0"><div style="display: inline-block; white-space: nowrap;" xmlns="http://www.w3.org/1999/xhtml"><span class="edgeLabel"></span></div></foreignObject></g></g><g class="edgeLabel"><g transform="translate(0, 0)" class="label"><foreignObject height="0" width="0"><div style="display: inline-block; white-space: nowrap;" xmlns="http://www.w3.org/1999/xhtml"><span class="edgeLabel"></span></div></foreignObject></g></g></g><g class="nodes"><g transform="translate(1574.2265625, 52)" id="flowchart-PROJECT-7" class="node default default flowchart-label"><rect height="34" width="139.296875" y="-17" x="-69.6484375" ry="0" rx="0" style="" class="basic label-container"/><g transform="translate(-62.1484375, -9.5)" style="" class="label"><rect/><foreignObject height="19" width="124.296875"><div style="display: inline-block; white-space: nowrap;" xmlns="http://www.w3.org/1999/xhtml"><span class="nodeLabel">Rendered Project</span></div></foreignObject></g></g><g transform="translate(1574.2265625, 136)" id="flowchart-METADATA2-8" class="node default default flowchart-label"><rect height="34" width="159.484375" y="-17" x="-79.7421875" ry="0" rx="0" style="" class="basic label-container"/><g transform="translate(-72.2421875, -9.5)" style="" class="label"><rect/><foreignObject height="19" width="144.484375"><div style="display: inline-block; white-space: nowrap;" xmlns="http://www.w3.org/1999/xhtml"><span class="nodeLabel">.riso/metadata.json</span></div></foreignObject></g></g><g transform="translate(1574.2265625, 220)" id="flowchart-SMOKE-9" class="node default default flowchart-label"><rect height="34" width="149.265625" y="-17" x="-74.6328125" ry="0" rx="0" style="" class="basic label-container"/><g transform="translate(-67.1328125, -9.5)" style="" class="label"><rect/><foreignObject height="19" width="134.265625"><div style="display: inline-block; white-space: nowrap;" xmlns="http://www.w3.org/1999/xhtml"><span class="nodeLabel">smoke-results.json</span></div></foreignObject></g></g><g transform="translate(812.765625, 126)" id="flowchart-PRE-5" class="node default default flowchart-label"><rect height="34" width="156.40625" y="-17" x="-78.203125" ry="0" rx="0" style="" class="basic label-container"/><g transform="translate(-70.703125, -9.5)" style="" class="label"><rect/><foreignObject height="19" width="141.40625"><div style="display: inline-block; white-space: nowrap;" xmlns="http://www.w3.org/1999/xhtml"><span class="nodeLabel">pre_gen_project.py</span></div></foreignObject></g></g><g transform="translate(1313.0546875, 136)" id="flowchart-POST-6" class="node default default flowchart-label"><rect height="34" width="162.859375" y="-17" x="-81.4296875" ry="0" rx="0" style="" class="basic label-container"/><g transform="translate(-73.9296875, -9.5)" style="" class="label"><rect/><foreignObject height="19" width="147.859375"><div style="display: inline-block; white-space: nowrap;" xmlns="http://www.w3.org/1999/xhtml"><span class="nodeLabel">post_gen_project.py</span></div></foreignObject></g></g><g transform="translate(418.5078125, 390)" id="flowchart-PROMPTS2-2" class="node default default flowchart-label"><rect height="34" width="111.828125" y="-17" x="-55.9140625" ry="0" rx="0" style="" class="basic label-container"/><g transform="translate(-48.4140625, -9.5)" style="" class="label"><rect/><foreignObject height="19" width="96.828125"><div style="display: inline-block; white-space: nowrap;" xmlns="http://www.w3.org/1999/xhtml"><span class="nodeLabel">Load Prompts</span></div></foreignObject></g></g><g transform="translate(591.9921875, 348)" id="flowchart-VALIDATE-3" class="node default default flowchart-label"><rect height="34" width="135.140625" y="-17" x="-67.5703125" ry="0" rx="0" style="" class="basic label-container"/><g transform="translate(-60.0703125, -9.5)" style="" class="label"><rect/><foreignObject height="19" width="120.140625"><div style="display: inline-block; white-space: nowrap;" xmlns="http://www.w3.org/1999/xhtml"><span class="nodeLabel">Validate Answers</span></div></foreignObject></g></g><g transform="translate(1085.4140625, 354)" id="flowchart-RENDER2-4" class="node default default flowchart-label"><rect height="34" width="142.421875" y="-17" x="-71.2109375" ry="0" rx="0" style="" class="basic label-container"/><g transform="translate(-63.7109375, -9.5)" style="" class="label"><rect/><foreignObject height="19" width="127.421875"><div style="display: inline-block; white-space: nowrap;" xmlns="http://www.w3.org/1999/xhtml"><span class="nodeLabel">Render Templates</span></div></foreignObject></g></g><g transform="translate(102.265625, 390)" id="flowchart-USER-0" class="node default default flowchart-label"><rect height="34" width="46.796875" y="-17" x="-23.3984375" ry="0" rx="0" style="" class="basic label-container"/><g transform="translate(-15.8984375, -9.5)" style="" class="label"><rect/><foreignObject height="19" width="31.796875"><div style="display: inline-block; white-space: nowrap;" xmlns="http://www.w3.org/1999/xhtml"><span class="nodeLabel">User</span></div></foreignObject></g></g><g transform="translate(102.265625, 306)" id="flowchart-ANSWERS-1" class="node default default flowchart-label"><rect height="34" width="154.53125" y="-17" x="-77.265625" ry="0" rx="0" style="" class="basic label-container"/><g transform="translate(-69.765625, -9.5)" style="" class="label"><rect/><foreignObject height="19" width="139.53125"><div style="display: inline-block; white-space: nowrap;" xmlns="http://www.w3.org/1999/xhtml"><span class="nodeLabel">copier-answers.yml</span></div></foreignObject></g></g></g></g></g></svg>