<svg aria-roledescription="flowchart-v2" role="graphics-document document" viewBox="-8 -8 2468.05859375 1450" style="max-width: 2468.06px; background-color: transparent;" xmlns:xlink="http://www.w3.org/1999/xlink" xmlns="http://www.w3.org/2000/svg" width="100%" id="my-svg"><style>#my-svg{font-family:"trebuchet ms",verdana,arial,sans-serif;font-size:16px;fill:#333;}#my-svg .error-icon{fill:#552222;}#my-svg .error-text{fill:#552222;stroke:#552222;}#my-svg .edge-thickness-normal{stroke-width:2px;}#my-svg .edge-thickness-thick{stroke-width:3.5px;}#my-svg .edge-pattern-solid{stroke-dasharray:0;}#my-svg .edge-pattern-dashed{stroke-dasharray:3;}#my-svg .edge-pattern-dotted{stroke-dasharray:2;}#my-svg .marker{fill:#333333;stroke:#333333;}#my-svg .marker.cross{stroke:#333333;}#my-svg svg{font-family:"trebuchet ms",verdana,arial,sans-serif;font-size:16px;}#my-svg .label{font-family:"trebuchet ms",verdana,arial,sans-serif;color:#333;}#my-svg .cluster-label text{fill:#333;}#my-svg .cluster-label span,#my-svg p{color:#333;}#my-svg .label text,#my-svg span,#my-svg p{fill:#333;color:#333;}#my-svg .node rect,#my-svg .node circle,#my-svg .node ellipse,#my-svg .node polygon,#my-svg .node path{fill:#ECECFF;stroke:#9370DB;stroke-width:1px;}#my-svg .flowchart-label text{text-anchor:middle;}#my-svg .node .label{text-align:center;}#my-svg .node.clickable{cursor:pointer;}#my-svg .arrowheadPath{fill:#333333;}#my-svg .edgePath .path{stroke:#333333;stroke-width:2.0px;}#my-svg .flowchart-link{stroke:#333333;fill:none;}#my-svg .edgeLabel{background-color:#e8e8e8;text-align:center;}#my-svg .edgeLabel rect{opacity:0.5;background-color:#e8e8e8;fill:#e8e8e8;}#my-svg .labelBkg{background-color:rgba(232, 232, 232, 0.5);}#my-svg .cluster rect{fill:#ffffde;stroke:#aaaa33;stroke-width:1px;}#my-svg .cluster text{fill:#333;}#my-svg .cluster span,#my-svg p{color:#333;}#my-svg div.mermaidTooltip{position:absolute;text-align:center;max-width:200px;padding:2px;font-family:"trebuchet ms",verdana,arial,sans-serif;font-size:12px;background:hsl(80, 100%, 96.2745098039%);border:1px solid #aaaa33;border-radius:2px;pointer-events:none;z-index:100;}#my-svg .flowchartTitleText{text-anchor:middle;font-size:18px;fill:#333;}#my-svg :root{--mermaid-font-family:"trebuchet ms",verdana,arial,sans-serif;}</style><g><marker orient="auto" markerHeight="12" markerWidth="12" markerUnits="userSpaceOnUse" refY="5" refX="6" viewBox="0 0 10 10" class="marker flowchart" id="my-svg_flowchart-pointEnd"><path style="stroke-width: 1; stroke-dasharray: 1, 0;" class="arrowMarkerPath" d="M 0 0 L 10 5 L 0 10 z"/></marker><marker orient="auto" markerHeight="12" markerWidth="12" markerUnits="userSpaceOnUse" refY="5" refX="4.5" viewBox="0 0 10 10" class="marker flowchart" id="my-svg_flowchart-pointStart"><path style="stroke-width: 1; stroke-dasharray: 1, 0;" class="arrowMarkerPath" d="M 0 5 L 10 10 L 10 0 z"/></marker><marker orient="auto" markerHeight="11" markerWidth="11" markerUnits="userSpaceOnUse" refY="5" refX="11" viewBox="0 0 10 10" class="marker flowchart" id="my-svg_flowchart-circleEnd"><circle style="stroke-width: 1; stroke-dasharray: 1, 0;" class="arrowMarkerPath" r="5" cy="5" cx="5"/></marker><marker orient="auto" markerHeight="11" markerWidth="11" markerUnits="userSpaceOnUse" refY="5" refX="-1" viewBox="0 0 10 10" class="marker flowchart" id="my-svg_flowchart-circleStart"><circle style="stroke-width: 1; stroke-dasharray: 1, 0;" class="arrowMarkerPath" r="5" cy="5" cx="5"/></marker><marker orient="auto" markerHeight="11" markerWidth="11" markerUnits="userSpaceOnUse" refY="5.2" refX="12" viewBox="0 0 11 11" class="marker cross flowchart" id="my-svg_flowchart-crossEnd"><path style="stroke-width: 2; stroke-dasharray: 1, 0;" class="arrowMarkerPath" d="M 1,1 l 9,9 M 10,1 l -9,9"/></marker><marker orient="auto" markerHeight="11" markerWidth="11" markerUnits="userSpaceOnUse" refY="5.2" refX="-1" viewBox="0 0 11 11" class="marker cross flowchart" id="my-svg_flowchart-crossStart"><path style="stroke-width: 2; stroke-dasharray: 1, 0;" class="arrowMarkerPath" d="M 1,1 l 9,9 M 10,1 l -9,9"/></marker><g class="root"><g class="clusters"><g id="recovery" class="cluster default flowchart-label"><rect height="1434" width="532.6015625" y="0" x="1919.45703125" ry="0" rx="0" style="fill:#fef3c7;stroke:#f59e0b;"/><g transform="translate(2125.46875, 0)" class="cluster-label"><foreignObject height="19" width="120.578125"><div style="display: inline-block; white-space: nowrap;" xmlns="http://www.w3.org/1999/xhtml"><span class="nodeLabel">Recovery Actions</span></div></foreignObject></g></g><g id="errors" class="cluster default flowchart-label"><rect height="111" width="1351.0625" y="1214" x="0" ry="0" rx="0" style="fill:#fee2e2;stroke:#ef4444;"/><g transform="translate(623.921875, 1214)" class="cluster-label"><foreignObject height="19" width="103.21875"><div style="display: inline-block; white-space: nowrap;" xmlns="http://www.w3.org/1999/xhtml"><span class="nodeLabel">Error Handling</span></div></foreignObject></g></g><g id="validation" class="cluster default flowchart-label"><rect height="1017" width="1520.71484375" y="128" x="181.0390625" ry="0" rx="0" style="fill:#ccfbf1;stroke:#14b8a6;"/><g transform="translate(883.029296875, 128)" class="cluster-label"><foreignObject height="19" width="116.734375"><div style="display: inline-block; white-space: nowrap;" xmlns="http://www.w3.org/1999/xhtml"><span class="nodeLabel">Validation Phase</span></div></foreignObject></g></g></g><g class="edgePaths"><path marker-end="url(#my-svg_flowchart-pointEnd)" style="fill:none;" class="edge-thickness-normal edge-pattern-solid flowchart-link LS-START LE-CHECK_UV" id="L-START-CHECK_UV-0" d="M868.01953125,59L868.01953125,64.75C868.01953125,70.5,868.01953125,82,868.01953125,93.5C868.01953125,105,868.01953125,116.5,868.0855476504745,125.61683642420321C868.1515640509491,134.73367284840646,868.2835968518983,141.4673456968129,868.3496132523728,144.83418212101614L868.4156296528474,148.20101854521937"/><path marker-end="url(#my-svg_flowchart-pointEnd)" style="fill:none;" class="edge-thickness-normal edge-pattern-solid flowchart-link LS-CHECK_UV LE-ERR_UV" id="L-CHECK_UV-ERR_UV-0" d="M809.7147331910472,232.58582694104726L719.4523818258727,248.05329328420603C629.1900304606982,263.52075962736484,448.66532773034913,294.4556923136824,358.40297636517454,328.0364399068412C268.140625,361.6171875,268.140625,397.84375,268.140625,434.0703125C268.140625,470.296875,268.140625,506.5234375,268.140625,544.3125C268.140625,582.1015625,268.140625,621.453125,268.140625,660.8046875C268.140625,700.15625,268.140625,739.5078125,268.140625,775.04296875C268.140625,810.578125,268.140625,842.296875,268.140625,874.015625C268.140625,905.734375,268.140625,937.453125,268.140625,968.7565104166666C268.140625,1000.0598958333334,268.140625,1030.9479166666667,268.140625,1060.2526041666667C268.140625,1089.5572916666667,268.140625,1117.2786458333333,268.140625,1136.8893229166667C268.140625,1156.5,268.140625,1168,268.140625,1179.5C268.140625,1191,268.140625,1202.5,268.140625,1211.5333333333333C268.140625,1220.5666666666666,268.140625,1227.1333333333334,268.140625,1230.4166666666667L268.140625,1233.7"/><path marker-end="url(#my-svg_flowchart-pointEnd)" style="fill:none;" class="edge-thickness-normal edge-pattern-solid flowchart-link LS-CHECK_UV LE-CHECK_PY" id="L-CHECK_UV-CHECK_PY-0" d="M927.3243293089528,232.58582694104726L1017.4200140074607,248.05329328420603C1107.5156987059684,263.52075962736484,1287.7070681029843,294.4556923136824,1377.8734683746673,314.87324877910163C1468.0398686463504,335.29080524452087,1468.1812997927007,345.1909854890417,1468.2520153658759,350.14107561130214L1468.3227309390509,355.0911657335626"/><path marker-end="url(#my-svg_flowchart-pointEnd)" style="fill:none;" class="edge-thickness-normal edge-pattern-solid flowchart-link LS-ERR_UV LE-INSTALL_UV" id="L-ERR_UV-INSTALL_UV-0" d="M501.28125,1262.4037577845331L766.3248697916666,1254.3364648204442C1031.3684895833333,1246.2691718563553,1561.4557291666667,1230.1345859281776,1826.4993489583333,1216.317292964089C2091.54296875,1202.5,2091.54296875,1191,2091.54296875,1179.5C2091.54296875,1168,2091.54296875,1156.5,2091.54296875,1136.8893229166667C2091.54296875,1117.2786458333333,2091.54296875,1089.5572916666667,2091.54296875,1060.2526041666667C2091.54296875,1030.9479166666667,2091.54296875,1000.0598958333334,2091.54296875,968.7565104166666C2091.54296875,937.453125,2091.54296875,905.734375,2091.54296875,874.015625C2091.54296875,842.296875,2091.54296875,810.578125,2091.54296875,775.04296875C2091.54296875,739.5078125,2091.54296875,700.15625,2091.54296875,660.8046875C2091.54296875,621.453125,2091.54296875,582.1015625,2091.54296875,544.3125C2091.54296875,506.5234375,2091.54296875,470.296875,2091.54296875,434.0703125C2091.54296875,397.84375,2091.54296875,361.6171875,2091.54296875,326.2630208333333C2091.54296875,290.9088541666667,2091.54296875,256.4270833333333,2091.54296875,223.52864583333334C2091.54296875,190.63020833333334,2091.54296875,159.31510416666666,2091.54296875,137.90755208333334C2091.54296875,116.5,2091.54296875,105,2087.1951904779967,94.17104299680197C2082.847412205993,83.34208599360392,2074.1518556619862,73.18417198720785,2069.804077389983,68.1052149840098L2065.4562991179796,63.026257980811764"/><path marker-end="url(#my-svg_flowchart-pointEnd)" style="fill:none;" class="edge-thickness-normal edge-pattern-solid flowchart-link LS-INSTALL_UV LE-CHECK_UV" id="L-INSTALL_UV-CHECK_UV-0" d="M2032.9043916868932,59L2027.9821753640779,64.75C2023.0599590412621,70.5,2013.215526395631,82,2008.2933100728158,93.5C2003.37109375,105,2003.37109375,116.5,1825.7221838458815,137.03944425771707C1648.0732739417633,157.5788885154341,1292.7754541335264,187.15777703086823,1115.1265442294082,201.94722128858527L937.4776343252896,216.7366655463023"/><path marker-end="url(#my-svg_flowchart-pointEnd)" style="fill:none;" class="edge-thickness-normal edge-pattern-solid flowchart-link LS-INSTALL_UV LE-ABORT" id="L-INSTALL_UV-ABORT-0" d="M2050.580059162621,59L2051.6363774271845,64.75C2052.6926956917473,70.5,2054.805332220874,82,2055.8616504854367,93.5C2056.91796875,105,2056.91796875,116.5,2024.1198594812315,134.7594285700628C1991.3217502124633,153.01885714012562,1925.7255316749263,178.0377142802512,1892.927422406158,190.547142850314L1860.1293131373895,203.05657142037683"/><path marker-end="url(#my-svg_flowchart-pointEnd)" style="fill:none;" class="edge-thickness-normal edge-pattern-solid flowchart-link LS-CHECK_PY LE-ERR_PY" id="L-CHECK_PY-ERR_PY-0" d="M1403.0567293661516,443.40829186615167L1279.9470140551264,459.96524322179306C1156.837298744101,476.52219457743445,910.6178681220505,509.63609728871717,787.5081528110253,545.8688298943586C664.3984375,582.1015625,664.3984375,621.453125,664.3984375,660.8046875C664.3984375,700.15625,664.3984375,739.5078125,664.3984375,775.04296875C664.3984375,810.578125,664.3984375,842.296875,664.3984375,874.015625C664.3984375,905.734375,664.3984375,937.453125,664.3984375,968.7565104166666C664.3984375,1000.0598958333334,664.3984375,1030.9479166666667,664.3984375,1060.2526041666667C664.3984375,1089.5572916666667,664.3984375,1117.2786458333333,664.3984375,1136.8893229166667C664.3984375,1156.5,664.3984375,1168,664.3984375,1179.5C664.3984375,1191,664.3984375,1202.5,664.3984375,1211.5333333333333C664.3984375,1220.5666666666666,664.3984375,1227.1333333333334,664.3984375,1230.4166666666667L664.3984375,1233.7"/><path marker-end="url(#my-svg_flowchart-pointEnd)" style="fill:none;" class="edge-thickness-normal edge-pattern-solid flowchart-link LS-CHECK_PY LE-CHECK_NODE" id="L-CHECK_PY-CHECK_NODE-0" d="M1468.3984375,508.75L1468.3151041666667,514.4166666666666C1468.2317708333333,520.0833333333334,1468.0651041666667,531.4166666666666,1468.0524864065085,542.0334234555938C1468.0398686463504,552.6501802445208,1468.1812997927007,562.5503604890417,1468.2520153658759,567.5004506113022L1468.3227309390509,572.4505407335625"/><path marker-end="url(#my-svg_flowchart-pointEnd)" style="fill:none;" class="edge-thickness-normal edge-pattern-solid flowchart-link LS-ERR_PY LE-INSTALL_PY" id="L-ERR_PY-INSTALL_PY-0" d="M664.3984375,1300L664.3984375,1304.1666666666667C664.3984375,1308.3333333333333,664.3984375,1316.6666666666667,882.8626302083334,1325C1101.3268229166667,1333.3333333333333,1538.2552083333333,1341.6666666666667,1762.286731242982,1349.5129457211217C1986.3182541526305,1357.3592247755769,1997.4529145552613,1364.7184495511538,2003.0202447565764,1368.3980619389422L2008.5875749578918,1372.0776743267306"/><path marker-end="url(#my-svg_flowchart-pointEnd)" style="fill:none;" class="edge-thickness-normal edge-pattern-solid flowchart-link LS-INSTALL_PY LE-CHECK_PY" id="L-INSTALL_PY-CHECK_PY-0" d="M2068.202194940476,1375L2075.4256572420636,1370.8333333333333C2082.6491195436506,1366.6666666666667,2097.0960441468255,1358.3333333333333,2104.319506448413,1350C2111.54296875,1341.6666666666667,2111.54296875,1333.3333333333333,2111.54296875,1319.9166666666667C2111.54296875,1306.5,2111.54296875,1288,2111.54296875,1269.5C2111.54296875,1251,2111.54296875,1232.5,2111.54296875,1217.5C2111.54296875,1202.5,2111.54296875,1191,2030.0911458333333,1179.5C1948.6393229166667,1168,1785.7356770833333,1156.5,1704.2838541666667,1136.8893229166667C1622.83203125,1117.2786458333333,1622.83203125,1089.5572916666667,1622.83203125,1060.2526041666667C1622.83203125,1030.9479166666667,1622.83203125,1000.0598958333334,1622.83203125,968.7565104166666C1622.83203125,937.453125,1622.83203125,905.734375,1622.83203125,874.015625C1622.83203125,842.296875,1622.83203125,810.578125,1622.83203125,775.04296875C1622.83203125,739.5078125,1622.83203125,700.15625,1622.83203125,660.8046875C1622.83203125,621.453125,1622.83203125,582.1015625,1605.0829941846944,549.9994490889466C1587.333957119389,517.8973356778932,1551.8358829887775,493.0446713557863,1534.0868459234719,480.6183391947329L1516.3378088581662,468.1920070336795"/><path marker-end="url(#my-svg_flowchart-pointEnd)" style="fill:none;" class="edge-thickness-normal edge-pattern-solid flowchart-link LS-CHECK_NODE LE-RENDER" id="L-CHECK_NODE-RENDER-0" d="M1444.0968594545604,720.5577969545603L1439.994127670467,730.2747266288003C1435.8913958863734,739.9916563030401,1427.6859323181868,759.4255156515201,1423.5832005340933,785.00182032576C1419.48046875,810.578125,1419.48046875,842.296875,1419.48046875,874.015625C1419.48046875,905.734375,1419.48046875,937.453125,1419.48046875,968.7565104166666C1419.48046875,1000.0598958333334,1419.48046875,1030.9479166666667,1419.48046875,1060.2526041666667C1419.48046875,1089.5572916666667,1419.48046875,1117.2786458333333,1419.48046875,1136.8893229166667C1419.48046875,1156.5,1419.48046875,1168,1419.48046875,1179.5C1419.48046875,1191,1419.48046875,1202.5,1424.497645339582,1214.0010322698492C1429.5148219291639,1225.5020645396983,1439.5491751083275,1237.0041290793965,1444.5663516979096,1242.7551613492458L1449.5835282874916,1248.5061936190948"/><path marker-end="url(#my-svg_flowchart-pointEnd)" style="fill:none;" class="edge-thickness-normal edge-pattern-solid flowchart-link LS-CHECK_NODE LE-CHECK_NODE_VER" id="L-CHECK_NODE-CHECK_NODE_VER-0" d="M1492.4893241799323,720.7684883200678L1496.362197233277,730.4503027667232C1500.2350702866215,740.1321172133785,1507.980816393311,759.4957461066892,1511.9244050198306,774.127650675605C1515.8679936463504,788.7595552445209,1516.0094247927007,798.6597354890417,1516.0801403658759,803.6098256113022L1516.1508559390509,808.5599157335625"/><path marker-end="url(#my-svg_flowchart-pointEnd)" style="fill:none;" class="edge-thickness-normal edge-pattern-solid flowchart-link LS-CHECK_NODE_VER LE-ERR_NODE" id="L-CHECK_NODE_VER-ERR_NODE-0" d="M1464.1845693560235,883.1298818560235L1376.9624015466864,897.4702140466862C1289.740233737349,911.8105462373491,1115.2958981186746,940.4912106186745,1028.0737303093372,970.2755532260039C940.8515625,1000.0598958333334,940.8515625,1030.9479166666667,940.8515625,1060.2526041666667C940.8515625,1089.5572916666667,940.8515625,1117.2786458333333,940.8515625,1136.8893229166667C940.8515625,1156.5,940.8515625,1168,940.8515625,1179.5C940.8515625,1191,940.8515625,1202.5,940.8515625,1211.5333333333333C940.8515625,1220.5666666666666,940.8515625,1227.1333333333334,940.8515625,1230.4166666666667L940.8515625,1233.7"/><path marker-end="url(#my-svg_flowchart-pointEnd)" style="fill:none;" class="edge-thickness-normal edge-pattern-solid flowchart-link LS-CHECK_NODE_VER LE-CHECK_PNPM" id="L-CHECK_NODE_VER-CHECK_PNPM-0" d="M1516.2265625,935.171875L1516.1432291666667,940.8385416666666C1516.0598958333333,946.5052083333334,1515.8932291666667,957.8385416666666,1515.8806114065085,968.4552984555938C1515.8679936463504,979.0720552445209,1516.0094247927007,988.9722354890417,1516.0801403658759,993.9223256113022L1516.1508559390509,998.8724157335625"/><path marker-end="url(#my-svg_flowchart-pointEnd)" style="fill:none;" class="edge-thickness-normal edge-pattern-solid flowchart-link LS-ERR_NODE LE-INSTALL_NODE" id="L-ERR_NODE-INSTALL_NODE-0" d="M940.8515625,1300L940.8515625,1304.1666666666667C940.8515625,1308.3333333333333,940.8515625,1316.6666666666667,1139.3001302083333,1325C1337.7486979166667,1333.3333333333333,1734.6458333333333,1341.6666666666667,1939.552699941174,1349.558635359487C2144.4595665490147,1357.4506040523072,2157.3761643480298,1364.9012081046144,2163.834463247537,1368.626510130768L2170.2927621470444,1372.3518121569216"/><path marker-end="url(#my-svg_flowchart-pointEnd)" style="fill:none;" class="edge-thickness-normal edge-pattern-solid flowchart-link LS-INSTALL_NODE LE-CHECK_NODE_VER" id="L-INSTALL_NODE-CHECK_NODE_VER-0" d="M2232.8785342261904,1375L2239.8694816468255,1370.8333333333333C2246.8604290674602,1366.6666666666667,2260.84232390873,1358.3333333333333,2267.8332713293653,1350C2274.82421875,1341.6666666666667,2274.82421875,1333.3333333333333,2274.82421875,1319.9166666666667C2274.82421875,1306.5,2274.82421875,1288,2274.82421875,1269.5C2274.82421875,1251,2274.82421875,1232.5,2274.82421875,1217.5C2274.82421875,1202.5,2274.82421875,1191,2172.6458333333335,1179.5C2070.4674479166665,1168,1866.1106770833333,1156.5,1763.9322916666667,1136.8893229166667C1661.75390625,1117.2786458333333,1661.75390625,1089.5572916666667,1661.75390625,1060.2526041666667C1661.75390625,1030.9479166666667,1661.75390625,1000.0598958333334,1644.3607990760781,973.3098060664587C1626.967691902156,946.5597162995841,1592.1814775543123,923.9475575991682,1574.7883703803907,912.6414782489602L1557.3952632064686,901.3353988987523"/><path marker-end="url(#my-svg_flowchart-pointEnd)" style="fill:none;" class="edge-thickness-normal edge-pattern-solid flowchart-link LS-CHECK_PNPM LE-ERR_PNPM" id="L-CHECK_PNPM-ERR_PNPM-0" d="M1470.5048545137354,1074.7782920137354L1427.1082120947794,1086.4819100114462C1383.7115696758235,1098.185528009157,1296.9182848379116,1121.5927640045784,1253.521642418956,1139.0463820022892C1210.125,1156.5,1210.125,1168,1210.125,1179.5C1210.125,1191,1210.125,1202.5,1210.125,1211.5333333333333C1210.125,1220.5666666666666,1210.125,1227.1333333333334,1210.125,1230.4166666666667L1210.125,1233.7"/><path marker-end="url(#my-svg_flowchart-pointEnd)" style="fill:none;" class="edge-thickness-normal edge-pattern-solid flowchart-link LS-CHECK_PNPM LE-RENDER" id="L-CHECK_PNPM-RENDER-0" d="M1516.2265625,1120.5L1516.1432291666667,1124.5833333333333C1516.0598958333333,1128.6666666666667,1515.8932291666667,1136.8333333333333,1515.8098958333333,1146.6666666666667C1515.7265625,1156.5,1515.7265625,1168,1515.7265625,1179.5C1515.7265625,1191,1515.7265625,1202.5,1510.7735321843982,1213.9975216207183C1505.8205018687959,1225.4950432414364,1495.9144412375917,1236.990086482873,1490.96141092199,1242.7376081035911L1486.0083806063876,1248.4851297243094"/><path marker-end="url(#my-svg_flowchart-pointEnd)" style="fill:none;" class="edge-thickness-normal edge-pattern-solid flowchart-link LS-ERR_PNPM LE-INSTALL_PNPM" id="L-ERR_PNPM-INSTALL_PNPM-0" d="M1210.125,1300L1210.125,1304.1666666666667C1210.125,1308.3333333333333,1210.125,1316.6666666666667,1390.908203125,1325C1571.69140625,1333.3333333333333,1933.2578125,1341.6666666666667,2120.2731781713132,1349.547757485105C2307.288543842627,1357.4288483035434,2319.7528689352534,1364.8576966070866,2325.9850314815667,1368.5721207588583L2332.21719402788,1372.28654491063"/><path marker-end="url(#my-svg_flowchart-pointEnd)" style="fill:none;" class="edge-thickness-normal edge-pattern-solid flowchart-link LS-INSTALL_PNPM LE-CHECK_PNPM" id="L-INSTALL_PNPM-CHECK_PNPM-0" d="M2374.975632440476,1375L2377.348834325397,1370.8333333333333C2379.7220362103176,1366.6666666666667,2384.4684399801586,1358.3333333333333,2386.8416418650795,1350C2389.21484375,1341.6666666666667,2389.21484375,1333.3333333333333,2389.21484375,1319.9166666666667C2389.21484375,1306.5,2389.21484375,1288,2389.21484375,1269.5C2389.21484375,1251,2389.21484375,1232.5,2389.21484375,1217.5C2389.21484375,1202.5,2389.21484375,1191,2271.3046875,1179.5C2153.39453125,1168,1917.57421875,1156.5,1779.325358195978,1140.6022599844696C1641.0764976419557,1124.7045199689392,1600.3990890339112,1104.409039937878,1580.0603847298892,1094.2612999223477L1559.7216804258671,1084.1135599068173"/></g><g class="edgeLabels"><g class="edgeLabel"><g transform="translate(0, 0)" class="label"><foreignObject height="0" width="0"><div style="display: inline-block; white-space: nowrap;" xmlns="http://www.w3.org/1999/xhtml"><span class="edgeLabel"></span></div></foreignObject></g></g><g transform="translate(268.140625, 778.859375)" class="edgeLabel"><g transform="translate(-9.3984375, -9.5)" class="label"><foreignObject height="19" width="18.796875"><div style="display: inline-block; white-space: nowrap;" xmlns="http://www.w3.org/1999/xhtml"><span class="edgeLabel">No</span></div></foreignObject></g></g><g transform="translate(1467.8984375, 325.390625)" class="edgeLabel"><g transform="translate(-11.328125, -9.5)" class="label"><foreignObject height="19" width="22.65625"><div style="display: inline-block; white-space: nowrap;" xmlns="http://www.w3.org/1999/xhtml"><span class="edgeLabel">Yes</span></div></foreignObject></g></g><g class="edgeLabel"><g transform="translate(0, 0)" class="label"><foreignObject height="0" width="0"><div style="display: inline-block; white-space: nowrap;" xmlns="http://www.w3.org/1999/xhtml"><span class="edgeLabel"></span></div></foreignObject></g></g><g transform="translate(2003.37109375, 93.5)" class="edgeLabel"><g transform="translate(-18.921875, -9.5)" class="label"><foreignObject height="19" width="37.84375"><div style="display: inline-block; white-space: nowrap;" xmlns="http://www.w3.org/1999/xhtml"><span class="edgeLabel">Retry</span></div></foreignObject></g></g><g transform="translate(2056.91796875, 93.5)" class="edgeLabel"><g transform="translate(-14.625, -9.5)" class="label"><foreignObject height="19" width="29.25"><div style="display: inline-block; white-space: nowrap;" xmlns="http://www.w3.org/1999/xhtml"><span class="edgeLabel">Skip</span></div></foreignObject></g></g><g transform="translate(664.3984375, 874.015625)" class="edgeLabel"><g transform="translate(-9.3984375, -9.5)" class="label"><foreignObject height="19" width="18.796875"><div style="display: inline-block; white-space: nowrap;" xmlns="http://www.w3.org/1999/xhtml"><span class="edgeLabel">No</span></div></foreignObject></g></g><g transform="translate(1467.8984375, 542.75)" class="edgeLabel"><g transform="translate(-11.328125, -9.5)" class="label"><foreignObject height="19" width="22.65625"><div style="display: inline-block; white-space: nowrap;" xmlns="http://www.w3.org/1999/xhtml"><span class="edgeLabel">Yes</span></div></foreignObject></g></g><g class="edgeLabel"><g transform="translate(0, 0)" class="label"><foreignObject height="0" width="0"><div style="display: inline-block; white-space: nowrap;" xmlns="http://www.w3.org/1999/xhtml"><span class="edgeLabel"></span></div></foreignObject></g></g><g transform="translate(1622.83203125, 969.171875)" class="edgeLabel"><g transform="translate(-18.921875, -9.5)" class="label"><foreignObject height="19" width="37.84375"><div style="display: inline-block; white-space: nowrap;" xmlns="http://www.w3.org/1999/xhtml"><span class="edgeLabel">Retry</span></div></foreignObject></g></g><g transform="translate(1419.48046875, 969.171875)" class="edgeLabel"><g transform="translate(-9.3984375, -9.5)" class="label"><foreignObject height="19" width="18.796875"><div style="display: inline-block; white-space: nowrap;" xmlns="http://www.w3.org/1999/xhtml"><span class="edgeLabel">No</span></div></foreignObject></g></g><g transform="translate(1515.7265625, 778.859375)" class="edgeLabel"><g transform="translate(-11.328125, -9.5)" class="label"><foreignObject height="19" width="22.65625"><div style="display: inline-block; white-space: nowrap;" xmlns="http://www.w3.org/1999/xhtml"><span class="edgeLabel">Yes</span></div></foreignObject></g></g><g transform="translate(940.8515625, 1061.8359375)" class="edgeLabel"><g transform="translate(-9.3984375, -9.5)" class="label"><foreignObject height="19" width="18.796875"><div style="display: inline-block; white-space: nowrap;" xmlns="http://www.w3.org/1999/xhtml"><span class="edgeLabel">No</span></div></foreignObject></g></g><g transform="translate(1515.7265625, 969.171875)" class="edgeLabel"><g transform="translate(-11.328125, -9.5)" class="label"><foreignObject height="19" width="22.65625"><div style="display: inline-block; white-space: nowrap;" xmlns="http://www.w3.org/1999/xhtml"><span class="edgeLabel">Yes</span></div></foreignObject></g></g><g class="edgeLabel"><g transform="translate(0, 0)" class="label"><foreignObject height="0" width="0"><div style="display: inline-block; white-space: nowrap;" xmlns="http://www.w3.org/1999/xhtml"><span class="edgeLabel"></span></div></foreignObject></g></g><g transform="translate(2274.82421875, 1179.5)" class="edgeLabel"><g transform="translate(-18.921875, -9.5)" class="label"><foreignObject height="19" width="37.84375"><div style="display: inline-block; white-space: nowrap;" xmlns="http://www.w3.org/1999/xhtml"><span class="edgeLabel">Retry</span></div></foreignObject></g></g><g transform="translate(1210.125, 1179.5)" class="edgeLabel"><g transform="translate(-9.3984375, -9.5)" class="label"><foreignObject height="19" width="18.796875"><div style="display: inline-block; white-space: nowrap;" xmlns="http://www.w3.org/1999/xhtml"><span class="edgeLabel">No</span></div></foreignObject></g></g><g transform="translate(1515.7265625, 1179.5)" class="edgeLabel"><g transform="translate(-11.328125, -9.5)" class="label"><foreignObject height="19" width="22.65625"><div style="display: inline-block; white-space: nowrap;" xmlns="http://www.w3.org/1999/xhtml"><span class="edgeLabel">Yes</span></div></foreignObject></g></g><g class="edgeLabel"><g transform="translate(0, 0)" class="label"><foreignObject height="0" width="0"><div style="display: inline-block; white-space: nowrap;" xmlns="http://www.w3.org/1999/xhtml"><span class="edgeLabel"></span></div></foreignObject></g></g><g transform="translate(2389.21484375, 1269.5)" class="edgeLabel"><g transform="translate(-18.921875, -9.5)" class="label"><foreignObject height="19" width="37.84375"><div style="display: inline-block; white-space: nowrap;" xmlns="http://www.w3.org/1999/xhtml"><span class="edgeLabel">Retry</span></div></foreignObject></g></g></g><g class="nodes"><g transform="translate(2047.45703125, 42)" id="flowchart-INSTALL_UV-10" class="node default default flowchart-label"><rect height="34" width="80.265625" y="-17" x="-40.1328125" ry="0" rx="0" style="" class="basic label-container"/><g transform="translate(-32.6328125, -9.5)" style="" class="label"><rect/><foreignObject height="19" width="65.265625"><div style="display: inline-block; white-space: nowrap;" xmlns="http://www.w3.org/1999/xhtml"><span class="nodeLabel">Install uv</span></div></foreignObject></g></g><g transform="translate(2038.73046875, 1392)" id="flowchart-INSTALL_PY-11" class="node default default flowchart-label"><rect height="34" width="112.90625" y="-17" x="-56.453125" ry="0" rx="0" style="" class="basic label-container"/><g transform="translate(-48.953125, -9.5)" style="" class="label"><rect/><foreignObject height="19" width="97.90625"><div style="display: inline-block; white-space: nowrap;" xmlns="http://www.w3.org/1999/xhtml"><span class="nodeLabel">Install Python</span></div></foreignObject></g></g><g transform="translate(2204.35546875, 1392)" id="flowchart-INSTALL_NODE-12" class="node default default flowchart-label"><rect height="34" width="118.34375" y="-17" x="-59.171875" ry="0" rx="0" style="" class="basic label-container"/><g transform="translate(-51.671875, -9.5)" style="" class="label"><rect/><foreignObject height="19" width="103.34375"><div style="display: inline-block; white-space: nowrap;" xmlns="http://www.w3.org/1999/xhtml"><span class="nodeLabel">Install Node.js</span></div></foreignObject></g></g><g transform="translate(2365.29296875, 1392)" id="flowchart-INSTALL_PNPM-13" class="node default default flowchart-label"><rect height="34" width="103.53125" y="-17" x="-51.765625" ry="0" rx="0" style="" class="basic label-container"/><g transform="translate(-44.265625, -9.5)" style="" class="label"><rect/><foreignObject height="19" width="88.53125"><div style="display: inline-block; white-space: nowrap;" xmlns="http://www.w3.org/1999/xhtml"><span class="nodeLabel">Install pnpm</span></div></foreignObject></g></g><g transform="translate(268.140625, 1269.5)" id="flowchart-ERR_UV-6" class="node default default flowchart-label"><rect height="61" width="466.28125" y="-30.5" x="-233.140625" ry="0" rx="0" style="" class="basic label-container"/><g transform="translate(-225.640625, -23)" style="" class="label"><rect/><foreignObject height="46" width="451.28125"><div style="display: inline-block; white-space: nowrap;" xmlns="http://www.w3.org/1999/xhtml"><span class="nodeLabel">❌ ERROR: uv not found<br /><code>curl -LsSf https://astral.sh/uv/install.sh | sh</code></span></div></foreignObject></g></g><g transform="translate(664.3984375, 1269.5)" id="flowchart-ERR_PY-7" class="node default default flowchart-label"><rect height="61" width="226.234375" y="-30.5" x="-113.1171875" ry="0" rx="0" style="" class="basic label-container"/><g transform="translate(-105.6171875, -23)" style="" class="label"><rect/><foreignObject height="46" width="211.234375"><div style="display: inline-block; white-space: nowrap;" xmlns="http://www.w3.org/1999/xhtml"><span class="nodeLabel">❌ ERROR: Python &lt; 3.11<br /><code>uv python install 3.11</code></span></div></foreignObject></g></g><g transform="translate(940.8515625, 1269.5)" id="flowchart-ERR_NODE-8" class="node default default flowchart-label"><rect height="61" width="226.671875" y="-30.5" x="-113.3359375" ry="0" rx="0" style="" class="basic label-container"/><g transform="translate(-105.8359375, -23)" style="" class="label"><rect/><foreignObject height="46" width="211.671875"><div style="display: inline-block; white-space: nowrap;" xmlns="http://www.w3.org/1999/xhtml"><span class="nodeLabel">❌ ERROR: Node.js not found<br /><code>brew install node@20</code></span></div></foreignObject></g></g><g transform="translate(1210.125, 1269.5)" id="flowchart-ERR_PNPM-9" class="node default default flowchart-label"><rect height="61" width="211.875" y="-30.5" x="-105.9375" ry="0" rx="0" style="" class="basic label-container"/><g transform="translate(-98.4375, -23)" style="" class="label"><rect/><foreignObject height="46" width="196.875"><div style="display: inline-block; white-space: nowrap;" xmlns="http://www.w3.org/1999/xhtml"><span class="nodeLabel">❌ ERROR: pnpm not found<br /><code>npm install -g pnpm</code></span></div></foreignObject></g></g><g transform="translate(868.01953125, 221.9453125)" id="flowchart-CHECK_UV-1" class="node default default flowchart-label"><polygon style="" transform="translate(-68.9453125,68.9453125)" class="label-container" points="68.9453125,0 137.890625,-68.9453125 68.9453125,-137.890625 0,-68.9453125"/><g transform="translate(-44.4453125, -9.5)" style="" class="label"><rect/><foreignObject height="19" width="88.890625"><div style="display: inline-block; white-space: nowrap;" xmlns="http://www.w3.org/1999/xhtml"><span class="nodeLabel">uv installed?</span></div></foreignObject></g></g><g transform="translate(1467.8984375, 434.0703125)" id="flowchart-CHECK_PY-2" class="node default default flowchart-label"><polygon style="" transform="translate(-74.1796875,74.1796875)" class="label-container" points="74.1796875,0 148.359375,-74.1796875 74.1796875,-148.359375 0,-74.1796875"/><g transform="translate(-49.6796875, -9.5)" style="" class="label"><rect/><foreignObject height="19" width="99.359375"><div style="display: inline-block; white-space: nowrap;" xmlns="http://www.w3.org/1999/xhtml"><span class="nodeLabel">Python 3.11+?</span></div></foreignObject></g></g><g transform="translate(1467.8984375, 660.8046875)" id="flowchart-CHECK_NODE-3" class="node default default flowchart-label"><polygon style="" transform="translate(-83.5546875,83.5546875)" class="label-container" points="83.5546875,0 167.109375,-83.5546875 83.5546875,-167.109375 0,-83.5546875"/><g transform="translate(-59.0546875, -9.5)" style="" class="label"><rect/><foreignObject height="19" width="118.109375"><div style="display: inline-block; white-space: nowrap;" xmlns="http://www.w3.org/1999/xhtml"><span class="nodeLabel">Node.js needed?</span></div></foreignObject></g></g><g transform="translate(1515.7265625, 874.015625)" id="flowchart-CHECK_NODE_VER-4" class="node default default flowchart-label"><polygon style="" transform="translate(-60.65625,60.65625)" class="label-container" points="60.65625,0 121.3125,-60.65625 60.65625,-121.3125 0,-60.65625"/><g transform="translate(-36.15625, -9.5)" style="" class="label"><rect/><foreignObject height="19" width="72.3125"><div style="display: inline-block; white-space: nowrap;" xmlns="http://www.w3.org/1999/xhtml"><span class="nodeLabel">Node 20+?</span></div></foreignObject></g></g><g transform="translate(1515.7265625, 1061.8359375)" id="flowchart-CHECK_PNPM-5" class="node default default flowchart-label"><polygon style="" transform="translate(-58.1640625,58.1640625)" class="label-container" points="58.1640625,0 116.328125,-58.1640625 58.1640625,-116.328125 0,-58.1640625"/><g transform="translate(-33.6640625, -9.5)" style="" class="label"><rect/><foreignObject height="19" width="67.328125"><div style="display: inline-block; white-space: nowrap;" xmlns="http://www.w3.org/1999/xhtml"><span class="nodeLabel">pnpm 8+?</span></div></foreignObject></g></g><g transform="translate(868.01953125, 42)" id="flowchart-START-0" class="node default default flowchart-label"><rect height="34" width="220.921875" y="-17" x="-110.4609375" ry="17" rx="17" style=""/><g transform="translate(-98.7109375, -9.5)" style="" class="label"><rect/><foreignObject height="19" width="197.421875"><div style="display: inline-block; white-space: nowrap;" xmlns="http://www.w3.org/1999/xhtml"><span class="nodeLabel">Template Generation Starts</span></div></foreignObject></g></g><g transform="translate(1467.8984375, 1269.5)" id="flowchart-RENDER-14" class="node default default flowchart-label"><rect height="34" width="163.671875" y="-17" x="-81.8359375" ry="17" rx="17" style="fill:#dcfce7;stroke:#22c55e;"/><g transform="translate(-70.0859375, -9.5)" style="" class="label"><rect/><foreignObject height="19" width="140.171875"><div style="display: inline-block; white-space: nowrap;" xmlns="http://www.w3.org/1999/xhtml"><span class="nodeLabel">Continue Rendering</span></div></foreignObject></g></g><g transform="translate(1810.60546875, 221.9453125)" id="flowchart-ABORT-15" class="node default default flowchart-label"><rect height="34" width="147.703125" y="-17" x="-73.8515625" ry="17" rx="17" style="fill:#fecaca;stroke:#dc2626;"/><g transform="translate(-62.1015625, -9.5)" style="" class="label"><rect/><foreignObject height="19" width="124.203125"><div style="display: inline-block; white-space: nowrap;" xmlns="http://www.w3.org/1999/xhtml"><span class="nodeLabel">Abort Generation</span></div></foreignObject></g></g></g></g></g></svg>