<svg aria-roledescription="journey" role="graphics-document document" height="565" preserveAspectRatio="xMinYMin meet" viewBox="0 -25 3700 540" style="max-width: 3700px; background-color: transparent;" xmlns:xlink="http://www.w3.org/1999/xlink" xmlns="http://www.w3.org/2000/svg" width="100%" id="my-svg"><style>#my-svg{font-family:"trebuchet ms",verdana,arial,sans-serif;font-size:16px;fill:#333;}#my-svg .error-icon{fill:#552222;}#my-svg .error-text{fill:#552222;stroke:#552222;}#my-svg .edge-thickness-normal{stroke-width:2px;}#my-svg .edge-thickness-thick{stroke-width:3.5px;}#my-svg .edge-pattern-solid{stroke-dasharray:0;}#my-svg .edge-pattern-dashed{stroke-dasharray:3;}#my-svg .edge-pattern-dotted{stroke-dasharray:2;}#my-svg .marker{fill:#333333;stroke:#333333;}#my-svg .marker.cross{stroke:#333333;}#my-svg svg{font-family:"trebuchet ms",verdana,arial,sans-serif;font-size:16px;}#my-svg .label{font-family:'trebuchet ms',verdana,arial,sans-serif;font-family:var(--mermaid-font-family);color:#333;}#my-svg .mouth{stroke:#666;}#my-svg line{stroke:#333;}#my-svg .legend{fill:#333;}#my-svg .label text{fill:#333;}#my-svg .label{color:#333;}#my-svg .face{fill:#FFF8DC;stroke:#999;}#my-svg .node rect,#my-svg .node circle,#my-svg .node ellipse,#my-svg .node polygon,#my-svg .node path{fill:#ECECFF;stroke:#9370DB;stroke-width:1px;}#my-svg .node .label{text-align:center;}#my-svg .node.clickable{cursor:pointer;}#my-svg .arrowheadPath{fill:#333333;}#my-svg .edgePath .path{stroke:#333333;stroke-width:1.5px;}#my-svg .flowchart-link{stroke:#333333;fill:none;}#my-svg .edgeLabel{background-color:#e8e8e8;text-align:center;}#my-svg .edgeLabel rect{opacity:0.5;}#my-svg .cluster text{fill:#333;}#my-svg div.mermaidTooltip{position:absolute;text-align:center;max-width:200px;padding:2px;font-family:'trebuchet ms',verdana,arial,sans-serif;font-family:var(--mermaid-font-family);font-size:12px;background:hsl(80, 100%, 96.2745098039%);border:1px solid #aaaa33;border-radius:2px;pointer-events:none;z-index:100;}#my-svg .task-type-0,#my-svg .section-type-0{fill:#ECECFF;}#my-svg .task-type-1,#my-svg .section-type-1{fill:#ffffde;}#my-svg .task-type-2,#my-svg .section-type-2{fill:hsl(304, 100%, 96.2745098039%);}#my-svg .task-type-3,#my-svg .section-type-3{fill:hsl(124, 100%, 93.5294117647%);}#my-svg .task-type-4,#my-svg .section-type-4{fill:hsl(176, 100%, 96.2745098039%);}#my-svg .task-type-5,#my-svg .section-type-5{fill:hsl(-4, 100%, 93.5294117647%);}#my-svg .task-type-6,#my-svg .section-type-6{fill:hsl(8, 100%, 96.2745098039%);}#my-svg .task-type-7,#my-svg .section-type-7{fill:hsl(188, 100%, 93.5294117647%);}#my-svg :root{--mermaid-font-family:"trebuchet ms",verdana,arial,sans-serif;}</style><g/><defs><marker orient="auto" markerHeight="4" markerWidth="6" refY="2" refX="5" id="arrowhead"><path d="M 0,0 V 4 L6,2 Z"/></marker></defs><circle r="7" stroke="#000" fill="#8FBC8F" class="actor-0" cy="60" cx="20"/><text class="legend" y="67" x="40"><tspan x="50">Developer</tspan></text><g><rect class="journey-section section-type-0" ry="3" rx="3" height="50" width="550" stroke="#666" fill="#191970" y="50" x="150"/><switch><foreignObject height="50" width="550" y="50" x="150"><div style="display: table; height: 100%; width: 100%;" xmlns="http://www.w3.org/1999/xhtml" class="journey-section section-type-0"><div style="display: table-cell; text-align: center; vertical-align: middle;" class="label">Discovery</div></div></foreignObject><text style="text-anchor: middle; font-size: 14px; font-family: &quot;Open Sans&quot;, sans-serif;" class="journey-section section-type-0" alignment-baseline="central" dominant-baseline="central" y="75" x="425"><tspan dy="0" x="425">Discovery</tspan></text></switch></g><g><line stroke="#666" stroke-dasharray="4 2" stroke-width="1px" class="task-line" y2="450" x2="225" y1="110" x1="225" id="task0"/><circle overflow="visible" stroke-width="2" r="15" class="face" cy="300" cx="225"/><g><circle stroke="#666" fill="#666" stroke-width="2" r="1.5" cy="295" cx="220"/><circle stroke="#666" fill="#666" stroke-width="2" r="1.5" cy="295" cx="230"/><path transform="translate(225,302)" d="M7.5,0A7.5,7.5,0,1,1,-7.5,9.18485099360515e-16L-6.8181818181818175,8.349864539641044e-16A6.8181818181818175,6.8181818181818175,0,1,0,6.8181818181818175,0Z" class="mouth"/></g><rect class="task task-type-0" ry="3" rx="3" height="50" width="150" stroke="#666" fill="#191970" y="110" x="150"/><circle r="7" stroke="#000" fill="#8FBC8F" class="actor-0" cy="110" cx="164"><title>Developer</title></circle><switch><foreignObject height="50" width="150" y="110" x="150"><div style="display: table; height: 100%; width: 100%;" xmlns="http://www.w3.org/1999/xhtml" class="task"><div style="display: table-cell; text-align: center; vertical-align: middle;" class="label">Find Riso on GitHub</div></div></foreignObject><text style="text-anchor: middle; font-size: 14px; font-family: &quot;Open Sans&quot;, sans-serif;" class="task" alignment-baseline="central" dominant-baseline="central" y="135" x="225"><tspan dy="0" x="225">Find Riso on GitHub</tspan></text></switch></g><g><line stroke="#666" stroke-dasharray="4 2" stroke-width="1px" class="task-line" y2="450" x2="425" y1="110" x1="425" id="task1"/><circle overflow="visible" stroke-width="2" r="15" class="face" cy="330" cx="425"/><g><circle stroke="#666" fill="#666" stroke-width="2" r="1.5" cy="325" cx="420"/><circle stroke="#666" fill="#666" stroke-width="2" r="1.5" cy="325" cx="430"/><path transform="translate(425,332)" d="M7.5,0A7.5,7.5,0,1,1,-7.5,9.18485099360515e-16L-6.8181818181818175,8.349864539641044e-16A6.8181818181818175,6.8181818181818175,0,1,0,6.8181818181818175,0Z" class="mouth"/></g><rect class="task task-type-0" ry="3" rx="3" height="50" width="150" stroke="#666" fill="#191970" y="110" x="350"/><circle r="7" stroke="#000" fill="#8FBC8F" class="actor-0" cy="110" cx="364"><title>Developer</title></circle><switch><foreignObject height="50" width="150" y="110" x="350"><div style="display: table; height: 100%; width: 100%;" xmlns="http://www.w3.org/1999/xhtml" class="task"><div style="display: table-cell; text-align: center; vertical-align: middle;" class="label">Read documentation</div></div></foreignObject><text style="text-anchor: middle; font-size: 14px; font-family: &quot;Open Sans&quot;, sans-serif;" class="task" alignment-baseline="central" dominant-baseline="central" y="135" x="425"><tspan dy="0" x="425">Read documentation</tspan></text></switch></g><g><line stroke="#666" stroke-dasharray="4 2" stroke-width="1px" class="task-line" y2="450" x2="625" y1="110" x1="625" id="task2"/><circle overflow="visible" stroke-width="2" r="15" class="face" cy="300" cx="625"/><g><circle stroke="#666" fill="#666" stroke-width="2" r="1.5" cy="295" cx="620"/><circle stroke="#666" fill="#666" stroke-width="2" r="1.5" cy="295" cx="630"/><path transform="translate(625,302)" d="M7.5,0A7.5,7.5,0,1,1,-7.5,9.18485099360515e-16L-6.8181818181818175,8.349864539641044e-16A6.8181818181818175,6.8181818181818175,0,1,0,6.8181818181818175,0Z" class="mouth"/></g><rect class="task task-type-0" ry="3" rx="3" height="50" width="150" stroke="#666" fill="#191970" y="110" x="550"/><circle r="7" stroke="#000" fill="#8FBC8F" class="actor-0" cy="110" cx="564"><title>Developer</title></circle><switch><foreignObject height="50" width="150" y="110" x="550"><div style="display: table; height: 100%; width: 100%;" xmlns="http://www.w3.org/1999/xhtml" class="task"><div style="display: table-cell; text-align: center; vertical-align: middle;" class="label">Star the repository</div></div></foreignObject><text style="text-anchor: middle; font-size: 14px; font-family: &quot;Open Sans&quot;, sans-serif;" class="task" alignment-baseline="central" dominant-baseline="central" y="135" x="625"><tspan dy="0" x="625">Star the repository</tspan></text></switch></g><g><rect class="journey-section section-type-1" ry="3" rx="3" height="50" width="550" stroke="#666" fill="#8B008B" y="50" x="750"/><switch><foreignObject height="50" width="550" y="50" x="750"><div style="display: table; height: 100%; width: 100%;" xmlns="http://www.w3.org/1999/xhtml" class="journey-section section-type-1"><div style="display: table-cell; text-align: center; vertical-align: middle;" class="label">Installation</div></div></foreignObject><text style="text-anchor: middle; font-size: 14px; font-family: &quot;Open Sans&quot;, sans-serif;" class="journey-section section-type-1" alignment-baseline="central" dominant-baseline="central" y="75" x="1025"><tspan dy="0" x="1025">Installation</tspan></text></switch></g><g><line stroke="#666" stroke-dasharray="4 2" stroke-width="1px" class="task-line" y2="450" x2="825" y1="110" x1="825" id="task3"/><circle overflow="visible" stroke-width="2" r="15" class="face" cy="330" cx="825"/><g><circle stroke="#666" fill="#666" stroke-width="2" r="1.5" cy="325" cx="820"/><circle stroke="#666" fill="#666" stroke-width="2" r="1.5" cy="325" cx="830"/><path transform="translate(825,332)" d="M7.5,0A7.5,7.5,0,1,1,-7.5,9.18485099360515e-16L-6.8181818181818175,8.349864539641044e-16A6.8181818181818175,6.8181818181818175,0,1,0,6.8181818181818175,0Z" class="mouth"/></g><rect class="task task-type-1" ry="3" rx="3" height="50" width="150" stroke="#666" fill="#8B008B" y="110" x="750"/><circle r="7" stroke="#000" fill="#8FBC8F" class="actor-0" cy="110" cx="764"><title>Developer</title></circle><switch><foreignObject height="50" width="150" y="110" x="750"><div style="display: table; height: 100%; width: 100%;" xmlns="http://www.w3.org/1999/xhtml" class="task"><div style="display: table-cell; text-align: center; vertical-align: middle;" class="label">Install uv package manager</div></div></foreignObject><text style="text-anchor: middle; font-size: 14px; font-family: &quot;Open Sans&quot;, sans-serif;" class="task" alignment-baseline="central" dominant-baseline="central" y="135" x="825"><tspan dy="0" x="825">Install uv package manager</tspan></text></switch></g><g><line stroke="#666" stroke-dasharray="4 2" stroke-width="1px" class="task-line" y2="450" x2="1025" y1="110" x1="1025" id="task4"/><circle overflow="visible" stroke-width="2" r="15" class="face" cy="360" cx="1025"/><g><circle stroke="#666" fill="#666" stroke-width="2" r="1.5" cy="355" cx="1020"/><circle stroke="#666" fill="#666" stroke-width="2" r="1.5" cy="355" cx="1030"/><line stroke-width="1px" y2="367" x2="1030" y1="367" x1="1020" stroke="#666" class="mouth"/></g><rect class="task task-type-1" ry="3" rx="3" height="50" width="150" stroke="#666" fill="#8B008B" y="110" x="950"/><circle r="7" stroke="#000" fill="#8FBC8F" class="actor-0" cy="110" cx="964"><title>Developer</title></circle><switch><foreignObject height="50" width="150" y="110" x="950"><div style="display: table; height: 100%; width: 100%;" xmlns="http://www.w3.org/1999/xhtml" class="task"><div style="display: table-cell; text-align: center; vertical-align: middle;" class="label">Install Node.js (optional)</div></div></foreignObject><text style="text-anchor: middle; font-size: 14px; font-family: &quot;Open Sans&quot;, sans-serif;" class="task" alignment-baseline="central" dominant-baseline="central" y="135" x="1025"><tspan dy="0" x="1025">Install Node.js (optional)</tspan></text></switch></g><g><line stroke="#666" stroke-dasharray="4 2" stroke-width="1px" class="task-line" y2="450" x2="1225" y1="110" x1="1225" id="task5"/><circle overflow="visible" stroke-width="2" r="15" class="face" cy="300" cx="1225"/><g><circle stroke="#666" fill="#666" stroke-width="2" r="1.5" cy="295" cx="1220"/><circle stroke="#666" fill="#666" stroke-width="2" r="1.5" cy="295" cx="1230"/><path transform="translate(1225,302)" d="M7.5,0A7.5,7.5,0,1,1,-7.5,9.18485099360515e-16L-6.8181818181818175,8.349864539641044e-16A6.8181818181818175,6.8181818181818175,0,1,0,6.8181818181818175,0Z" class="mouth"/></g><rect class="task task-type-1" ry="3" rx="3" height="50" width="150" stroke="#666" fill="#8B008B" y="110" x="1150"/><circle r="7" stroke="#000" fill="#8FBC8F" class="actor-0" cy="110" cx="1164"><title>Developer</title></circle><switch><foreignObject height="50" width="150" y="110" x="1150"><div style="display: table; height: 100%; width: 100%;" xmlns="http://www.w3.org/1999/xhtml" class="task"><div style="display: table-cell; text-align: center; vertical-align: middle;" class="label">Clone or use copier</div></div></foreignObject><text style="text-anchor: middle; font-size: 14px; font-family: &quot;Open Sans&quot;, sans-serif;" class="task" alignment-baseline="central" dominant-baseline="central" y="135" x="1225"><tspan dy="0" x="1225">Clone or use copier</tspan></text></switch></g><g><rect class="journey-section section-type-2" ry="3" rx="3" height="50" width="750" stroke="#666" fill="#4B0082" y="50" x="1350"/><switch><foreignObject height="50" width="750" y="50" x="1350"><div style="display: table; height: 100%; width: 100%;" xmlns="http://www.w3.org/1999/xhtml" class="journey-section section-type-2"><div style="display: table-cell; text-align: center; vertical-align: middle;" class="label">Configuration</div></div></foreignObject><text style="text-anchor: middle; font-size: 14px; font-family: &quot;Open Sans&quot;, sans-serif;" class="journey-section section-type-2" alignment-baseline="central" dominant-baseline="central" y="75" x="1725"><tspan dy="0" x="1725">Configuration</tspan></text></switch></g><g><line stroke="#666" stroke-dasharray="4 2" stroke-width="1px" class="task-line" y2="450" x2="1425" y1="110" x1="1425" id="task6"/><circle overflow="visible" stroke-width="2" r="15" class="face" cy="330" cx="1425"/><g><circle stroke="#666" fill="#666" stroke-width="2" r="1.5" cy="325" cx="1420"/><circle stroke="#666" fill="#666" stroke-width="2" r="1.5" cy="325" cx="1430"/><path transform="translate(1425,332)" d="M7.5,0A7.5,7.5,0,1,1,-7.5,9.18485099360515e-16L-6.8181818181818175,8.349864539641044e-16A6.8181818181818175,6.8181818181818175,0,1,0,6.8181818181818175,0Z" class="mouth"/></g><rect class="task task-type-2" ry="3" rx="3" height="50" width="150" stroke="#666" fill="#4B0082" y="110" x="1350"/><circle r="7" stroke="#000" fill="#8FBC8F" class="actor-0" cy="110" cx="1364"><title>Developer</title></circle><switch><foreignObject height="50" width="150" y="110" x="1350"><div style="display: table; height: 100%; width: 100%;" xmlns="http://www.w3.org/1999/xhtml" class="task"><div style="display: table-cell; text-align: center; vertical-align: middle;" class="label">Answer copier prompts</div></div></foreignObject><text style="text-anchor: middle; font-size: 14px; font-family: &quot;Open Sans&quot;, sans-serif;" class="task" alignment-baseline="central" dominant-baseline="central" y="135" x="1425"><tspan dy="0" x="1425">Answer copier prompts</tspan></text></switch></g><g><line stroke="#666" stroke-dasharray="4 2" stroke-width="1px" class="task-line" y2="450" x2="1625" y1="110" x1="1625" id="task7"/><circle overflow="visible" stroke-width="2" r="15" class="face" cy="300" cx="1625"/><g><circle stroke="#666" fill="#666" stroke-width="2" r="1.5" cy="295" cx="1620"/><circle stroke="#666" fill="#666" stroke-width="2" r="1.5" cy="295" cx="1630"/><path transform="translate(1625,302)" d="M7.5,0A7.5,7.5,0,1,1,-7.5,9.18485099360515e-16L-6.8181818181818175,8.349864539641044e-16A6.8181818181818175,6.8181818181818175,0,1,0,6.8181818181818175,0Z" class="mouth"/></g><rect class="task task-type-2" ry="3" rx="3" height="50" width="150" stroke="#666" fill="#4B0082" y="110" x="1550"/><circle r="7" stroke="#000" fill="#8FBC8F" class="actor-0" cy="110" cx="1564"><title>Developer</title></circle><switch><foreignObject height="50" width="150" y="110" x="1550"><div style="display: table; height: 100%; width: 100%;" xmlns="http://www.w3.org/1999/xhtml" class="task"><div style="display: table-cell; text-align: center; vertical-align: middle;" class="label">Select language tracks</div></div></foreignObject><text style="text-anchor: middle; font-size: 14px; font-family: &quot;Open Sans&quot;, sans-serif;" class="task" alignment-baseline="central" dominant-baseline="central" y="135" x="1625"><tspan dy="0" x="1625">Select language tracks</tspan></text></switch></g><g><line stroke="#666" stroke-dasharray="4 2" stroke-width="1px" class="task-line" y2="450" x2="1825" y1="110" x1="1825" id="task8"/><circle overflow="visible" stroke-width="2" r="15" class="face" cy="300" cx="1825"/><g><circle stroke="#666" fill="#666" stroke-width="2" r="1.5" cy="295" cx="1820"/><circle stroke="#666" fill="#666" stroke-width="2" r="1.5" cy="295" cx="1830"/><path transform="translate(1825,302)" d="M7.5,0A7.5,7.5,0,1,1,-7.5,9.18485099360515e-16L-6.8181818181818175,8.349864539641044e-16A6.8181818181818175,6.8181818181818175,0,1,0,6.8181818181818175,0Z" class="mouth"/></g><rect class="task task-type-2" ry="3" rx="3" height="50" width="150" stroke="#666" fill="#4B0082" y="110" x="1750"/><circle r="7" stroke="#000" fill="#8FBC8F" class="actor-0" cy="110" cx="1764"><title>Developer</title></circle><switch><foreignObject height="50" width="150" y="110" x="1750"><div style="display: table; height: 100%; width: 100%;" xmlns="http://www.w3.org/1999/xhtml" class="task"><div style="display: table-cell; text-align: center; vertical-align: middle;" class="label">Choose frameworks</div></div></foreignObject><text style="text-anchor: middle; font-size: 14px; font-family: &quot;Open Sans&quot;, sans-serif;" class="task" alignment-baseline="central" dominant-baseline="central" y="135" x="1825"><tspan dy="0" x="1825">Choose frameworks</tspan></text></switch></g><g><line stroke="#666" stroke-dasharray="4 2" stroke-width="1px" class="task-line" y2="450" x2="2025" y1="110" x1="2025" id="task9"/><circle overflow="visible" stroke-width="2" r="15" class="face" cy="330" cx="2025"/><g><circle stroke="#666" fill="#666" stroke-width="2" r="1.5" cy="325" cx="2020"/><circle stroke="#666" fill="#666" stroke-width="2" r="1.5" cy="325" cx="2030"/><path transform="translate(2025,332)" d="M7.5,0A7.5,7.5,0,1,1,-7.5,9.18485099360515e-16L-6.8181818181818175,8.349864539641044e-16A6.8181818181818175,6.8181818181818175,0,1,0,6.8181818181818175,0Z" class="mouth"/></g><rect class="task task-type-2" ry="3" rx="3" height="50" width="150" stroke="#666" fill="#4B0082" y="110" x="1950"/><circle r="7" stroke="#000" fill="#8FBC8F" class="actor-0" cy="110" cx="1964"><title>Developer</title></circle><switch><foreignObject height="50" width="150" y="110" x="1950"><div style="display: table; height: 100%; width: 100%;" xmlns="http://www.w3.org/1999/xhtml" class="task"><div style="display: table-cell; text-align: center; vertical-align: middle;" class="label">Configure quality tools</div></div></foreignObject><text style="text-anchor: middle; font-size: 14px; font-family: &quot;Open Sans&quot;, sans-serif;" class="task" alignment-baseline="central" dominant-baseline="central" y="135" x="2025"><tspan dy="0" x="2025">Configure quality tools</tspan></text></switch></g><g><rect class="journey-section section-type-3" ry="3" rx="3" height="50" width="550" stroke="#666" fill="#2F4F4F" y="50" x="2150"/><switch><foreignObject height="50" width="550" y="50" x="2150"><div style="display: table; height: 100%; width: 100%;" xmlns="http://www.w3.org/1999/xhtml" class="journey-section section-type-3"><div style="display: table-cell; text-align: center; vertical-align: middle;" class="label">Generation</div></div></foreignObject><text style="text-anchor: middle; font-size: 14px; font-family: &quot;Open Sans&quot;, sans-serif;" class="journey-section section-type-3" alignment-baseline="central" dominant-baseline="central" y="75" x="2425"><tspan dy="0" x="2425">Generation</tspan></text></switch></g><g><line stroke="#666" stroke-dasharray="4 2" stroke-width="1px" class="task-line" y2="450" x2="2225" y1="110" x1="2225" id="task10"/><circle overflow="visible" stroke-width="2" r="15" class="face" cy="360" cx="2225"/><g><circle stroke="#666" fill="#666" stroke-width="2" r="1.5" cy="355" cx="2220"/><circle stroke="#666" fill="#666" stroke-width="2" r="1.5" cy="355" cx="2230"/><line stroke-width="1px" y2="367" x2="2230" y1="367" x1="2220" stroke="#666" class="mouth"/></g><rect class="task task-type-3" ry="3" rx="3" height="50" width="150" stroke="#666" fill="#2F4F4F" y="110" x="2150"/><circle r="7" stroke="#000" fill="#8FBC8F" class="actor-0" cy="110" cx="2164"><title>Developer</title></circle><switch><foreignObject height="50" width="150" y="110" x="2150"><div style="display: table; height: 100%; width: 100%;" xmlns="http://www.w3.org/1999/xhtml" class="task"><div style="display: table-cell; text-align: center; vertical-align: middle;" class="label">Wait for template rendering</div></div></foreignObject><text style="text-anchor: middle; font-size: 14px; font-family: &quot;Open Sans&quot;, sans-serif;" class="task" alignment-baseline="central" dominant-baseline="central" y="135" x="2225"><tspan dy="0" x="2225">Wait for template rendering</tspan></text></switch></g><g><line stroke="#666" stroke-dasharray="4 2" stroke-width="1px" class="task-line" y2="450" x2="2425" y1="110" x1="2425" id="task11"/><circle overflow="visible" stroke-width="2" r="15" class="face" cy="330" cx="2425"/><g><circle stroke="#666" fill="#666" stroke-width="2" r="1.5" cy="325" cx="2420"/><circle stroke="#666" fill="#666" stroke-width="2" r="1.5" cy="325" cx="2430"/><path transform="translate(2425,332)" d="M7.5,0A7.5,7.5,0,1,1,-7.5,9.18485099360515e-16L-6.8181818181818175,8.349864539641044e-16A6.8181818181818175,6.8181818181818175,0,1,0,6.8181818181818175,0Z" class="mouth"/></g><rect class="task task-type-3" ry="3" rx="3" height="50" width="150" stroke="#666" fill="#2F4F4F" y="110" x="2350"/><circle r="7" stroke="#000" fill="#8FBC8F" class="actor-0" cy="110" cx="2364"><title>Developer</title></circle><switch><foreignObject height="50" width="150" y="110" x="2350"><div style="display: table; height: 100%; width: 100%;" xmlns="http://www.w3.org/1999/xhtml" class="task"><div style="display: table-cell; text-align: center; vertical-align: middle;" class="label">Watch validation pass</div></div></foreignObject><text style="text-anchor: middle; font-size: 14px; font-family: &quot;Open Sans&quot;, sans-serif;" class="task" alignment-baseline="central" dominant-baseline="central" y="135" x="2425"><tspan dy="0" x="2425">Watch validation pass</tspan></text></switch></g><g><line stroke="#666" stroke-dasharray="4 2" stroke-width="1px" class="task-line" y2="450" x2="2625" y1="110" x1="2625" id="task12"/><circle overflow="visible" stroke-width="2" r="15" class="face" cy="300" cx="2625"/><g><circle stroke="#666" fill="#666" stroke-width="2" r="1.5" cy="295" cx="2620"/><circle stroke="#666" fill="#666" stroke-width="2" r="1.5" cy="295" cx="2630"/><path transform="translate(2625,302)" d="M7.5,0A7.5,7.5,0,1,1,-7.5,9.18485099360515e-16L-6.8181818181818175,8.349864539641044e-16A6.8181818181818175,6.8181818181818175,0,1,0,6.8181818181818175,0Z" class="mouth"/></g><rect class="task task-type-3" ry="3" rx="3" height="50" width="150" stroke="#666" fill="#2F4F4F" y="110" x="2550"/><circle r="7" stroke="#000" fill="#8FBC8F" class="actor-0" cy="110" cx="2564"><title>Developer</title></circle><switch><foreignObject height="50" width="150" y="110" x="2550"><div style="display: table; height: 100%; width: 100%;" xmlns="http://www.w3.org/1999/xhtml" class="task"><div style="display: table-cell; text-align: center; vertical-align: middle;" class="label">See project scaffolded</div></div></foreignObject><text style="text-anchor: middle; font-size: 14px; font-family: &quot;Open Sans&quot;, sans-serif;" class="task" alignment-baseline="central" dominant-baseline="central" y="135" x="2625"><tspan dy="0" x="2625">See project scaffolded</tspan></text></switch></g><g><rect class="journey-section section-type-4" ry="3" rx="3" height="50" width="750" stroke="#666" fill="#800000" y="50" x="2750"/><switch><foreignObject height="50" width="750" y="50" x="2750"><div style="display: table; height: 100%; width: 100%;" xmlns="http://www.w3.org/1999/xhtml" class="journey-section section-type-4"><div style="display: table-cell; text-align: center; vertical-align: middle;" class="label">First Run</div></div></foreignObject><text style="text-anchor: middle; font-size: 14px; font-family: &quot;Open Sans&quot;, sans-serif;" class="journey-section section-type-4" alignment-baseline="central" dominant-baseline="central" y="75" x="3125"><tspan dy="0" x="3125">First Run</tspan></text></switch></g><g><line stroke="#666" stroke-dasharray="4 2" stroke-width="1px" class="task-line" y2="450" x2="2825" y1="110" x1="2825" id="task13"/><circle overflow="visible" stroke-width="2" r="15" class="face" cy="300" cx="2825"/><g><circle stroke="#666" fill="#666" stroke-width="2" r="1.5" cy="295" cx="2820"/><circle stroke="#666" fill="#666" stroke-width="2" r="1.5" cy="295" cx="2830"/><path transform="translate(2825,302)" d="M7.5,0A7.5,7.5,0,1,1,-7.5,9.18485099360515e-16L-6.8181818181818175,8.349864539641044e-16A6.8181818181818175,6.8181818181818175,0,1,0,6.8181818181818175,0Z" class="mouth"/></g><rect class="task task-type-4" ry="3" rx="3" height="50" width="150" stroke="#666" fill="#800000" y="110" x="2750"/><circle r="7" stroke="#000" fill="#8FBC8F" class="actor-0" cy="110" cx="2764"><title>Developer</title></circle><switch><foreignObject height="50" width="150" y="110" x="2750"><div style="display: table; height: 100%; width: 100%;" xmlns="http://www.w3.org/1999/xhtml" class="task"><div style="display: table-cell; text-align: center; vertical-align: middle;" class="label">Run quickstart module</div></div></foreignObject><text style="text-anchor: middle; font-size: 14px; font-family: &quot;Open Sans&quot;, sans-serif;" class="task" alignment-baseline="central" dominant-baseline="central" y="135" x="2825"><tspan dy="0" x="2825">Run quickstart module</tspan></text></switch></g><g><line stroke="#666" stroke-dasharray="4 2" stroke-width="1px" class="task-line" y2="450" x2="3025" y1="110" x1="3025" id="task14"/><circle overflow="visible" stroke-width="2" r="15" class="face" cy="330" cx="3025"/><g><circle stroke="#666" fill="#666" stroke-width="2" r="1.5" cy="325" cx="3020"/><circle stroke="#666" fill="#666" stroke-width="2" r="1.5" cy="325" cx="3030"/><path transform="translate(3025,332)" d="M7.5,0A7.5,7.5,0,1,1,-7.5,9.18485099360515e-16L-6.8181818181818175,8.349864539641044e-16A6.8181818181818175,6.8181818181818175,0,1,0,6.8181818181818175,0Z" class="mouth"/></g><rect class="task task-type-4" ry="3" rx="3" height="50" width="150" stroke="#666" fill="#800000" y="110" x="2950"/><circle r="7" stroke="#000" fill="#8FBC8F" class="actor-0" cy="110" cx="2964"><title>Developer</title></circle><switch><foreignObject height="50" width="150" y="110" x="2950"><div style="display: table; height: 100%; width: 100%;" xmlns="http://www.w3.org/1999/xhtml" class="task"><div style="display: table-cell; text-align: center; vertical-align: middle;" class="label">Execute quality checks</div></div></foreignObject><text style="text-anchor: middle; font-size: 14px; font-family: &quot;Open Sans&quot;, sans-serif;" class="task" alignment-baseline="central" dominant-baseline="central" y="135" x="3025"><tspan dy="0" x="3025">Execute quality checks</tspan></text></switch></g><g><line stroke="#666" stroke-dasharray="4 2" stroke-width="1px" class="task-line" y2="450" x2="3225" y1="110" x1="3225" id="task15"/><circle overflow="visible" stroke-width="2" r="15" class="face" cy="300" cx="3225"/><g><circle stroke="#666" fill="#666" stroke-width="2" r="1.5" cy="295" cx="3220"/><circle stroke="#666" fill="#666" stroke-width="2" r="1.5" cy="295" cx="3230"/><path transform="translate(3225,302)" d="M7.5,0A7.5,7.5,0,1,1,-7.5,9.18485099360515e-16L-6.8181818181818175,8.349864539641044e-16A6.8181818181818175,6.8181818181818175,0,1,0,6.8181818181818175,0Z" class="mouth"/></g><rect class="task task-type-4" ry="3" rx="3" height="50" width="150" stroke="#666" fill="#800000" y="110" x="3150"/><circle r="7" stroke="#000" fill="#8FBC8F" class="actor-0" cy="110" cx="3164"><title>Developer</title></circle><switch><foreignObject height="50" width="150" y="110" x="3150"><div style="display: table; height: 100%; width: 100%;" xmlns="http://www.w3.org/1999/xhtml" class="task"><div style="display: table-cell; text-align: center; vertical-align: middle;" class="label">See all tests pass</div></div></foreignObject><text style="text-anchor: middle; font-size: 14px; font-family: &quot;Open Sans&quot;, sans-serif;" class="task" alignment-baseline="central" dominant-baseline="central" y="135" x="3225"><tspan dy="0" x="3225">See all tests pass</tspan></text></switch></g><g><line stroke="#666" stroke-dasharray="4 2" stroke-width="1px" class="task-line" y2="450" x2="3425" y1="110" x1="3425" id="task16"/><circle overflow="visible" stroke-width="2" r="15" class="face" cy="300" cx="3425"/><g><circle stroke="#666" fill="#666" stroke-width="2" r="1.5" cy="295" cx="3420"/><circle stroke="#666" fill="#666" stroke-width="2" r="1.5" cy="295" cx="3430"/><path transform="translate(3425,302)" d="M7.5,0A7.5,7.5,0,1,1,-7.5,9.18485099360515e-16L-6.8181818181818175,8.349864539641044e-16A6.8181818181818175,6.8181818181818175,0,1,0,6.8181818181818175,0Z" class="mouth"/></g><rect class="task task-type-4" ry="3" rx="3" height="50" width="150" stroke="#666" fill="#800000" y="110" x="3350"/><circle r="7" stroke="#000" fill="#8FBC8F" class="actor-0" cy="110" cx="3364"><title>Developer</title></circle><switch><foreignObject height="50" width="150" y="110" x="3350"><div style="display: table; height: 100%; width: 100%;" xmlns="http://www.w3.org/1999/xhtml" class="task"><div style="display: table-cell; text-align: center; vertical-align: middle;" class="label">Start development</div></div></foreignObject><text style="text-anchor: middle; font-size: 14px; font-family: &quot;Open Sans&quot;, sans-serif;" class="task" alignment-baseline="central" dominant-baseline="central" y="135" x="3425"><tspan dy="0" x="3425">Start development</tspan></text></switch></g><text y="25" font-weight="bold" font-size="4ex" x="150">Developer Journey: Creating a New Project with Riso</text><line marker-end="url(#arrowhead)" stroke="black" stroke-width="4" y2="200" x2="3546" y1="200" x1="150"/></svg>