<svg aria-roledescription="journey" role="graphics-document document" height="565" preserveAspectRatio="xMinYMin meet" viewBox="0 -25 1500 540" style="max-width: 1500px; background-color: transparent;" xmlns:xlink="http://www.w3.org/1999/xlink" xmlns="http://www.w3.org/2000/svg" width="100%" id="my-svg"><style>#my-svg{font-family:"trebuchet ms",verdana,arial,sans-serif;font-size:16px;fill:#333;}#my-svg .error-icon{fill:#552222;}#my-svg .error-text{fill:#552222;stroke:#552222;}#my-svg .edge-thickness-normal{stroke-width:2px;}#my-svg .edge-thickness-thick{stroke-width:3.5px;}#my-svg .edge-pattern-solid{stroke-dasharray:0;}#my-svg .edge-pattern-dashed{stroke-dasharray:3;}#my-svg .edge-pattern-dotted{stroke-dasharray:2;}#my-svg .marker{fill:#333333;stroke:#333333;}#my-svg .marker.cross{stroke:#333333;}#my-svg svg{font-family:"trebuchet ms",verdana,arial,sans-serif;font-size:16px;}#my-svg .label{font-family:'trebuchet ms',verdana,arial,sans-serif;font-family:var(--mermaid-font-family);color:#333;}#my-svg .mouth{stroke:#666;}#my-svg line{stroke:#333;}#my-svg .legend{fill:#333;}#my-svg .label text{fill:#333;}#my-svg .label{color:#333;}#my-svg .face{fill:#FFF8DC;stroke:#999;}#my-svg .node rect,#my-svg .node circle,#my-svg .node ellipse,#my-svg .node polygon,#my-svg .node path{fill:#ECECFF;stroke:#9370DB;stroke-width:1px;}#my-svg .node .label{text-align:center;}#my-svg .node.clickable{cursor:pointer;}#my-svg .arrowheadPath{fill:#333333;}#my-svg .edgePath .path{stroke:#333333;stroke-width:1.5px;}#my-svg .flowchart-link{stroke:#333333;fill:none;}#my-svg .edgeLabel{background-color:#e8e8e8;text-align:center;}#my-svg .edgeLabel rect{opacity:0.5;}#my-svg .cluster text{fill:#333;}#my-svg div.mermaidTooltip{position:absolute;text-align:center;max-width:200px;padding:2px;font-family:'trebuchet ms',verdana,arial,sans-serif;font-family:var(--mermaid-font-family);font-size:12px;background:hsl(80, 100%, 96.2745098039%);border:1px solid #aaaa33;border-radius:2px;pointer-events:none;z-index:100;}#my-svg .task-type-0,#my-svg .section-type-0{fill:#ECECFF;}#my-svg .task-type-1,#my-svg .section-type-1{fill:#ffffde;}#my-svg .task-type-2,#my-svg .section-type-2{fill:hsl(304, 100%, 96.2745098039%);}#my-svg .task-type-3,#my-svg .section-type-3{fill:hsl(124, 100%, 93.5294117647%);}#my-svg .task-type-4,#my-svg .section-type-4{fill:hsl(176, 100%, 96.2745098039%);}#my-svg .task-type-5,#my-svg .section-type-5{fill:hsl(-4, 100%, 93.5294117647%);}#my-svg .task-type-6,#my-svg .section-type-6{fill:hsl(8, 100%, 96.2745098039%);}#my-svg .task-type-7,#my-svg .section-type-7{fill:hsl(188, 100%, 93.5294117647%);}#my-svg :root{--mermaid-font-family:"trebuchet ms",verdana,arial,sans-serif;}</style><g/><defs><marker orient="auto" markerHeight="4" markerWidth="6" refY="2" refX="5" id="arrowhead"><path d="M 0,0 V 4 L6,2 Z"/></marker></defs><circle r="7" stroke="#000" fill="#8FBC8F" class="actor-0" cy="60" cx="20"/><text class="legend" y="67" x="40"><tspan x="50">Dev</tspan></text><g><rect class="journey-section section-type-0" ry="3" rx="3" height="50" width="350" stroke="#666" fill="#191970" y="50" x="150"/><switch><foreignObject height="50" width="350" y="50" x="150"><div style="display: table; height: 100%; width: 100%;" xmlns="http://www.w3.org/1999/xhtml" class="journey-section section-type-0"><div style="display: table-cell; text-align: center; vertical-align: middle;" class="label">Install</div></div></foreignObject><text style="text-anchor: middle; font-size: 14px; font-family: &quot;Open Sans&quot;, sans-serif;" class="journey-section section-type-0" alignment-baseline="central" dominant-baseline="central" y="75" x="325"><tspan dy="0" x="325">Install</tspan></text></switch></g><g><line stroke="#666" stroke-dasharray="4 2" stroke-width="1px" class="task-line" y2="450" x2="225" y1="110" x1="225" id="task0"/><circle overflow="visible" stroke-width="2" r="15" class="face" cy="300" cx="225"/><g><circle stroke="#666" fill="#666" stroke-width="2" r="1.5" cy="295" cx="220"/><circle stroke="#666" fill="#666" stroke-width="2" r="1.5" cy="295" cx="230"/><path transform="translate(225,302)" d="M7.5,0A7.5,7.5,0,1,1,-7.5,9.18485099360515e-16L-6.8181818181818175,8.349864539641044e-16A6.8181818181818175,6.8181818181818175,0,1,0,6.8181818181818175,0Z" class="mouth"/></g><rect class="task task-type-0" ry="3" rx="3" height="50" width="150" stroke="#666" fill="#191970" y="110" x="150"/><circle r="7" stroke="#000" fill="#8FBC8F" class="actor-0" cy="110" cx="164"><title>Dev</title></circle><switch><foreignObject height="50" width="150" y="110" x="150"><div style="display: table; height: 100%; width: 100%;" xmlns="http://www.w3.org/1999/xhtml" class="task"><div style="display: table-cell; text-align: center; vertical-align: middle;" class="label">Get uv</div></div></foreignObject><text style="text-anchor: middle; font-size: 14px; font-family: &quot;Open Sans&quot;, sans-serif;" class="task" alignment-baseline="central" dominant-baseline="central" y="135" x="225"><tspan dy="0" x="225">Get uv</tspan></text></switch></g><g><line stroke="#666" stroke-dasharray="4 2" stroke-width="1px" class="task-line" y2="450" x2="425" y1="110" x1="425" id="task1"/><circle overflow="visible" stroke-width="2" r="15" class="face" cy="300" cx="425"/><g><circle stroke="#666" fill="#666" stroke-width="2" r="1.5" cy="295" cx="420"/><circle stroke="#666" fill="#666" stroke-width="2" r="1.5" cy="295" cx="430"/><path transform="translate(425,302)" d="M7.5,0A7.5,7.5,0,1,1,-7.5,9.18485099360515e-16L-6.8181818181818175,8.349864539641044e-16A6.8181818181818175,6.8181818181818175,0,1,0,6.8181818181818175,0Z" class="mouth"/></g><rect class="task task-type-0" ry="3" rx="3" height="50" width="150" stroke="#666" fill="#191970" y="110" x="350"/><circle r="7" stroke="#000" fill="#8FBC8F" class="actor-0" cy="110" cx="364"><title>Dev</title></circle><switch><foreignObject height="50" width="150" y="110" x="350"><div style="display: table; height: 100%; width: 100%;" xmlns="http://www.w3.org/1999/xhtml" class="task"><div style="display: table-cell; text-align: center; vertical-align: middle;" class="label">copier copy</div></div></foreignObject><text style="text-anchor: middle; font-size: 14px; font-family: &quot;Open Sans&quot;, sans-serif;" class="task" alignment-baseline="central" dominant-baseline="central" y="135" x="425"><tspan dy="0" x="425">copier copy</tspan></text></switch></g><g><rect class="journey-section section-type-1" ry="3" rx="3" height="50" width="350" stroke="#666" fill="#8B008B" y="50" x="550"/><switch><foreignObject height="50" width="350" y="50" x="550"><div style="display: table; height: 100%; width: 100%;" xmlns="http://www.w3.org/1999/xhtml" class="journey-section section-type-1"><div style="display: table-cell; text-align: center; vertical-align: middle;" class="label">Config</div></div></foreignObject><text style="text-anchor: middle; font-size: 14px; font-family: &quot;Open Sans&quot;, sans-serif;" class="journey-section section-type-1" alignment-baseline="central" dominant-baseline="central" y="75" x="725"><tspan dy="0" x="725">Config</tspan></text></switch></g><g><line stroke="#666" stroke-dasharray="4 2" stroke-width="1px" class="task-line" y2="450" x2="625" y1="110" x1="625" id="task2"/><circle overflow="visible" stroke-width="2" r="15" class="face" cy="330" cx="625"/><g><circle stroke="#666" fill="#666" stroke-width="2" r="1.5" cy="325" cx="620"/><circle stroke="#666" fill="#666" stroke-width="2" r="1.5" cy="325" cx="630"/><path transform="translate(625,332)" d="M7.5,0A7.5,7.5,0,1,1,-7.5,9.18485099360515e-16L-6.8181818181818175,8.349864539641044e-16A6.8181818181818175,6.8181818181818175,0,1,0,6.8181818181818175,0Z" class="mouth"/></g><rect class="task task-type-1" ry="3" rx="3" height="50" width="150" stroke="#666" fill="#8B008B" y="110" x="550"/><circle r="7" stroke="#000" fill="#8FBC8F" class="actor-0" cy="110" cx="564"><title>Dev</title></circle><switch><foreignObject height="50" width="150" y="110" x="550"><div style="display: table; height: 100%; width: 100%;" xmlns="http://www.w3.org/1999/xhtml" class="task"><div style="display: table-cell; text-align: center; vertical-align: middle;" class="label">Prompts</div></div></foreignObject><text style="text-anchor: middle; font-size: 14px; font-family: &quot;Open Sans&quot;, sans-serif;" class="task" alignment-baseline="central" dominant-baseline="central" y="135" x="625"><tspan dy="0" x="625">Prompts</tspan></text></switch></g><g><line stroke="#666" stroke-dasharray="4 2" stroke-width="1px" class="task-line" y2="450" x2="825" y1="110" x1="825" id="task3"/><circle overflow="visible" stroke-width="2" r="15" class="face" cy="300" cx="825"/><g><circle stroke="#666" fill="#666" stroke-width="2" r="1.5" cy="295" cx="820"/><circle stroke="#666" fill="#666" stroke-width="2" r="1.5" cy="295" cx="830"/><path transform="translate(825,302)" d="M7.5,0A7.5,7.5,0,1,1,-7.5,9.18485099360515e-16L-6.8181818181818175,8.349864539641044e-16A6.8181818181818175,6.8181818181818175,0,1,0,6.8181818181818175,0Z" class="mouth"/></g><rect class="task task-type-1" ry="3" rx="3" height="50" width="150" stroke="#666" fill="#8B008B" y="110" x="750"/><circle r="7" stroke="#000" fill="#8FBC8F" class="actor-0" cy="110" cx="764"><title>Dev</title></circle><switch><foreignObject height="50" width="150" y="110" x="750"><div style="display: table; height: 100%; width: 100%;" xmlns="http://www.w3.org/1999/xhtml" class="task"><div style="display: table-cell; text-align: center; vertical-align: middle;" class="label">Tracks</div></div></foreignObject><text style="text-anchor: middle; font-size: 14px; font-family: &quot;Open Sans&quot;, sans-serif;" class="task" alignment-baseline="central" dominant-baseline="central" y="135" x="825"><tspan dy="0" x="825">Tracks</tspan></text></switch></g><g><rect class="journey-section section-type-2" ry="3" rx="3" height="50" width="350" stroke="#666" fill="#4B0082" y="50" x="950"/><switch><foreignObject height="50" width="350" y="50" x="950"><div style="display: table; height: 100%; width: 100%;" xmlns="http://www.w3.org/1999/xhtml" class="journey-section section-type-2"><div style="display: table-cell; text-align: center; vertical-align: middle;" class="label">Run</div></div></foreignObject><text style="text-anchor: middle; font-size: 14px; font-family: &quot;Open Sans&quot;, sans-serif;" class="journey-section section-type-2" alignment-baseline="central" dominant-baseline="central" y="75" x="1125"><tspan dy="0" x="1125">Run</tspan></text></switch></g><g><line stroke="#666" stroke-dasharray="4 2" stroke-width="1px" class="task-line" y2="450" x2="1025" y1="110" x1="1025" id="task4"/><circle overflow="visible" stroke-width="2" r="15" class="face" cy="300" cx="1025"/><g><circle stroke="#666" fill="#666" stroke-width="2" r="1.5" cy="295" cx="1020"/><circle stroke="#666" fill="#666" stroke-width="2" r="1.5" cy="295" cx="1030"/><path transform="translate(1025,302)" d="M7.5,0A7.5,7.5,0,1,1,-7.5,9.18485099360515e-16L-6.8181818181818175,8.349864539641044e-16A6.8181818181818175,6.8181818181818175,0,1,0,6.8181818181818175,0Z" class="mouth"/></g><rect class="task task-type-2" ry="3" rx="3" height="50" width="150" stroke="#666" fill="#4B0082" y="110" x="950"/><circle r="7" stroke="#000" fill="#8FBC8F" class="actor-0" cy="110" cx="964"><title>Dev</title></circle><switch><foreignObject height="50" width="150" y="110" x="950"><div style="display: table; height: 100%; width: 100%;" xmlns="http://www.w3.org/1999/xhtml" class="task"><div style="display: table-cell; text-align: center; vertical-align: middle;" class="label">Quickstart</div></div></foreignObject><text style="text-anchor: middle; font-size: 14px; font-family: &quot;Open Sans&quot;, sans-serif;" class="task" alignment-baseline="central" dominant-baseline="central" y="135" x="1025"><tspan dy="0" x="1025">Quickstart</tspan></text></switch></g><g><line stroke="#666" stroke-dasharray="4 2" stroke-width="1px" class="task-line" y2="450" x2="1225" y1="110" x1="1225" id="task5"/><circle overflow="visible" stroke-width="2" r="15" class="face" cy="300" cx="1225"/><g><circle stroke="#666" fill="#666" stroke-width="2" r="1.5" cy="295" cx="1220"/><circle stroke="#666" fill="#666" stroke-width="2" r="1.5" cy="295" cx="1230"/><path transform="translate(1225,302)" d="M7.5,0A7.5,7.5,0,1,1,-7.5,9.18485099360515e-16L-6.8181818181818175,8.349864539641044e-16A6.8181818181818175,6.8181818181818175,0,1,0,6.8181818181818175,0Z" class="mouth"/></g><rect class="task task-type-2" ry="3" rx="3" height="50" width="150" stroke="#666" fill="#4B0082" y="110" x="1150"/><circle r="7" stroke="#000" fill="#8FBC8F" class="actor-0" cy="110" cx="1164"><title>Dev</title></circle><switch><foreignObject height="50" width="150" y="110" x="1150"><div style="display: table; height: 100%; width: 100%;" xmlns="http://www.w3.org/1999/xhtml" class="task"><div style="display: table-cell; text-align: center; vertical-align: middle;" class="label">Quality</div></div></foreignObject><text style="text-anchor: middle; font-size: 14px; font-family: &quot;Open Sans&quot;, sans-serif;" class="task" alignment-baseline="central" dominant-baseline="central" y="135" x="1225"><tspan dy="0" x="1225">Quality</tspan></text></switch></g><text y="25" font-weight="bold" font-size="4ex" x="150">Riso Project Setup</text><line marker-end="url(#arrowhead)" stroke="black" stroke-width="4" y2="200" x2="1346" y1="200" x1="150"/></svg>