<svg aria-roledescription="pie" role="graphics-document document" style="max-width: 712.969px; background-color: transparent;" viewBox="0 0 712.96875 450" xmlns:xlink="http://www.w3.org/1999/xlink" xmlns="http://www.w3.org/2000/svg" width="100%" id="my-svg"><style>#my-svg{font-family:"trebuchet ms",verdana,arial,sans-serif;font-size:16px;fill:#333;}#my-svg .error-icon{fill:#552222;}#my-svg .error-text{fill:#552222;stroke:#552222;}#my-svg .edge-thickness-normal{stroke-width:2px;}#my-svg .edge-thickness-thick{stroke-width:3.5px;}#my-svg .edge-pattern-solid{stroke-dasharray:0;}#my-svg .edge-pattern-dashed{stroke-dasharray:3;}#my-svg .edge-pattern-dotted{stroke-dasharray:2;}#my-svg .marker{fill:#333333;stroke:#333333;}#my-svg .marker.cross{stroke:#333333;}#my-svg svg{font-family:"trebuchet ms",verdana,arial,sans-serif;font-size:16px;}#my-svg .pieCircle{stroke:black;stroke-width:2px;opacity:0.7;}#my-svg .pieOuterCircle{stroke:black;stroke-width:2px;fill:none;}#my-svg .pieTitleText{text-anchor:middle;font-size:25px;fill:black;font-family:"trebuchet ms",verdana,arial,sans-serif;}#my-svg .slice{font-family:"trebuchet ms",verdana,arial,sans-serif;fill:#333;font-size:17px;}#my-svg .legend text{fill:black;font-family:"trebuchet ms",verdana,arial,sans-serif;font-size:17px;}#my-svg :root{--mermaid-font-family:"trebuchet ms",verdana,arial,sans-serif;}</style><g/><g transform="translate(225,225)"><circle class="pieOuterCircle" r="186" cy="0" cx="0"/><path class="pieCircle" fill="#ECECFF" d="M1.1327982892113017e-14,-185A185,185,0,0,1,149.66814395936527,108.74027167410753L0,0Z"/><path class="pieCircle" fill="#ffffde" d="M149.66814395936527,108.74027167410753A185,185,0,0,1,-57.16814395936526,175.94545551460342L0,0Z"/><path class="pieCircle" fill="hsl(80, 100%, 56.2745098039%)" d="M-57.16814395936526,175.94545551460342A185,185,0,0,1,-183.54121974317837,23.18664820939634L0,0Z"/><path class="pieCircle" fill="hsl(240, 100%, 86.2745098039%)" d="M-183.54121974317837,23.18664820939634A185,185,0,0,1,-149.6681439593653,-108.7402716741075L0,0Z"/><path class="pieCircle" fill="hsl(60, 100%, 63.5294117647%)" d="M-149.6681439593653,-108.7402716741075A185,185,0,0,1,-78.76916893953849,-167.3930047062136L0,0Z"/><path class="pieCircle" fill="hsl(80, 100%, 76.2745098039%)" d="M-78.76916893953849,-167.3930047062136A185,185,0,0,1,-23.18664820939635,-183.54121974317837L0,0Z"/><path class="pieCircle" fill="hsl(300, 100%, 76.2745098039%)" d="M-23.18664820939635,-183.54121974317837A185,185,0,0,1,-3.398394867633905e-14,-185L0,0Z"/><text style="text-anchor: middle;" class="slice" transform="translate(123.62715523113604,-62.99118183886211)">35%</text><text style="text-anchor: middle;" class="slice" transform="translate(42.87610796952396,131.95909163595255)">20%</text><text style="text-anchor: middle;" class="slice" transform="translate(-106.90871243514077,88.44257857763067)">18%</text><text style="text-anchor: middle;" class="slice" transform="translate(-134.39091360659756,-34.505721844123634)">12%</text><text style="text-anchor: middle;" class="slice" transform="translate(-88.44257857763067,-106.90871243514077)">8%</text><text style="text-anchor: middle;" class="slice" transform="translate(-38.71001596294311,-133.24074888767584)">5%</text><text style="text-anchor: middle;" class="slice" transform="translate(-8.712184584692208,-138.47620856942268)">2%</text><text class="pieTitleText" y="-200" x="0">Template Module Distribution</text><g transform="translate(216,-77)" class="legend"><rect style="fill: rgb(236, 236, 255); stroke: rgb(236, 236, 255);" height="18" width="18"/><text y="14" x="22">Python Core [35]</text></g><g transform="translate(216,-55)" class="legend"><rect style="fill: rgb(255, 255, 222); stroke: rgb(255, 255, 222);" height="18" width="18"/><text y="14" x="22">Node.js Track [20]</text></g><g transform="translate(216,-33)" class="legend"><rect style="fill: rgb(181, 255, 32); stroke: rgb(181, 255, 32);" height="18" width="18"/><text y="14" x="22">Frontend Frameworks [18]</text></g><g transform="translate(216,-11)" class="legend"><rect style="fill: rgb(185, 185, 255); stroke: rgb(185, 185, 255);" height="18" width="18"/><text y="14" x="22">Quality/CI [12]</text></g><g transform="translate(216,11)" class="legend"><rect style="fill: rgb(255, 255, 69); stroke: rgb(255, 255, 69);" height="18" width="18"/><text y="14" x="22">Documentation [8]</text></g><g transform="translate(216,33)" class="legend"><rect style="fill: rgb(215, 255, 134); stroke: rgb(215, 255, 134);" height="18" width="18"/><text y="14" x="22">AI Agent Config [5]</text></g><g transform="translate(216,55)" class="legend"><rect style="fill: rgb(255, 134, 255); stroke: rgb(255, 134, 255);" height="18" width="18"/><text y="14" x="22">Rust Track [2]</text></g></g></svg>