<svg aria-roledescription="xychart" role="graphics-document document" viewBox="0 0 700 500" style="max-width: 700px; background-color: transparent;" xmlns:xlink="http://www.w3.org/1999/xlink" xmlns="http://www.w3.org/2000/svg" width="100%" id="my-svg"><style>#my-svg{font-family:"trebuchet ms",verdana,arial,sans-serif;font-size:16px;fill:#333;}#my-svg .error-icon{fill:#552222;}#my-svg .error-text{fill:#552222;stroke:#552222;}#my-svg .edge-thickness-normal{stroke-width:2px;}#my-svg .edge-thickness-thick{stroke-width:3.5px;}#my-svg .edge-pattern-solid{stroke-dasharray:0;}#my-svg .edge-pattern-dashed{stroke-dasharray:3;}#my-svg .edge-pattern-dotted{stroke-dasharray:2;}#my-svg .marker{fill:#333333;stroke:#333333;}#my-svg .marker.cross{stroke:#333333;}#my-svg svg{font-family:"trebuchet ms",verdana,arial,sans-serif;font-size:16px;}#my-svg :root{--mermaid-font-family:"trebuchet ms",verdana,arial,sans-serif;}</style><g/><g class="main"><rect fill="white" class="background" height="500" width="700"/><g class="chart-title"><text transform="translate(350, 21.55078125) rotate(0)" text-anchor="middle" dominant-baseline="middle" font-size="20" fill="#131300" y="0" x="0">Quality Metrics by Profile</text></g><g class="plot"><g class="bar-plot-0"><rect stroke-width="0" stroke="#ECECFF" fill="#ECECFF" height="334.31875" width="80.8390625" y="132.68124999999998" x="70.15859565734863"/><rect stroke-width="0" stroke="#ECECFF" fill="#ECECFF" height="313.923828125" width="80.8390625" y="153.076171875" x="206.87734518051147"/><rect stroke-width="0" stroke="#ECECFF" fill="#ECECFF" height="375.10859375" width="80.8390625" y="91.89140624999999" x="343.59609470367434"/><rect stroke-width="0" stroke="#ECECFF" fill="#ECECFF" height="354.713671875" width="80.8390625" y="112.28632812500001" x="480.3148442268372"/><rect stroke-width="0" stroke="#ECECFF" fill="#ECECFF" height="293.52890625" width="80.8390625" y="173.47109375000002" x="617.03359375"/></g><g class="bar-plot-1"><rect stroke-width="0" stroke="#8493A6" fill="#8493A6" height="395.503515625" width="80.8390625" y="71.49648437500002" x="70.15859565734863"/><rect stroke-width="0" stroke="#8493A6" fill="#8493A6" height="395.503515625" width="80.8390625" y="71.49648437500002" x="206.87734518051147"/><rect stroke-width="0" stroke="#8493A6" fill="#8493A6" height="415.8984375" width="80.8390625" y="51.1015625" x="343.59609470367434"/><rect stroke-width="0" stroke="#8493A6" fill="#8493A6" height="395.503515625" width="80.8390625" y="71.49648437500002" x="480.3148442268372"/><rect stroke-width="0" stroke="#8493A6" fill="#8493A6" height="375.10859375" width="80.8390625" y="91.89140624999999" x="617.03359375"/></g><g class="line-plot-2"><path stroke-width="2" stroke="#FFC3A0" fill="none" d="M110.57812690734863,132.68124999999998L247.29687643051147,153.076171875L384.0156259536743,91.89140624999999L520.7343754768372,112.28632812500001L657.453125,173.47109375000002"/></g><g class="line-plot-3"><path stroke-width="2" stroke="#DCDDE1" fill="none" d="M110.57812690734863,71.49648437500002L247.29687643051147,71.49648437500002L384.0156259536743,51.1015625L520.7343754768372,71.49648437500002L657.453125,91.89140624999999"/></g></g><g class="bottom-axis"><g class="axis-line"><path stroke-width="2" stroke="#131300" fill="none" d="M 68.03125190734863,468 L 700,468"/></g><g class="label"><text transform="translate(110.57812690734863, 479) rotate(0)" text-anchor="middle" dominant-baseline="text-before-edge" font-size="14" fill="#131300" y="0" x="0">Coverage</text><text transform="translate(247.29687643051147, 479) rotate(0)" text-anchor="middle" dominant-baseline="text-before-edge" font-size="14" fill="#131300" y="0" x="0">Type Safety</text><text transform="translate(384.0156259536743, 479) rotate(0)" text-anchor="middle" dominant-baseline="text-before-edge" font-size="14" fill="#131300" y="0" x="0">Lint Rules</text><text transform="translate(520.7343754768372, 479) rotate(0)" text-anchor="middle" dominant-baseline="text-before-edge" font-size="14" fill="#131300" y="0" x="0">Test Count</text><text transform="translate(657.453125, 479) rotate(0)" text-anchor="middle" dominant-baseline="text-before-edge" font-size="14" fill="#131300" y="0" x="0">Doc Coverage</text></g><g class="ticks"><path stroke-width="2" stroke="#131300" fill="none" d="M 110.57812690734863,469 L 110.57812690734863,474"/><path stroke-width="2" stroke="#131300" fill="none" d="M 247.29687643051147,469 L 247.29687643051147,474"/><path stroke-width="2" stroke="#131300" fill="none" d="M 384.0156259536743,469 L 384.0156259536743,474"/><path stroke-width="2" stroke="#131300" fill="none" d="M 520.7343754768372,469 L 520.7343754768372,474"/><path stroke-width="2" stroke="#131300" fill="none" d="M 657.453125,469 L 657.453125,474"/></g></g><g class="left-axis"><g class="axisl-line"><path stroke-width="2" stroke="#131300" fill="none" d="M 67.03125190734863,43.1015625 L 67.03125190734863,467"/></g><g class="label"><text transform="translate(56.03125190734863, 51.1015625) rotate(0)" text-anchor="end" dominant-baseline="middle" font-size="14" fill="#131300" y="0" x="0">100</text><text transform="translate(56.03125190734863, 91.89140624999999) rotate(0)" text-anchor="end" dominant-baseline="middle" font-size="14" fill="#131300" y="0" x="0">90</text><text transform="translate(56.03125190734863, 132.68124999999998) rotate(0)" text-anchor="end" dominant-baseline="middle" font-size="14" fill="#131300" y="0" x="0">80</text><text transform="translate(56.03125190734863, 173.47109375000002) rotate(0)" text-anchor="end" dominant-baseline="middle" font-size="14" fill="#131300" y="0" x="0">70</text><text transform="translate(56.03125190734863, 214.2609375) rotate(0)" text-anchor="end" dominant-baseline="middle" font-size="14" fill="#131300" y="0" x="0">60</text><text transform="translate(56.03125190734863, 255.05078125) rotate(0)" text-anchor="end" dominant-baseline="middle" font-size="14" fill="#131300" y="0" x="0">50</text><text transform="translate(56.03125190734863, 295.840625) rotate(0)" text-anchor="end" dominant-baseline="middle" font-size="14" fill="#131300" y="0" x="0">40</text><text transform="translate(56.03125190734863, 336.63046875) rotate(0)" text-anchor="end" dominant-baseline="middle" font-size="14" fill="#131300" y="0" x="0">30</text><text transform="translate(56.03125190734863, 377.4203125) rotate(0)" text-anchor="end" dominant-baseline="middle" font-size="14" fill="#131300" y="0" x="0">20</text><text transform="translate(56.03125190734863, 418.21015625) rotate(0)" text-anchor="end" dominant-baseline="middle" font-size="14" fill="#131300" y="0" x="0">10</text><text transform="translate(56.03125190734863, 459) rotate(0)" text-anchor="end" dominant-baseline="middle" font-size="14" fill="#131300" y="0" x="0">0</text></g><g class="ticks"><path stroke-width="2" stroke="#131300" fill="none" d="M 66.03125190734863,51.1015625 L 61.03125190734863,51.1015625"/><path stroke-width="2" stroke="#131300" fill="none" d="M 66.03125190734863,91.89140624999999 L 61.03125190734863,91.89140624999999"/><path stroke-width="2" stroke="#131300" fill="none" d="M 66.03125190734863,132.68124999999998 L 61.03125190734863,132.68124999999998"/><path stroke-width="2" stroke="#131300" fill="none" d="M 66.03125190734863,173.47109375000002 L 61.03125190734863,173.47109375000002"/><path stroke-width="2" stroke="#131300" fill="none" d="M 66.03125190734863,214.2609375 L 61.03125190734863,214.2609375"/><path stroke-width="2" stroke="#131300" fill="none" d="M 66.03125190734863,255.05078125 L 61.03125190734863,255.05078125"/><path stroke-width="2" stroke="#131300" fill="none" d="M 66.03125190734863,295.840625 L 61.03125190734863,295.840625"/><path stroke-width="2" stroke="#131300" fill="none" d="M 66.03125190734863,336.63046875 L 61.03125190734863,336.63046875"/><path stroke-width="2" stroke="#131300" fill="none" d="M 66.03125190734863,377.4203125 L 61.03125190734863,377.4203125"/><path stroke-width="2" stroke="#131300" fill="none" d="M 66.03125190734863,418.21015625 L 61.03125190734863,418.21015625"/><path stroke-width="2" stroke="#131300" fill="none" d="M 66.03125190734863,459 L 61.03125190734863,459"/></g><g class="title"><text transform="translate(5, 255.05078125) rotate(270)" text-anchor="middle" dominant-baseline="text-before-edge" font-size="16" fill="#131300" y="0" x="0">Score (%)</text></g></g></g><g class="mermaid-tmp-group"/></svg>