<svg aria-roledescription="flowchart-v2" role="graphics-document document" viewBox="-8 -8 1633.6953125 434" style="max-width: 1633.7px; background-color: transparent;" xmlns:xlink="http://www.w3.org/1999/xlink" xmlns="http://www.w3.org/2000/svg" width="100%" id="my-svg"><style>#my-svg{font-family:"trebuchet ms",verdana,arial,sans-serif;font-size:16px;fill:#333;}#my-svg .error-icon{fill:#552222;}#my-svg .error-text{fill:#552222;stroke:#552222;}#my-svg .edge-thickness-normal{stroke-width:2px;}#my-svg .edge-thickness-thick{stroke-width:3.5px;}#my-svg .edge-pattern-solid{stroke-dasharray:0;}#my-svg .edge-pattern-dashed{stroke-dasharray:3;}#my-svg .edge-pattern-dotted{stroke-dasharray:2;}#my-svg .marker{fill:#333333;stroke:#333333;}#my-svg .marker.cross{stroke:#333333;}#my-svg svg{font-family:"trebuchet ms",verdana,arial,sans-serif;font-size:16px;}#my-svg .label{font-family:"trebuchet ms",verdana,arial,sans-serif;color:#333;}#my-svg .cluster-label text{fill:#333;}#my-svg .cluster-label span,#my-svg p{color:#333;}#my-svg .label text,#my-svg span,#my-svg p{fill:#333;color:#333;}#my-svg .node rect,#my-svg .node circle,#my-svg .node ellipse,#my-svg .node polygon,#my-svg .node path{fill:#ECECFF;stroke:#9370DB;stroke-width:1px;}#my-svg .flowchart-label text{text-anchor:middle;}#my-svg .node .label{text-align:center;}#my-svg .node.clickable{cursor:pointer;}#my-svg .arrowheadPath{fill:#333333;}#my-svg .edgePath .path{stroke:#333333;stroke-width:2.0px;}#my-svg .flowchart-link{stroke:#333333;fill:none;}#my-svg .edgeLabel{background-color:#e8e8e8;text-align:center;}#my-svg .edgeLabel rect{opacity:0.5;background-color:#e8e8e8;fill:#e8e8e8;}#my-svg .labelBkg{background-color:rgba(232, 232, 232, 0.5);}#my-svg .cluster rect{fill:#ffffde;stroke:#aaaa33;stroke-width:1px;}#my-svg .cluster text{fill:#333;}#my-svg .cluster span,#my-svg p{color:#333;}#my-svg div.mermaidTooltip{position:absolute;text-align:center;max-width:200px;padding:2px;font-family:"trebuchet ms",verdana,arial,sans-serif;font-size:12px;background:hsl(80, 100%, 96.2745098039%);border:1px solid #aaaa33;border-radius:2px;pointer-events:none;z-index:100;}#my-svg .flowchartTitleText{text-anchor:middle;font-size:18px;fill:#333;}#my-svg :root{--mermaid-font-family:"trebuchet ms",verdana,arial,sans-serif;}</style><g><marker orient="auto" markerHeight="12" markerWidth="12" markerUnits="userSpaceOnUse" refY="5" refX="6" viewBox="0 0 10 10" class="marker flowchart" id="my-svg_flowchart-pointEnd"><path style="stroke-width: 1; stroke-dasharray: 1, 0;" class="arrowMarkerPath" d="M 0 0 L 10 5 L 0 10 z"/></marker><marker orient="auto" markerHeight="12" markerWidth="12" markerUnits="userSpaceOnUse" refY="5" refX="4.5" viewBox="0 0 10 10" class="marker flowchart" id="my-svg_flowchart-pointStart"><path style="stroke-width: 1; stroke-dasharray: 1, 0;" class="arrowMarkerPath" d="M 0 5 L 10 10 L 10 0 z"/></marker><marker orient="auto" markerHeight="11" markerWidth="11" markerUnits="userSpaceOnUse" refY="5" refX="11" viewBox="0 0 10 10" class="marker flowchart" id="my-svg_flowchart-circleEnd"><circle style="stroke-width: 1; stroke-dasharray: 1, 0;" class="arrowMarkerPath" r="5" cy="5" cx="5"/></marker><marker orient="auto" markerHeight="11" markerWidth="11" markerUnits="userSpaceOnUse" refY="5" refX="-1" viewBox="0 0 10 10" class="marker flowchart" id="my-svg_flowchart-circleStart"><circle style="stroke-width: 1; stroke-dasharray: 1, 0;" class="arrowMarkerPath" r="5" cy="5" cx="5"/></marker><marker orient="auto" markerHeight="11" markerWidth="11" markerUnits="userSpaceOnUse" refY="5.2" refX="12" viewBox="0 0 11 11" class="marker cross flowchart" id="my-svg_flowchart-crossEnd"><path style="stroke-width: 2; stroke-dasharray: 1, 0;" class="arrowMarkerPath" d="M 1,1 l 9,9 M 10,1 l -9,9"/></marker><marker orient="auto" markerHeight="11" markerWidth="11" markerUnits="userSpaceOnUse" refY="5.2" refX="-1" viewBox="0 0 11 11" class="marker cross flowchart" id="my-svg_flowchart-crossStart"><path style="stroke-width: 2; stroke-dasharray: 1, 0;" class="arrowMarkerPath" d="M 1,1 l 9,9 M 10,1 l -9,9"/></marker><g class="root"><g class="clusters"><g id="tools" class="cluster default flowchart-label"><rect height="110" width="571.640625" y="308" x="1046.0546875" ry="0" rx="0" style="fill:#f3e8ff;stroke:#8b5cf6;"/><g transform="translate(1264.5703125, 308)" class="cluster-label"><foreignObject height="19" width="134.609375"><div style="display: inline-block; white-space: nowrap;" xmlns="http://www.w3.org/1999/xhtml"><span class="nodeLabel">Development Tools</span></div></foreignObject></g></g><g id="external" class="cluster default flowchart-label"><rect height="110" width="1005.21875" y="308" x="20.8359375" ry="0" rx="0" style="fill:#f5f5f5;stroke:#9ca3af;"/><g transform="translate(462.71875, 308)" class="cluster-label"><foreignObject height="19" width="121.453125"><div style="display: inline-block; white-space: nowrap;" xmlns="http://www.w3.org/1999/xhtml"><span class="nodeLabel">External Systems</span></div></foreignObject></g></g><g id="boundary" class="cluster default flowchart-label"><rect height="110" width="1410.1875" y="129" x="166.40625" ry="0" rx="0" style=""/><g transform="translate(810.6015625, 129)" class="cluster-label"><foreignObject height="19" width="121.796875"><div style="display: inline-block; white-space: nowrap;" xmlns="http://www.w3.org/1999/xhtml"><span class="nodeLabel">System Boundary</span></div></foreignObject></g></g></g><g class="edgePaths"><path marker-end="url(#my-svg_flowchart-pointEnd)" style="fill:none;" class="edge-thickness-normal edge-pattern-solid flowchart-link LS-DEV LE-RISO" id="L-DEV-RISO-0" d="M1245.2109375,44.46842094288872L1293.6497395833333,52.80701745240727C1342.0885416666667,61.14561396192581,1438.9661458333333,77.82280698096291,1487.4049479166667,91.91140349048146C1535.84375,106,1535.84375,117.5,1436.347614908261,130.7745899444705C1336.8514798165222,144.049179888941,1137.8592096330442,159.098359777882,1038.3630745413054,166.6229497223525L938.8669394495664,174.147539666823"/><path marker-end="url(#my-svg_flowchart-pointEnd)" style="fill:none;" class="edge-thickness-normal edge-pattern-solid flowchart-link LS-DEV LE-RISO" id="L-DEV-RISO-1" d="M1077.1171875,46.78558728546028L1037.298828125,54.737989404550234C997.48046875,62.69039152364019,917.84375,78.5951957618201,878.025390625,92.29759788091003C838.20703125,106,838.20703125,117.5,836.3821128648661,126.63892783733627C834.5571944797324,135.77785567467254,830.9073577094649,142.55571134934505,829.0824393243311,145.94463918668131L827.2575209391973,149.33356702401758"/><path marker-end="url(#my-svg_flowchart-pointEnd)" style="fill:none;" class="edge-thickness-normal edge-pattern-solid flowchart-link LS-MAINTAINER LE-RISO" id="L-MAINTAINER-RISO-0" d="M178.90779433139534,60L183.49087027616278,65.75C188.07394622093022,71.5,197.24009811046508,83,201.82317405523256,94.5C206.40625,106,206.40625,117.5,285.0584791772468,130.433644074077C363.7107083544936,143.367288148154,521.0151667089872,157.73457629630795,599.667395886234,164.91822037038494L678.3196250634808,172.10186444446194"/><path marker-end="url(#my-svg_flowchart-pointEnd)" style="fill:none;" class="edge-thickness-normal edge-pattern-solid flowchart-link LS-MAINTAINER LE-GITHUB" id="L-MAINTAINER-GITHUB-0" d="M108.47538154069767,60L99.55891170058139,65.75C90.64244186046511,71.5,72.80950218023256,83,63.89303234011627,94.5C54.9765625,106,54.9765625,117.5,54.9765625,132.41666666666666C54.9765625,147.33333333333334,54.9765625,165.66666666666666,54.9765625,184C54.9765625,202.33333333333334,54.9765625,220.66666666666666,76.37369791666667,235.58333333333334C97.77083333333333,250.5,140.56510416666666,262,161.96223958333334,273.5C183.359375,285,183.359375,296.5,181.0857789048332,305.68037216244625C178.81218280966644,314.86074432489244,174.2649906193329,321.72148864978493,171.9913945241661,325.1518608122312L169.71779842899934,328.58223297467737"/><path marker-end="url(#my-svg_flowchart-pointEnd)" style="fill:none;" class="edge-thickness-normal edge-pattern-solid flowchart-link LS-RISO LE-PYPI" id="L-RISO-PYPI-0" d="M683.59765625,199.14887280176978L628.7962239583334,205.79072733480817C573.9947916666666,212.43258186784655,464.3919270833333,225.71629093392326,409.5904947916667,238.10814546696164C354.7890625,250.5,354.7890625,262,354.7890625,273.5C354.7890625,285,354.7890625,296.5,354.7890625,305.53333333333336C354.7890625,314.56666666666666,354.7890625,321.1333333333333,354.7890625,324.4166666666667L354.7890625,327.7"/><path marker-end="url(#my-svg_flowchart-pointEnd)" style="fill:none;" class="edge-thickness-normal edge-pattern-solid flowchart-link LS-RISO LE-NPM" id="L-RISO-NPM-0" d="M683.59765625,209.3919404406354L659.306640625,214.32661703386285C635.015625,219.26129362709025,586.43359375,229.13064681354513,562.142578125,239.81532340677256C537.8515625,250.5,537.8515625,262,537.8515625,273.5C537.8515625,285,537.8515625,296.5,537.8515625,305.53333333333336C537.8515625,314.56666666666666,537.8515625,321.1333333333333,537.8515625,324.4166666666667L537.8515625,327.7"/><path marker-end="url(#my-svg_flowchart-pointEnd)" style="fill:none;" class="edge-thickness-normal edge-pattern-solid flowchart-link LS-RISO LE-CARGO" id="L-RISO-CARGO-0" d="M755.8235085227273,214L748.4948508522726,218.16666666666666C741.1661931818181,222.33333333333334,726.508877840909,230.66666666666666,719.1802201704545,240.58333333333334C711.8515625,250.5,711.8515625,262,711.8515625,273.5C711.8515625,285,711.8515625,296.5,711.8515625,305.53333333333336C711.8515625,314.56666666666666,711.8515625,321.1333333333333,711.8515625,324.4166666666667L711.8515625,327.7"/><path marker-end="url(#my-svg_flowchart-pointEnd)" style="fill:none;" class="edge-thickness-normal edge-pattern-solid flowchart-link LS-RISO LE-DOCKER_HUB" id="L-RISO-DOCKER_HUB-0" d="M861.3561789772727,214L868.6848366477274,218.16666666666666C876.0134943181819,222.33333333333334,890.670809659091,230.66666666666666,897.9994673295455,240.58333333333334C905.328125,250.5,905.328125,262,905.328125,273.5C905.328125,285,905.328125,296.5,905.328125,305.53333333333336C905.328125,314.56666666666666,905.328125,321.1333333333333,905.328125,324.4166666666667L905.328125,327.7"/><path marker-end="url(#my-svg_flowchart-pointEnd)" style="fill:none;" class="edge-thickness-normal edge-pattern-solid flowchart-link LS-RISO LE-GITHUB" id="L-RISO-GITHUB-0" d="M683.59765625,196.72166722086484L614.3658854166666,203.76805601738738C545.1341145833334,210.8144448139099,406.6705729166667,224.90722240695496,312.4947916666667,237.7036112034775C218.31901041666666,250.5,168.43098958333334,262,143.48697916666666,273.5C118.54296875,285,118.54296875,296.5,120.28683606301318,305.63157991560746C122.03070337602635,314.76315983121486,125.51843800205273,321.5263196624298,127.26230531506592,324.9078995780372L129.0061726280791,328.28947949364465"/><path marker-end="url(#my-svg_flowchart-pointEnd)" style="fill:none;" class="edge-thickness-normal edge-pattern-solid flowchart-link LS-RISO LE-UV" id="L-RISO-UV-0" d="M933.58203125,204.0669319620073L969.8470052083334,209.88910996833943C1006.1119791666666,215.71128797467154,1078.6419270833333,227.35564398733575,1114.9069010416667,238.9278219936679C1151.171875,250.5,1151.171875,262,1151.171875,273.5C1151.171875,285,1151.171875,296.5,1151.171875,306.1166666666667C1151.171875,315.73333333333335,1151.171875,323.46666666666664,1151.171875,327.3333333333333L1151.171875,331.2"/><path marker-end="url(#my-svg_flowchart-pointEnd)" style="fill:none;" class="edge-thickness-normal edge-pattern-solid flowchart-link LS-RISO LE-PNPM" id="L-RISO-PNPM-0" d="M933.58203125,197.06457719346434L1000.4498697916666,204.05381432788695C1067.3177083333333,211.04305146230956,1201.0533854166667,225.0215257311548,1267.9212239583333,237.7607628655774C1334.7890625,250.5,1334.7890625,262,1334.7890625,273.5C1334.7890625,285,1334.7890625,296.5,1334.7890625,306.1166666666667C1334.7890625,315.73333333333335,1334.7890625,323.46666666666664,1334.7890625,327.3333333333333L1334.7890625,331.2"/><path marker-end="url(#my-svg_flowchart-pointEnd)" style="fill:none;" class="edge-thickness-normal edge-pattern-solid flowchart-link LS-RISO LE-COPIER_CLI" id="L-RISO-COPIER_CLI-0" d="M933.58203125,193.7249222233888L1030.5670572916667,201.27076851949064C1127.5520833333333,208.81661481559254,1321.5221354166667,223.9083074077963,1418.5071614583333,237.20415370389813C1515.4921875,250.5,1515.4921875,262,1515.4921875,273.5C1515.4921875,285,1515.4921875,296.5,1515.4921875,306.1166666666667C1515.4921875,315.73333333333335,1515.4921875,323.46666666666664,1515.4921875,327.3333333333333L1515.4921875,331.2"/></g><g class="edgeLabels"><g transform="translate(1535.84375, 94.5)" class="edgeLabel"><g transform="translate(-41.53125, -9.5)" class="label"><foreignObject height="19" width="83.0625"><div style="display: inline-block; white-space: nowrap;" xmlns="http://www.w3.org/1999/xhtml"><span class="edgeLabel">copier copy</span></div></foreignObject></g></g><g transform="translate(838.20703125, 94.5)" class="edgeLabel"><g transform="translate(-36.9609375, -9.5)" class="label"><foreignObject height="19" width="73.921875"><div style="display: inline-block; white-space: nowrap;" xmlns="http://www.w3.org/1999/xhtml"><span class="edgeLabel">configures</span></div></foreignObject></g></g><g transform="translate(206.40625, 94.5)" class="edgeLabel"><g transform="translate(-66.640625, -9.5)" class="label"><foreignObject height="19" width="133.28125"><div style="display: inline-block; white-space: nowrap;" xmlns="http://www.w3.org/1999/xhtml"><span class="edgeLabel">updates templates</span></div></foreignObject></g></g><g transform="translate(54.9765625, 184)" class="edgeLabel"><g transform="translate(-54.9765625, -9.5)" class="label"><foreignObject height="19" width="109.953125"><div style="display: inline-block; white-space: nowrap;" xmlns="http://www.w3.org/1999/xhtml"><span class="edgeLabel">pushes changes</span></div></foreignObject></g></g><g transform="translate(354.7890625, 273.5)" class="edgeLabel"><g transform="translate(-61.3125, -9.5)" class="label"><foreignObject height="19" width="122.625"><div style="display: inline-block; white-space: nowrap;" xmlns="http://www.w3.org/1999/xhtml"><span class="edgeLabel">fetches packages</span></div></foreignObject></g></g><g transform="translate(537.8515625, 273.5)" class="edgeLabel"><g transform="translate(-61.3125, -9.5)" class="label"><foreignObject height="19" width="122.625"><div style="display: inline-block; white-space: nowrap;" xmlns="http://www.w3.org/1999/xhtml"><span class="edgeLabel">fetches packages</span></div></foreignObject></g></g><g transform="translate(711.8515625, 273.5)" class="edgeLabel"><g transform="translate(-50.8828125, -9.5)" class="label"><foreignObject height="19" width="101.765625"><div style="display: inline-block; white-space: nowrap;" xmlns="http://www.w3.org/1999/xhtml"><span class="edgeLabel">fetches crates</span></div></foreignObject></g></g><g transform="translate(905.328125, 273.5)" class="edgeLabel"><g transform="translate(-51.1953125, -9.5)" class="label"><foreignObject height="19" width="102.390625"><div style="display: inline-block; white-space: nowrap;" xmlns="http://www.w3.org/1999/xhtml"><span class="edgeLabel">pushes images</span></div></foreignObject></g></g><g transform="translate(118.54296875, 273.5)" class="edgeLabel"><g transform="translate(-36.7265625, -9.5)" class="label"><foreignObject height="19" width="73.453125"><div style="display: inline-block; white-space: nowrap;" xmlns="http://www.w3.org/1999/xhtml"><span class="edgeLabel">triggers CI</span></div></foreignObject></g></g><g transform="translate(1151.171875, 273.5)" class="edgeLabel"><g transform="translate(-15.2109375, -9.5)" class="label"><foreignObject height="19" width="30.421875"><div style="display: inline-block; white-space: nowrap;" xmlns="http://www.w3.org/1999/xhtml"><span class="edgeLabel">uses</span></div></foreignObject></g></g><g transform="translate(1334.7890625, 273.5)" class="edgeLabel"><g transform="translate(-15.2109375, -9.5)" class="label"><foreignObject height="19" width="30.421875"><div style="display: inline-block; white-space: nowrap;" xmlns="http://www.w3.org/1999/xhtml"><span class="edgeLabel">uses</span></div></foreignObject></g></g><g transform="translate(1515.4921875, 273.5)" class="edgeLabel"><g transform="translate(-41.8125, -9.5)" class="label"><foreignObject height="19" width="83.625"><div style="display: inline-block; white-space: nowrap;" xmlns="http://www.w3.org/1999/xhtml"><span class="edgeLabel">powered by</span></div></foreignObject></g></g></g><g class="nodes"><g transform="translate(1151.171875, 363)" id="flowchart-UV-8" class="node default default flowchart-label"><rect height="53" width="140.234375" y="-26.5" x="-70.1171875" ry="0" rx="0" style="" class="basic label-container"/><g transform="translate(-62.6171875, -19)" style="" class="label"><rect/><foreignObject height="38" width="125.234375"><div style="display: inline-block; white-space: nowrap;" xmlns="http://www.w3.org/1999/xhtml"><span class="nodeLabel">uv<br /><i>Python packaging</i></span></div></foreignObject></g></g><g transform="translate(1334.7890625, 363)" id="flowchart-PNPM-9" class="node default default flowchart-label"><rect height="53" width="127" y="-26.5" x="-63.5" ry="0" rx="0" style="" class="basic label-container"/><g transform="translate(-56, -19)" style="" class="label"><rect/><foreignObject height="38" width="112"><div style="display: inline-block; white-space: nowrap;" xmlns="http://www.w3.org/1999/xhtml"><span class="nodeLabel">pnpm<br /><i>Node packaging</i></span></div></foreignObject></g></g><g transform="translate(1515.4921875, 363)" id="flowchart-COPIER_CLI-10" class="node default default flowchart-label"><rect height="53" width="134.40625" y="-26.5" x="-67.203125" ry="0" rx="0" style="" class="basic label-container"/><g transform="translate(-59.703125, -19)" style="" class="label"><rect/><foreignObject height="38" width="119.40625"><div style="display: inline-block; white-space: nowrap;" xmlns="http://www.w3.org/1999/xhtml"><span class="nodeLabel">Copier CLI<br /><i>Template engine</i></span></div></foreignObject></g></g><g transform="translate(146.90625, 363)" id="flowchart-GITHUB-3" class="node default default flowchart-label"><rect height="60" width="182.140625" y="-30" x="-91.0703125" ry="0" rx="0" style="" class="basic label-container"/><g transform="translate(-83.5703125, -22.5)" style="" class="label"><rect/><foreignObject height="45" width="167.140625"><div style="display: inline-block; white-space: nowrap;" xmlns="http://www.w3.org/1999/xhtml"><span class="nodeLabel">☁️ GitHub<br /><i>Source control &amp; CI/CD</i></span></div></foreignObject></g></g><g transform="translate(354.7890625, 363)" id="flowchart-PYPI-4" class="node default default flowchart-label"><rect height="60" width="133.625" y="-30" x="-66.8125" ry="0" rx="0" style="" class="basic label-container"/><g transform="translate(-59.3125, -22.5)" style="" class="label"><rect/><foreignObject height="45" width="118.625"><div style="display: inline-block; white-space: nowrap;" xmlns="http://www.w3.org/1999/xhtml"><span class="nodeLabel">📦 PyPI<br /><i>Python packages</i></span></div></foreignObject></g></g><g transform="translate(537.8515625, 363)" id="flowchart-NPM-5" class="node default default flowchart-label"><rect height="60" width="132.5" y="-30" x="-66.25" ry="0" rx="0" style="" class="basic label-container"/><g transform="translate(-58.75, -22.5)" style="" class="label"><rect/><foreignObject height="45" width="117.5"><div style="display: inline-block; white-space: nowrap;" xmlns="http://www.w3.org/1999/xhtml"><span class="nodeLabel">📦 npm Registry<br /><i>Node packages</i></span></div></foreignObject></g></g><g transform="translate(711.8515625, 363)" id="flowchart-CARGO-6" class="node default default flowchart-label"><rect height="60" width="115.5" y="-30" x="-57.75" ry="0" rx="0" style="" class="basic label-container"/><g transform="translate(-50.25, -22.5)" style="" class="label"><rect/><foreignObject height="45" width="100.5"><div style="display: inline-block; white-space: nowrap;" xmlns="http://www.w3.org/1999/xhtml"><span class="nodeLabel">📦 crates.io<br /><i>Rust packages</i></span></div></foreignObject></g></g><g transform="translate(905.328125, 363)" id="flowchart-DOCKER_HUB-7" class="node default default flowchart-label"><rect height="60" width="171.453125" y="-30" x="-85.7265625" ry="0" rx="0" style="" class="basic label-container"/><g transform="translate(-78.2265625, -22.5)" style="" class="label"><rect/><foreignObject height="45" width="156.453125"><div style="display: inline-block; white-space: nowrap;" xmlns="http://www.w3.org/1999/xhtml"><span class="nodeLabel">🐳 Container Registry<br /><i>Docker images</i></span></div></foreignObject></g></g><g transform="translate(808.58984375, 184)" id="flowchart-RISO-0" class="node default default flowchart-label"><rect height="60" width="249.984375" y="-30" x="-124.9921875" ry="0" rx="0" style="fill:#ccfbf1;stroke:#14b8a6;stroke-width:3px;" class="basic label-container"/><g transform="translate(-117.4921875, -22.5)" style="" class="label"><rect/><foreignObject height="45" width="234.984375"><div style="display: inline-block; white-space: nowrap;" xmlns="http://www.w3.org/1999/xhtml"><span class="nodeLabel">🎯 Riso Template System<br /><i>Copier-based project scaffolding</i></span></div></foreignObject></g></g><g transform="translate(1161.1640625, 30)" id="flowchart-DEV-1" class="node default default flowchart-label"><rect height="60" width="168.09375" y="-30" x="-84.046875" ry="0" rx="0" style="fill:#dbeafe;stroke:#3b82f6;" class="basic label-container"/><g transform="translate(-76.546875, -22.5)" style="" class="label"><rect/><foreignObject height="45" width="153.09375"><div style="display: inline-block; white-space: nowrap;" xmlns="http://www.w3.org/1999/xhtml"><span class="nodeLabel">👨‍💻 Developer<br /><i>Creates new projects</i></span></div></foreignObject></g></g><g transform="translate(154.99609375, 30)" id="flowchart-MAINTAINER-2" class="node default default flowchart-label"><rect height="60" width="186.828125" y="-30" x="-93.4140625" ry="0" rx="0" style="fill:#fef3c7;stroke:#f59e0b;" class="basic label-container"/><g transform="translate(-85.9140625, -22.5)" style="" class="label"><rect/><foreignObject height="45" width="171.828125"><div style="display: inline-block; white-space: nowrap;" xmlns="http://www.w3.org/1999/xhtml"><span class="nodeLabel">👷 Template Maintainer<br /><i>Updates template</i></span></div></foreignObject></g></g></g></g></g></svg>