<svg aria-roledescription="pie" role="graphics-document document" style="max-width: 646.594px; background-color: transparent;" viewBox="0 0 646.59375 450" xmlns:xlink="http://www.w3.org/1999/xlink" xmlns="http://www.w3.org/2000/svg" width="100%" id="my-svg"><style>#my-svg{font-family:"trebuchet ms",verdana,arial,sans-serif;font-size:16px;fill:#333;}#my-svg .error-icon{fill:#552222;}#my-svg .error-text{fill:#552222;stroke:#552222;}#my-svg .edge-thickness-normal{stroke-width:2px;}#my-svg .edge-thickness-thick{stroke-width:3.5px;}#my-svg .edge-pattern-solid{stroke-dasharray:0;}#my-svg .edge-pattern-dashed{stroke-dasharray:3;}#my-svg .edge-pattern-dotted{stroke-dasharray:2;}#my-svg .marker{fill:#333333;stroke:#333333;}#my-svg .marker.cross{stroke:#333333;}#my-svg svg{font-family:"trebuchet ms",verdana,arial,sans-serif;font-size:16px;}#my-svg .pieCircle{stroke:black;stroke-width:2px;opacity:0.7;}#my-svg .pieOuterCircle{stroke:black;stroke-width:2px;fill:none;}#my-svg .pieTitleText{text-anchor:middle;font-size:25px;fill:black;font-family:"trebuchet ms",verdana,arial,sans-serif;}#my-svg .slice{font-family:"trebuchet ms",verdana,arial,sans-serif;fill:#333;font-size:17px;}#my-svg .legend text{fill:black;font-family:"trebuchet ms",verdana,arial,sans-serif;font-size:17px;}#my-svg :root{--mermaid-font-family:"trebuchet ms",verdana,arial,sans-serif;}</style><g/><g transform="translate(225,225)"><circle class="pieOuterCircle" r="186" cy="0" cx="0"/><path class="pieCircle" fill="#ECECFF" d="M1.1327982892113017e-14,-185A185,185,0,1,1,-11.61624611292298,184.63494475923025L0,0Z"/><path class="pieCircle" fill="#ffffde" d="M-11.61624611292298,184.63494475923025A185,185,0,0,1,-181.7231413848074,34.665543198359046L0,0Z"/><path class="pieCircle" fill="hsl(80, 100%, 56.2745098039%)" d="M-181.7231413848074,34.665543198359046A185,185,0,0,1,-149.6681439593653,-108.7402716741075L0,0Z"/><path class="pieCircle" fill="hsl(240, 100%, 86.2745098039%)" d="M-149.6681439593653,-108.7402716741075A185,185,0,0,1,-108.74027167410755,-149.66814395936527L0,0Z"/><path class="pieCircle" fill="hsl(60, 100%, 63.5294117647%)" d="M-108.74027167410755,-149.66814395936527A185,185,0,0,1,-57.1681439593653,-175.9454555146034L0,0Z"/><path class="pieCircle" fill="hsl(80, 100%, 76.2745098039%)" d="M-57.1681439593653,-175.9454555146034A185,185,0,0,1,-3.398394867633905e-14,-185L0,0Z"/><text style="text-anchor: middle;" class="slice" transform="translate(138.68153525074527,4.358242822090307)">51%</text><text style="text-anchor: middle;" class="slice" transform="translate(-91.75702131365672,104.07791091122624)">21%</text><text style="text-anchor: middle;" class="slice" transform="translate(-135.4084507190012,-30.267374743770336)">13%</text><text style="text-anchor: middle;" class="slice" transform="translate(-98.1110658896335,-98.11106588963347)">5%</text><text style="text-anchor: middle;" class="slice" transform="translate(-62.99118183886213,-123.62715523113603)">5%</text><text style="text-anchor: middle;" class="slice" transform="translate(-21.705282024332057,-137.04175725757534)">5%</text><text class="pieTitleText" y="-200" x="0">Template Resource Distribution</text><g transform="translate(216,-66)" class="legend"><rect style="fill: rgb(236, 236, 255); stroke: rgb(236, 236, 255);" height="18" width="18"/><text y="14" x="22">Source Files [51]</text></g><g transform="translate(216,-44)" class="legend"><rect style="fill: rgb(255, 255, 222); stroke: rgb(255, 255, 222);" height="18" width="18"/><text y="14" x="22">Config Files [21]</text></g><g transform="translate(216,-22)" class="legend"><rect style="fill: rgb(181, 255, 32); stroke: rgb(181, 255, 32);" height="18" width="18"/><text y="14" x="22">Test Files [13]</text></g><g transform="translate(216,0)" class="legend"><rect style="fill: rgb(185, 185, 255); stroke: rgb(185, 185, 255);" height="18" width="18"/><text y="14" x="22">CI Workflows [5]</text></g><g transform="translate(216,22)" class="legend"><rect style="fill: rgb(255, 255, 69); stroke: rgb(255, 255, 69);" height="18" width="18"/><text y="14" x="22">Quality Config [5]</text></g><g transform="translate(216,44)" class="legend"><rect style="fill: rgb(215, 255, 134); stroke: rgb(215, 255, 134);" height="18" width="18"/><text y="14" x="22">Static Assets [5]</text></g></g></svg>