<svg aria-roledescription="quadrantChart" role="graphics-document document" viewBox="0 0 500 500" style="max-width: 500px; background-color: transparent;" xmlns:xlink="http://www.w3.org/1999/xlink" xmlns="http://www.w3.org/2000/svg" width="100%" id="my-svg"><style>#my-svg{font-family:"trebuchet ms",verdana,arial,sans-serif;font-size:16px;fill:#333;}#my-svg .error-icon{fill:#552222;}#my-svg .error-text{fill:#552222;stroke:#552222;}#my-svg .edge-thickness-normal{stroke-width:2px;}#my-svg .edge-thickness-thick{stroke-width:3.5px;}#my-svg .edge-pattern-solid{stroke-dasharray:0;}#my-svg .edge-pattern-dashed{stroke-dasharray:3;}#my-svg .edge-pattern-dotted{stroke-dasharray:2;}#my-svg .marker{fill:#333333;stroke:#333333;}#my-svg .marker.cross{stroke:#333333;}#my-svg svg{font-family:"trebuchet ms",verdana,arial,sans-serif;font-size:16px;}#my-svg :root{--mermaid-font-family:"trebuchet ms",verdana,arial,sans-serif;}</style><g/><g class="main"><g class="quadrants"><g class="quadrant"><rect fill="#ECECFF" height="212" width="232" y="45" x="263"/><text transform="translate(379, 50) rotate(0)" text-anchor="middle" dominant-baseline="hanging" font-size="16" fill="#131300" y="0" x="0">Invest &amp; Scale</text></g><g class="quadrant"><rect fill="#f1f1ff" height="212" width="232" y="45" x="31"/><text transform="translate(147, 50) rotate(0)" text-anchor="middle" dominant-baseline="hanging" font-size="16" fill="#0e0e00" y="0" x="0">Maintain Excellence</text></g><g class="quadrant"><rect fill="#f6f6ff" height="212" width="232" y="257" x="31"/><text transform="translate(147, 262) rotate(0)" text-anchor="middle" dominant-baseline="hanging" font-size="16" fill="#090900" y="0" x="0">Evaluate &amp; Decide</text></g><g class="quadrant"><rect fill="#fbfbff" height="212" width="232" y="257" x="263"/><text transform="translate(379, 262) rotate(0)" text-anchor="middle" dominant-baseline="hanging" font-size="16" fill="#040400" y="0" x="0">Quick Wins</text></g></g><g class="border"><line style="stroke: rgb(199, 199, 241); stroke-width: 2;" y2="45" x2="496" y1="45" x1="30"/><line style="stroke: rgb(199, 199, 241); stroke-width: 2;" y2="468" x2="495" y1="46" x1="495"/><line style="stroke: rgb(199, 199, 241); stroke-width: 2;" y2="469" x2="496" y1="469" x1="30"/><line style="stroke: rgb(199, 199, 241); stroke-width: 2;" y2="468" x2="31" y1="46" x1="31"/><line style="stroke: rgb(199, 199, 241); stroke-width: 1;" y2="468" x2="263" y1="46" x1="263"/><line style="stroke: rgb(199, 199, 241); stroke-width: 1;" y2="257" x2="494" y1="257" x1="32"/></g><g class="data-points"><g class="data-point"><circle fill="hsl(240, 100%, NaN%)" r="5" cy="257" cx="170.2"/><text transform="translate(170.2, 262) rotate(0)" text-anchor="middle" dominant-baseline="hanging" font-size="12" fill="#131300" y="0" x="0">Moon</text></g><g class="data-point"><circle fill="hsl(240, 100%, NaN%)" r="5" cy="193.39999999999998" cx="216.6"/><text transform="translate(216.6, 198.39999999999998) rotate(0)" text-anchor="middle" dominant-baseline="hanging" font-size="12" fill="#131300" y="0" x="0">Hono</text></g><g class="data-point"><circle fill="hsl(240, 100%, NaN%)" r="5" cy="129.79999999999998" cx="286.2"/><text transform="translate(286.2, 134.79999999999998) rotate(0)" text-anchor="middle" dominant-baseline="hanging" font-size="12" fill="#131300" y="0" x="0">SvelteKit</text></g><g class="data-point"><circle fill="hsl(240, 100%, NaN%)" r="5" cy="172.20000000000002" cx="263"/><text transform="translate(263, 177.20000000000002) rotate(0)" text-anchor="middle" dominant-baseline="hanging" font-size="12" fill="#131300" y="0" x="0">Axum</text></g><g class="data-point"><circle fill="hsl(240, 100%, NaN%)" r="5" cy="95.88" cx="379"/><text transform="translate(379, 100.88) rotate(0)" text-anchor="middle" dominant-baseline="hanging" font-size="12" fill="#131300" y="0" x="0">Fastify</text></g><g class="data-point"><circle fill="hsl(240, 100%, NaN%)" r="5" cy="108.60000000000001" cx="355.8"/><text transform="translate(355.8, 113.60000000000001) rotate(0)" text-anchor="middle" dominant-baseline="hanging" font-size="12" fill="#131300" y="0" x="0">Turborepo</text></g><g class="data-point"><circle fill="hsl(240, 100%, NaN%)" r="5" cy="53.48000000000001" cx="448.6"/><text transform="translate(448.6, 58.48000000000001) rotate(0)" text-anchor="middle" dominant-baseline="hanging" font-size="12" fill="#131300" y="0" x="0">pytest</text></g><g class="data-point"><circle fill="hsl(240, 100%, NaN%)" r="5" cy="151" cx="402.2"/><text transform="translate(402.2, 156) rotate(0)" text-anchor="middle" dominant-baseline="hanging" font-size="12" fill="#131300" y="0" x="0">ty</text></g><g class="data-point"><circle fill="hsl(240, 100%, NaN%)" r="5" cy="87.39999999999999" cx="425.4"/><text transform="translate(425.4, 92.39999999999999) rotate(0)" text-anchor="middle" dominant-baseline="hanging" font-size="12" fill="#131300" y="0" x="0">ruff</text></g><g class="data-point"><circle fill="hsl(240, 100%, NaN%)" r="5" cy="66.20000000000002" cx="448.6"/><text transform="translate(448.6, 71.20000000000002) rotate(0)" text-anchor="middle" dominant-baseline="hanging" font-size="12" fill="#131300" y="0" x="0">FastAPI</text></g></g><g class="labels"><g class="label"><text transform="translate(147, 479) rotate(0)" text-anchor="middle" dominant-baseline="hanging" font-size="16" fill="#131300" y="0" x="0">Low Priority</text></g><g class="label"><text transform="translate(379, 479) rotate(0)" text-anchor="middle" dominant-baseline="hanging" font-size="16" fill="#131300" y="0" x="0">High Priority</text></g><g class="label"><text transform="translate(5, 363) rotate(-90)" text-anchor="middle" dominant-baseline="hanging" font-size="16" fill="#131300" y="0" x="0">Experimental</text></g><g class="label"><text transform="translate(5, 151) rotate(-90)" text-anchor="middle" dominant-baseline="hanging" font-size="16" fill="#131300" y="0" x="0">Production Ready</text></g></g><g class="title"><text transform="translate(250, 10) rotate(0)" text-anchor="middle" dominant-baseline="hanging" font-size="20" fill="#131300" y="0" x="0">Tool Maturity vs Priority</text></g></g></svg>